<ttFont>
    <TTGlyph name=".notdef" xMin="50" yMin="0" xMax="700" yMax="700">
      <contour>
        <pt x="50" y="700" on="1"/>
        <pt x="700" y="700" on="1"/>
        <pt x="700" y="0" on="1"/>
        <pt x="50" y="0" on="1"/>
      </contour>
      <contour>
        <pt x="570" y="620" on="1"/>
        <pt x="375" y="403" on="1"/>
        <pt x="180" y="620" on="1"/>
        <pt x="130" y="570" on="1"/>
        <pt x="327" y="350" on="1"/>
        <pt x="130" y="130" on="1"/>
        <pt x="180" y="80" on="1"/>
        <pt x="375" y="297" on="1"/>
        <pt x="570" y="80" on="1"/>
        <pt x="620" y="130" on="1"/>
        <pt x="422" y="350" on="1"/>
        <pt x="620" y="570" on="1"/>
      </contour>
      <contour>
        <pt x="129" y="27" on="1"/>
        <pt x="137" y="27" on="1"/>
        <pt x="137" y="39" on="1"/>
        <pt x="141" y="39" on="1"/>
        <pt x="147" y="39" on="0"/>
        <pt x="157" y="44" on="0"/>
        <pt x="157" y="51" on="1"/>
        <pt x="157" y="59" on="0"/>
        <pt x="146" y="63" on="0"/>
        <pt x="140" y="63" on="1"/>
        <pt x="129" y="63" on="1"/>
      </contour>
      <contour>
        <pt x="141" y="57" on="1"/>
        <pt x="149" y="57" on="0"/>
        <pt x="149" y="52" on="1"/>
        <pt x="149" y="47" on="0"/>
        <pt x="144" y="46" on="0"/>
        <pt x="140" y="46" on="1"/>
        <pt x="137" y="46" on="1"/>
        <pt x="137" y="57" on="1"/>
      </contour>
      <contour>
        <pt x="189" y="63" on="1"/>
        <pt x="158" y="63" on="1"/>
        <pt x="158" y="57" on="1"/>
        <pt x="170" y="57" on="1"/>
        <pt x="170" y="27" on="1"/>
        <pt x="177" y="27" on="1"/>
        <pt x="177" y="57" on="1"/>
        <pt x="189" y="57" on="1"/>
      </contour>
      <contour>
        <pt x="222" y="37" on="1"/>
        <pt x="222" y="33" on="0"/>
        <pt x="215" y="33" on="1"/>
        <pt x="208" y="33" on="0"/>
        <pt x="206" y="35" on="1"/>
        <pt x="203" y="28" on="1"/>
        <pt x="205" y="28" on="0"/>
        <pt x="211" y="26" on="0"/>
        <pt x="216" y="26" on="1"/>
        <pt x="230" y="26" on="0"/>
        <pt x="230" y="38" on="1"/>
        <pt x="230" y="47" on="0"/>
        <pt x="212" y="49" on="0"/>
        <pt x="212" y="54" on="1"/>
        <pt x="212" y="57" on="0"/>
        <pt x="218" y="57" on="1"/>
        <pt x="223" y="57" on="0"/>
        <pt x="227" y="55" on="1"/>
        <pt x="229" y="62" on="1"/>
        <pt x="223" y="64" on="0"/>
        <pt x="218" y="64" on="1"/>
        <pt x="204" y="64" on="0"/>
        <pt x="204" y="53" on="1"/>
        <pt x="204" y="48" on="0"/>
        <pt x="210" y="44" on="0"/>
        <pt x="216" y="41" on="0"/>
        <pt x="222" y="39" on="0"/>
      </contour>
      <contour>
        <pt x="237" y="47" on="1"/>
        <pt x="241" y="49" on="0"/>
        <pt x="246" y="49" on="1"/>
        <pt x="251" y="49" on="0"/>
        <pt x="251" y="45" on="1"/>
        <pt x="251" y="43" on="1"/>
        <pt x="250" y="43" on="0"/>
        <pt x="248" y="44" on="0"/>
        <pt x="246" y="44" on="1"/>
        <pt x="234" y="44" on="0"/>
        <pt x="234" y="34" on="1"/>
        <pt x="234" y="26" on="0"/>
        <pt x="242" y="26" on="1"/>
        <pt x="248" y="26" on="0"/>
        <pt x="251" y="31" on="1"/>
        <pt x="253" y="27" on="1"/>
        <pt x="259" y="27" on="1"/>
        <pt x="258" y="29" on="0"/>
        <pt x="258" y="34" on="1"/>
        <pt x="258" y="45" on="1"/>
        <pt x="258" y="55" on="0"/>
        <pt x="248" y="55" on="1"/>
        <pt x="244" y="55" on="0"/>
        <pt x="237" y="53" on="0"/>
        <pt x="235" y="52" on="1"/>
      </contour>
      <contour>
        <pt x="245" y="32" on="1"/>
        <pt x="241" y="32" on="0"/>
        <pt x="241" y="36" on="1"/>
        <pt x="241" y="40" on="0"/>
        <pt x="246" y="40" on="1"/>
        <pt x="248" y="40" on="0"/>
        <pt x="250" y="39" on="0"/>
        <pt x="251" y="39" on="1"/>
        <pt x="251" y="36" on="1"/>
        <pt x="249" y="32" on="0"/>
      </contour>
      <contour>
        <pt x="292" y="27" on="1"/>
        <pt x="292" y="43" on="1"/>
        <pt x="292" y="55" on="0"/>
        <pt x="283" y="55" on="1"/>
        <pt x="276" y="55" on="0"/>
        <pt x="273" y="50" on="1"/>
        <pt x="271" y="54" on="1"/>
        <pt x="266" y="54" on="1"/>
        <pt x="266" y="27" on="1"/>
        <pt x="273" y="27" on="1"/>
        <pt x="273" y="44" on="1"/>
        <pt x="275" y="48" on="0"/>
        <pt x="279" y="48" on="1"/>
        <pt x="284" y="48" on="0"/>
        <pt x="284" y="42" on="1"/>
        <pt x="284" y="27" on="1"/>
      </contour>
      <contour>
        <pt x="297" y="28" on="1"/>
        <pt x="301" y="26" on="0"/>
        <pt x="307" y="26" on="1"/>
        <pt x="318" y="26" on="0"/>
        <pt x="318" y="35" on="1"/>
        <pt x="318" y="40" on="0"/>
        <pt x="313" y="42" on="0"/>
        <pt x="310" y="44" on="1"/>
        <pt x="305" y="46" on="0"/>
        <pt x="305" y="47" on="1"/>
        <pt x="305" y="49" on="0"/>
        <pt x="308" y="49" on="1"/>
        <pt x="312" y="49" on="0"/>
        <pt x="316" y="47" on="1"/>
        <pt x="318" y="53" on="1"/>
        <pt x="314" y="55" on="0"/>
        <pt x="308" y="55" on="1"/>
        <pt x="298" y="55" on="0"/>
        <pt x="298" y="46" on="1"/>
        <pt x="298" y="41" on="0"/>
        <pt x="304" y="38" on="0"/>
        <pt x="306" y="37" on="1"/>
        <pt x="311" y="37" on="0"/>
        <pt x="311" y="34" on="1"/>
        <pt x="311" y="32" on="0"/>
        <pt x="308" y="32" on="1"/>
        <pt x="303" y="32" on="0"/>
        <pt x="299" y="34" on="1"/>
      </contour>
      <contour>
        <pt x="338" y="42" on="1"/>
        <pt x="338" y="21" on="0"/>
        <pt x="358" y="21" on="1"/>
        <pt x="378" y="21" on="0"/>
        <pt x="378" y="42" on="1"/>
        <pt x="378" y="62" on="0"/>
        <pt x="358" y="62" on="1"/>
        <pt x="350" y="62" on="0"/>
        <pt x="338" y="51" on="0"/>
      </contour>
      <contour>
        <pt x="344" y="42" on="1"/>
        <pt x="344" y="57" on="0"/>
        <pt x="358" y="57" on="1"/>
        <pt x="372" y="57" on="0"/>
        <pt x="372" y="42" on="1"/>
        <pt x="372" y="27" on="0"/>
        <pt x="358" y="27" on="1"/>
        <pt x="344" y="27" on="0"/>
      </contour>
      <contour>
        <pt x="364" y="38" on="1"/>
        <pt x="362" y="37" on="0"/>
        <pt x="360" y="37" on="1"/>
        <pt x="356" y="37" on="0"/>
        <pt x="356" y="42" on="1"/>
        <pt x="356" y="46" on="0"/>
        <pt x="360" y="46" on="1"/>
        <pt x="363" y="46" on="1"/>
        <pt x="365" y="50" on="1"/>
        <pt x="361" y="52" on="0"/>
        <pt x="358" y="52" on="1"/>
        <pt x="349" y="52" on="0"/>
        <pt x="349" y="42" on="1"/>
        <pt x="349" y="31" on="0"/>
        <pt x="358" y="31" on="1"/>
        <pt x="363" y="31" on="0"/>
        <pt x="365" y="33" on="1"/>
      </contour>
      <contour>
        <pt x="399" y="27" on="1"/>
        <pt x="407" y="27" on="1"/>
        <pt x="407" y="39" on="1"/>
        <pt x="411" y="39" on="1"/>
        <pt x="417" y="39" on="0"/>
        <pt x="427" y="44" on="0"/>
        <pt x="427" y="51" on="1"/>
        <pt x="427" y="59" on="0"/>
        <pt x="416" y="63" on="0"/>
        <pt x="410" y="63" on="1"/>
        <pt x="399" y="63" on="1"/>
      </contour>
      <contour>
        <pt x="411" y="57" on="1"/>
        <pt x="419" y="57" on="0"/>
        <pt x="419" y="52" on="1"/>
        <pt x="419" y="47" on="0"/>
        <pt x="414" y="46" on="0"/>
        <pt x="410" y="46" on="1"/>
        <pt x="407" y="46" on="1"/>
        <pt x="407" y="57" on="1"/>
      </contour>
      <contour>
        <pt x="432" y="47" on="1"/>
        <pt x="436" y="49" on="0"/>
        <pt x="441" y="49" on="1"/>
        <pt x="446" y="49" on="0"/>
        <pt x="446" y="45" on="1"/>
        <pt x="446" y="43" on="1"/>
        <pt x="445" y="43" on="0"/>
        <pt x="443" y="44" on="0"/>
        <pt x="441" y="44" on="1"/>
        <pt x="428" y="44" on="0"/>
        <pt x="428" y="34" on="1"/>
        <pt x="428" y="26" on="0"/>
        <pt x="437" y="26" on="1"/>
        <pt x="443" y="26" on="0"/>
        <pt x="446" y="31" on="1"/>
        <pt x="448" y="27" on="1"/>
        <pt x="454" y="27" on="1"/>
        <pt x="453" y="29" on="0"/>
        <pt x="453" y="34" on="1"/>
        <pt x="453" y="45" on="1"/>
        <pt x="453" y="55" on="0"/>
        <pt x="443" y="55" on="1"/>
        <pt x="439" y="55" on="0"/>
        <pt x="432" y="53" on="0"/>
        <pt x="430" y="52" on="1"/>
      </contour>
      <contour>
        <pt x="440" y="32" on="1"/>
        <pt x="436" y="32" on="0"/>
        <pt x="436" y="36" on="1"/>
        <pt x="436" y="40" on="0"/>
        <pt x="441" y="40" on="1"/>
        <pt x="443" y="40" on="0"/>
        <pt x="445" y="39" on="0"/>
        <pt x="446" y="39" on="1"/>
        <pt x="446" y="36" on="1"/>
        <pt x="444" y="32" on="0"/>
      </contour>
      <contour>
        <pt x="478" y="54" on="1"/>
        <pt x="477" y="55" on="0"/>
        <pt x="474" y="55" on="1"/>
        <pt x="470" y="55" on="0"/>
        <pt x="468" y="50" on="1"/>
        <pt x="467" y="50" on="1"/>
        <pt x="466" y="54" on="1"/>
        <pt x="460" y="54" on="1"/>
        <pt x="460" y="27" on="1"/>
        <pt x="468" y="27" on="1"/>
        <pt x="468" y="44" on="1"/>
        <pt x="468" y="48" on="0"/>
        <pt x="474" y="48" on="1"/>
        <pt x="475" y="48" on="1"/>
        <pt x="476" y="48" on="0"/>
        <pt x="476" y="47" on="0"/>
        <pt x="477" y="47" on="1"/>
      </contour>
      <contour>
        <pt x="483" y="47" on="1"/>
        <pt x="489" y="49" on="0"/>
        <pt x="492" y="49" on="1"/>
        <pt x="497" y="49" on="0"/>
        <pt x="497" y="45" on="1"/>
        <pt x="497" y="43" on="1"/>
        <pt x="496" y="43" on="0"/>
        <pt x="494" y="44" on="0"/>
        <pt x="492" y="44" on="1"/>
        <pt x="479" y="44" on="0"/>
        <pt x="479" y="34" on="1"/>
        <pt x="479" y="26" on="0"/>
        <pt x="488" y="26" on="1"/>
        <pt x="495" y="26" on="0"/>
        <pt x="497" y="31" on="1"/>
        <pt x="498" y="31" on="1"/>
        <pt x="499" y="27" on="1"/>
        <pt x="505" y="27" on="1"/>
        <pt x="504" y="29" on="0"/>
        <pt x="504" y="34" on="1"/>
        <pt x="504" y="45" on="1"/>
        <pt x="504" y="55" on="0"/>
        <pt x="494" y="55" on="1"/>
        <pt x="490" y="55" on="0"/>
        <pt x="484" y="53" on="0"/>
        <pt x="482" y="52" on="1"/>
      </contour>
      <contour>
        <pt x="491" y="32" on="1"/>
        <pt x="487" y="32" on="0"/>
        <pt x="487" y="36" on="1"/>
        <pt x="487" y="40" on="0"/>
        <pt x="492" y="40" on="1"/>
        <pt x="494" y="40" on="0"/>
        <pt x="496" y="39" on="0"/>
        <pt x="497" y="39" on="1"/>
        <pt x="497" y="36" on="1"/>
        <pt x="495" y="32" on="0"/>
      </contour>
      <contour>
        <pt x="533" y="63" on="1"/>
        <pt x="502" y="63" on="1"/>
        <pt x="502" y="57" on="1"/>
        <pt x="513" y="57" on="1"/>
        <pt x="513" y="27" on="1"/>
        <pt x="521" y="27" on="1"/>
        <pt x="521" y="57" on="1"/>
        <pt x="533" y="57" on="1"/>
      </contour>
      <contour>
        <pt x="541" y="54" on="1"/>
        <pt x="533" y="54" on="1"/>
        <pt x="545" y="27" on="1"/>
        <pt x="544" y="22" on="0"/>
        <pt x="540" y="22" on="1"/>
        <pt x="539" y="23" on="1"/>
        <pt x="537" y="17" on="1"/>
        <pt x="539" y="16" on="0"/>
        <pt x="542" y="16" on="1"/>
        <pt x="547" y="16" on="0"/>
        <pt x="552" y="29" on="1"/>
        <pt x="562" y="54" on="1"/>
        <pt x="554" y="54" on="1"/>
        <pt x="549" y="39" on="1"/>
        <pt x="549" y="34" on="1"/>
        <pt x="548" y="34" on="1"/>
        <pt x="547" y="39" on="1"/>
      </contour>
      <contour>
        <pt x="565" y="16" on="1"/>
        <pt x="573" y="16" on="1"/>
        <pt x="573" y="28" on="1"/>
        <pt x="574" y="26" on="0"/>
        <pt x="578" y="26" on="1"/>
        <pt x="592" y="26" on="0"/>
        <pt x="592" y="41" on="1"/>
        <pt x="592" y="55" on="0"/>
        <pt x="581" y="55" on="1"/>
        <pt x="576" y="55" on="0"/>
        <pt x="572" y="51" on="1"/>
        <pt x="571" y="51" on="1"/>
        <pt x="570" y="54" on="1"/>
        <pt x="565" y="54" on="1"/>
      </contour>
      <contour>
        <pt x="579" y="49" on="1"/>
        <pt x="584" y="49" on="0"/>
        <pt x="584" y="41" on="1"/>
        <pt x="584" y="32" on="0"/>
        <pt x="577" y="32" on="1"/>
        <pt x="575" y="32" on="0"/>
        <pt x="573" y="34" on="1"/>
        <pt x="573" y="44" on="1"/>
        <pt x="573" y="49" on="0"/>
      </contour>
      <contour>
        <pt x="618" y="34" on="1"/>
        <pt x="616" y="32" on="0"/>
        <pt x="611" y="32" on="1"/>
        <pt x="604" y="32" on="0"/>
        <pt x="603" y="38" on="1"/>
        <pt x="622" y="38" on="1"/>
        <pt x="622" y="44" on="1"/>
        <pt x="622" y="50" on="0"/>
        <pt x="615" y="55" on="0"/>
        <pt x="610" y="55" on="1"/>
        <pt x="596" y="55" on="0"/>
        <pt x="596" y="40" on="1"/>
        <pt x="596" y="26" on="0"/>
        <pt x="610" y="26" on="1"/>
        <pt x="613" y="26" on="0"/>
        <pt x="619" y="28" on="0"/>
        <pt x="621" y="29" on="1"/>
      </contour>
      <contour>
        <pt x="610" y="49" on="1"/>
        <pt x="616" y="49" on="0"/>
        <pt x="615" y="43" on="1"/>
        <pt x="604" y="43" on="1"/>
        <pt x="604" y="49" on="0"/>
      </contour>
    </TTGlyph>
    <TTGlyph name="A" xMin="-3" yMin="0" xMax="503" yMax="705">
      <contour>
        <pt x="328" y="158" on="1"/>
        <pt x="163" y="158" on="1"/>
        <pt x="122" y="0" on="1"/>
        <pt x="-3" y="0" on="1"/>
        <pt x="200" y="705" on="1"/>
        <pt x="299" y="705" on="1"/>
        <pt x="503" y="0" on="1"/>
        <pt x="371" y="0" on="1"/>
      </contour>
      <contour>
        <pt x="190" y="262" on="1"/>
        <pt x="306" y="262" on="1"/>
        <pt x="266" y="425" on="1"/>
        <pt x="250" y="535" on="1"/>
        <pt x="246" y="535" on="1"/>
        <pt x="229" y="424" on="1"/>
      </contour>
    </TTGlyph>
    <TTGlyph name="AE" xMin="-24" yMin="0" xMax="685" yMax="700">
      <component glyphName="uni04D4" x="0" y="0" flags="0x204"/>
    </TTGlyph>
    <TTGlyph name="Aacute" xMin="-3" yMin="0" xMax="503" yMax="870">
      <component glyphName="A" x="0" y="0" flags="0x204"/>
      <component glyphName="uniF6C9" x="107" y="0" flags="0x4"/>
    </TTGlyph>
    <TTGlyph name="Abreve" xMin="-3" yMin="0" xMax="503" yMax="875">
      <component glyphName="A" x="0" y="0" flags="0x204"/>
      <component glyphName="uniF406" x="29" y="0" flags="0x4"/>
    </TTGlyph>
    <TTGlyph name="Acircumflex" xMin="-3" yMin="0" xMax="503" yMax="870">
      <component glyphName="A" x="0" y="0" flags="0x204"/>
      <component glyphName="uniF408" x="40" y="0" flags="0x4"/>
    </TTGlyph>
    <TTGlyph name="Adieresis" xMin="-3" yMin="0" xMax="503" yMax="856">
      <component glyphName="A" x="0" y="0" flags="0x204"/>
      <component glyphName="uniF6CB" x="32" y="0" flags="0x4"/>
    </TTGlyph>
    <TTGlyph name="Agrave" xMin="-3" yMin="0" xMax="503" yMax="870">
      <component glyphName="A" x="0" y="0" flags="0x204"/>
      <component glyphName="uniF6CE" x="50" y="0" flags="0x4"/>
    </TTGlyph>
    <TTGlyph name="Amacron" xMin="-3" yMin="0" xMax="503" yMax="856">
      <component glyphName="A" x="0" y="0" flags="0x204"/>
      <component glyphName="uniF6D0" x="45" y="0" flags="0x4"/>
    </TTGlyph>
    <TTGlyph name="Aogonek" xMin="-3" yMin="-201" xMax="522" yMax="705">
      <contour>
        <pt x="190" y="262" on="1"/>
        <pt x="306" y="262" on="1"/>
        <pt x="266" y="425" on="1"/>
        <pt x="250" y="535" on="1"/>
        <pt x="246" y="535" on="1"/>
        <pt x="229" y="424" on="1"/>
      </contour>
      <contour>
        <pt x="328" y="158" on="1"/>
        <pt x="163" y="158" on="1"/>
        <pt x="122" y="0" on="1"/>
        <pt x="-3" y="0" on="1"/>
        <pt x="200" y="705" on="1"/>
        <pt x="299" y="705" on="1"/>
        <pt x="503" y="0" on="1"/>
        <pt x="484" y="0" on="1"/>
        <pt x="437" y="-23" on="0"/>
        <pt x="437" y="-73" on="1"/>
        <pt x="437" y="-98" on="0"/>
        <pt x="472" y="-123" on="0"/>
        <pt x="504" y="-108" on="1"/>
        <pt x="522" y="-166" on="1"/>
        <pt x="516" y="-172" on="0"/>
        <pt x="496" y="-184" on="0"/>
        <pt x="470" y="-194" on="0"/>
        <pt x="439" y="-201" on="0"/>
        <pt x="424" y="-201" on="1"/>
        <pt x="373" y="-201" on="0"/>
        <pt x="321" y="-151" on="0"/>
        <pt x="321" y="-111" on="1"/>
        <pt x="321" y="-69" on="0"/>
        <pt x="346" y="-40" on="1"/>
        <pt x="366" y="-16" on="0"/>
        <pt x="397" y="0" on="1"/>
        <pt x="371" y="0" on="1"/>
      </contour>
    </TTGlyph>
    <TTGlyph name="Aring" xMin="-3" yMin="0" xMax="503" yMax="861">
      <contour>
        <pt x="-3" y="0" on="1"/>
        <pt x="196" y="691" on="1"/>
        <pt x="165" y="701" on="0"/>
        <pt x="139" y="742" on="0"/>
        <pt x="139" y="771" on="1"/>
        <pt x="139" y="789" on="0"/>
        <pt x="149" y="822" on="0"/>
        <pt x="175" y="847" on="0"/>
        <pt x="217" y="861" on="0"/>
        <pt x="250" y="861" on="1"/>
        <pt x="311" y="861" on="0"/>
        <pt x="362" y="813" on="0"/>
        <pt x="362" y="771" on="1"/>
        <pt x="362" y="744" on="0"/>
        <pt x="335" y="700" on="0"/>
        <pt x="303" y="690" on="1"/>
        <pt x="503" y="0" on="1"/>
        <pt x="371" y="0" on="1"/>
        <pt x="328" y="158" on="1"/>
        <pt x="163" y="158" on="1"/>
        <pt x="122" y="0" on="1"/>
      </contour>
      <contour>
        <pt x="190" y="262" on="1"/>
        <pt x="306" y="262" on="1"/>
        <pt x="266" y="425" on="1"/>
        <pt x="250" y="535" on="1"/>
        <pt x="246" y="535" on="1"/>
        <pt x="229" y="424" on="1"/>
      </contour>
      <contour>
        <pt x="214" y="771" on="1"/>
        <pt x="214" y="740" on="0"/>
        <pt x="250" y="740" on="1"/>
        <pt x="271" y="740" on="0"/>
        <pt x="287" y="755" on="0"/>
        <pt x="287" y="771" on="1"/>
        <pt x="287" y="788" on="0"/>
        <pt x="270" y="805" on="0"/>
        <pt x="250" y="805" on="1"/>
        <pt x="214" y="805" on="0"/>
      </contour>
    </TTGlyph>
    <TTGlyph name="Atilde" xMin="-3" yMin="0" xMax="503" yMax="860">
      <component glyphName="A" x="0" y="0" flags="0x204"/>
      <component glyphName="uniF40D" x="22" y="0" flags="0x4"/>
    </TTGlyph>
    <TTGlyph name="B" xMin="45" yMin="-10" xMax="462" yMax="710">
      <contour>
        <pt x="445" y="538" on="1"/>
        <pt x="445" y="512" on="0"/>
        <pt x="434" y="461" on="0"/>
        <pt x="410" y="416" on="0"/>
        <pt x="371" y="382" on="0"/>
        <pt x="344" y="373" on="1"/>
        <pt x="344" y="367" on="1"/>
        <pt x="368" y="361" on="0"/>
        <pt x="411" y="337" on="0"/>
        <pt x="443" y="296" on="0"/>
        <pt x="462" y="237" on="0"/>
        <pt x="462" y="197" on="1"/>
        <pt x="462" y="143" on="0"/>
        <pt x="425" y="64" on="0"/>
        <pt x="362" y="14" on="0"/>
        <pt x="278" y="-10" on="0"/>
        <pt x="231" y="-10" on="1"/>
        <pt x="217" y="-10" on="0"/>
        <pt x="173" y="-10" on="0"/>
        <pt x="122" y="-7" on="0"/>
        <pt x="68" y="-1" on="0"/>
        <pt x="45" y="5" on="1"/>
        <pt x="45" y="695" on="1"/>
        <pt x="78" y="701" on="0"/>
        <pt x="175" y="710" on="0"/>
        <pt x="223" y="710" on="1"/>
        <pt x="267" y="710" on="0"/>
        <pt x="348" y="696" on="0"/>
        <pt x="409" y="658" on="0"/>
        <pt x="445" y="591" on="0"/>
      </contour>
      <contour>
        <pt x="234" y="99" on="1"/>
        <pt x="276" y="99" on="0"/>
        <pt x="330" y="153" on="0"/>
        <pt x="330" y="205" on="1"/>
        <pt x="330" y="238" on="0"/>
        <pt x="312" y="277" on="0"/>
        <pt x="282" y="298" on="0"/>
        <pt x="243" y="304" on="0"/>
        <pt x="222" y="304" on="1"/>
        <pt x="171" y="304" on="1"/>
        <pt x="171" y="105" on="1"/>
        <pt x="179" y="102" on="0"/>
        <pt x="218" y="99" on="0"/>
      </contour>
      <contour>
        <pt x="200" y="403" on="1"/>
        <pt x="211" y="403" on="0"/>
        <pt x="240" y="406" on="0"/>
        <pt x="249" y="408" on="1"/>
        <pt x="278" y="419" on="0"/>
        <pt x="319" y="469" on="0"/>
        <pt x="319" y="509" on="1"/>
        <pt x="319" y="535" on="0"/>
        <pt x="305" y="571" on="0"/>
        <pt x="281" y="592" on="0"/>
        <pt x="248" y="601" on="0"/>
        <pt x="229" y="601" on="1"/>
        <pt x="188" y="601" on="0"/>
        <pt x="171" y="597" on="1"/>
        <pt x="171" y="403" on="1"/>
      </contour>
    </TTGlyph>
    <TTGlyph name="C" xMin="29" yMin="-14" xMax="442" yMax="714">
      <contour>
        <pt x="442" y="28" on="1"/>
        <pt x="416" y="6" on="0"/>
        <pt x="329" y="-14" on="0"/>
        <pt x="286" y="-14" on="1"/>
        <pt x="232" y="-14" on="0"/>
        <pt x="139" y="23" on="0"/>
        <pt x="69" y="109" on="0"/>
        <pt x="29" y="249" on="0"/>
        <pt x="29" y="351" on="1"/>
        <pt x="29" y="457" on="0"/>
        <pt x="74" y="597" on="0"/>
        <pt x="147" y="680" on="0"/>
        <pt x="241" y="714" on="0"/>
        <pt x="289" y="714" on="1"/>
        <pt x="338" y="714" on="0"/>
        <pt x="411" y="698" on="0"/>
        <pt x="434" y="688" on="1"/>
        <pt x="409" y="577" on="1"/>
        <pt x="390" y="587" on="0"/>
        <pt x="339" y="598" on="0"/>
        <pt x="304" y="598" on="1"/>
        <pt x="235" y="598" on="0"/>
        <pt x="161" y="478" on="0"/>
        <pt x="161" y="350" on="1"/>
        <pt x="161" y="295" on="0"/>
        <pt x="178" y="204" on="0"/>
        <pt x="215" y="138" on="0"/>
        <pt x="272" y="102" on="0"/>
        <pt x="312" y="102" on="1"/>
        <pt x="347" y="102" on="0"/>
        <pt x="397" y="121" on="0"/>
        <pt x="417" y="134" on="1"/>
      </contour>
    </TTGlyph>
    <TTGlyph name="Cacute" xMin="29" yMin="-14" xMax="448" yMax="870">
      <component glyphName="C" x="0" y="0" flags="0x204"/>
      <component glyphName="uniF6C9" x="163" y="0" flags="0x4"/>
    </TTGlyph>
    <TTGlyph name="Ccaron" xMin="29" yMin="-14" xMax="442" yMax="870">
      <component glyphName="C" x="0" y="0" flags="0x204"/>
      <component glyphName="uniF6CA" x="71" y="0" flags="0x4"/>
    </TTGlyph>
    <TTGlyph name="Ccedilla" xMin="29" yMin="-210" xMax="442" yMax="714">
      <contour>
        <pt x="442" y="28" on="1"/>
        <pt x="420" y="10" on="0"/>
        <pt x="354" y="-9" on="0"/>
        <pt x="319" y="-12" on="1"/>
        <pt x="305" y="-43" on="1"/>
        <pt x="339" y="-47" on="0"/>
        <pt x="379" y="-82" on="0"/>
        <pt x="379" y="-118" on="1"/>
        <pt x="379" y="-141" on="0"/>
        <pt x="358" y="-175" on="0"/>
        <pt x="322" y="-198" on="0"/>
        <pt x="274" y="-210" on="0"/>
        <pt x="248" y="-210" on="1"/>
        <pt x="221" y="-210" on="0"/>
        <pt x="194" y="-204" on="1"/>
        <pt x="201" y="-156" on="1"/>
        <pt x="243" y="-160" on="0"/>
        <pt x="270" y="-141" on="0"/>
        <pt x="270" y="-127" on="1"/>
        <pt x="270" y="-99" on="0"/>
        <pt x="200" y="-95" on="1"/>
        <pt x="243" y="-11" on="1"/>
        <pt x="197" y="-5" on="0"/>
        <pt x="119" y="41" on="0"/>
        <pt x="62" y="127" on="0"/>
        <pt x="29" y="259" on="0"/>
        <pt x="29" y="351" on="1"/>
        <pt x="29" y="457" on="0"/>
        <pt x="74" y="597" on="0"/>
        <pt x="147" y="680" on="0"/>
        <pt x="241" y="714" on="0"/>
        <pt x="289" y="714" on="1"/>
        <pt x="338" y="714" on="0"/>
        <pt x="411" y="698" on="0"/>
        <pt x="434" y="688" on="1"/>
        <pt x="409" y="577" on="1"/>
        <pt x="390" y="587" on="0"/>
        <pt x="339" y="598" on="0"/>
        <pt x="304" y="598" on="1"/>
        <pt x="235" y="598" on="0"/>
        <pt x="161" y="478" on="0"/>
        <pt x="161" y="350" on="1"/>
        <pt x="161" y="295" on="0"/>
        <pt x="178" y="204" on="0"/>
        <pt x="215" y="138" on="0"/>
        <pt x="272" y="102" on="0"/>
        <pt x="312" y="102" on="1"/>
        <pt x="347" y="102" on="0"/>
        <pt x="397" y="121" on="0"/>
        <pt x="417" y="134" on="1"/>
      </contour>
    </TTGlyph>
    <TTGlyph name="Ccircumflex" xMin="29" yMin="-14" xMax="442" yMax="870">
      <component glyphName="C" x="0" y="0" flags="0x204"/>
      <component glyphName="uniF408" x="71" y="0" flags="0x4"/>
    </TTGlyph>
    <TTGlyph name="D" xMin="45" yMin="-11" xMax="505" yMax="710">
      <contour>
        <pt x="45" y="700" on="1"/>
        <pt x="63" y="703" on="0"/>
        <pt x="108" y="706" on="0"/>
        <pt x="155" y="709" on="0"/>
        <pt x="199" y="710" on="0"/>
        <pt x="216" y="710" on="1"/>
        <pt x="299" y="710" on="0"/>
        <pt x="410" y="659" on="0"/>
        <pt x="477" y="566" on="0"/>
        <pt x="505" y="436" on="0"/>
        <pt x="505" y="356" on="1"/>
        <pt x="505" y="283" on="0"/>
        <pt x="478" y="150" on="0"/>
        <pt x="410" y="49" on="0"/>
        <pt x="294" y="-11" on="0"/>
        <pt x="206" y="-11" on="1"/>
        <pt x="193" y="-11" on="0"/>
        <pt x="149" y="-9" on="0"/>
        <pt x="101" y="-6" on="0"/>
        <pt x="57" y="-3" on="0"/>
        <pt x="45" y="-1" on="1"/>
      </contour>
      <contour>
        <pt x="229" y="594" on="1"/>
        <pt x="213" y="594" on="0"/>
        <pt x="180" y="593" on="0"/>
        <pt x="171" y="591" on="1"/>
        <pt x="171" y="109" on="1"/>
        <pt x="174" y="108" on="0"/>
        <pt x="189" y="107" on="0"/>
        <pt x="206" y="106" on="0"/>
        <pt x="221" y="105" on="0"/>
        <pt x="224" y="105" on="1"/>
        <pt x="269" y="105" on="0"/>
        <pt x="327" y="147" on="0"/>
        <pt x="360" y="217" on="0"/>
        <pt x="373" y="308" on="0"/>
        <pt x="373" y="358" on="1"/>
        <pt x="373" y="404" on="0"/>
        <pt x="362" y="490" on="0"/>
        <pt x="331" y="555" on="0"/>
        <pt x="274" y="594" on="0"/>
      </contour>
    </TTGlyph>
    <TTGlyph name="Dcaron" xMin="45" yMin="-11" xMax="505" yMax="870">
      <component glyphName="D" x="0" y="0" flags="0x204"/>
      <component glyphName="uniF6CA" x="19" y="0" flags="0x4"/>
    </TTGlyph>
    <TTGlyph name="Dcroat" xMin="-3" yMin="-11" xMax="525" yMax="710">
      <component glyphName="Eth" x="0" y="0" flags="0x204"/>
    </TTGlyph>
    <TTGlyph name="E" xMin="45" yMin="0" xMax="399" yMax="700">
      <contour>
        <pt x="45" y="700" on="1"/>
        <pt x="395" y="700" on="1"/>
        <pt x="395" y="584" on="1"/>
        <pt x="171" y="584" on="1"/>
        <pt x="171" y="412" on="1"/>
        <pt x="374" y="412" on="1"/>
        <pt x="374" y="296" on="1"/>
        <pt x="171" y="296" on="1"/>
        <pt x="171" y="116" on="1"/>
        <pt x="399" y="116" on="1"/>
        <pt x="399" y="0" on="1"/>
        <pt x="45" y="0" on="1"/>
      </contour>
    </TTGlyph>
    <TTGlyph name="Eacute" xMin="45" yMin="0" xMax="399" yMax="870">
      <component glyphName="E" x="0" y="0" flags="0x204"/>
      <component glyphName="uniF6C9" x="92" y="0" flags="0x4"/>
    </TTGlyph>
    <TTGlyph name="Ecaron" xMin="45" yMin="0" xMax="399" yMax="870">
      <component glyphName="E" x="0" y="0" flags="0x204"/>
      <component glyphName="uniF6CA" x="9" y="0" flags="0x4"/>
    </TTGlyph>
    <TTGlyph name="Ecircumflex" xMin="45" yMin="0" xMax="399" yMax="870">
      <component glyphName="E" x="0" y="0" flags="0x204"/>
      <component glyphName="uniF408" x="7" y="0" flags="0x4"/>
    </TTGlyph>
    <TTGlyph name="Edieresis" xMin="45" yMin="0" xMax="399" yMax="856">
      <component glyphName="E" x="0" y="0" flags="0x204"/>
      <component glyphName="uniF6CB" x="0" y="0" flags="0x4"/>
    </TTGlyph>
    <TTGlyph name="Edotaccent" xMin="45" yMin="0" xMax="399" yMax="860">
      <component glyphName="E" x="0" y="0" flags="0x204"/>
      <component glyphName="uniF40B" x="89" y="0" flags="0x4"/>
    </TTGlyph>
    <TTGlyph name="Egrave" xMin="45" yMin="0" xMax="399" yMax="870">
      <component glyphName="E" x="0" y="0" flags="0x204"/>
      <component glyphName="uniF6CE" x="13" y="0" flags="0x4"/>
    </TTGlyph>
    <TTGlyph name="Emacron" xMin="45" yMin="0" xMax="399" yMax="856">
      <component glyphName="E" x="0" y="0" flags="0x204"/>
      <component glyphName="uniF6D0" x="14" y="0" flags="0x4"/>
    </TTGlyph>
    <TTGlyph name="Eogonek" xMin="45" yMin="-201" xMax="413" yMax="700">
      <contour>
        <pt x="45" y="700" on="1"/>
        <pt x="395" y="700" on="1"/>
        <pt x="395" y="584" on="1"/>
        <pt x="171" y="584" on="1"/>
        <pt x="171" y="412" on="1"/>
        <pt x="374" y="412" on="1"/>
        <pt x="374" y="296" on="1"/>
        <pt x="171" y="296" on="1"/>
        <pt x="171" y="116" on="1"/>
        <pt x="399" y="116" on="1"/>
        <pt x="399" y="0" on="1"/>
        <pt x="375" y="0" on="1"/>
        <pt x="328" y="-22" on="0"/>
        <pt x="328" y="-73" on="1"/>
        <pt x="328" y="-98" on="0"/>
        <pt x="363" y="-123" on="0"/>
        <pt x="395" y="-108" on="1"/>
        <pt x="413" y="-166" on="1"/>
        <pt x="407" y="-172" on="0"/>
        <pt x="387" y="-184" on="0"/>
        <pt x="361" y="-194" on="0"/>
        <pt x="330" y="-201" on="0"/>
        <pt x="315" y="-201" on="1"/>
        <pt x="264" y="-201" on="0"/>
        <pt x="212" y="-151" on="0"/>
        <pt x="212" y="-111" on="1"/>
        <pt x="212" y="-73" on="0"/>
        <pt x="254" y="-17" on="0"/>
        <pt x="288" y="0" on="1"/>
        <pt x="45" y="0" on="1"/>
      </contour>
    </TTGlyph>
    <TTGlyph name="Eth" xMin="-3" yMin="-11" xMax="525" yMax="710">
      <contour>
        <pt x="-3" y="401" on="1"/>
        <pt x="65" y="401" on="1"/>
        <pt x="65" y="700" on="1"/>
        <pt x="83" y="703" on="0"/>
        <pt x="128" y="706" on="0"/>
        <pt x="175" y="709" on="0"/>
        <pt x="219" y="710" on="0"/>
        <pt x="236" y="710" on="1"/>
        <pt x="319" y="710" on="0"/>
        <pt x="430" y="659" on="0"/>
        <pt x="497" y="566" on="0"/>
        <pt x="525" y="436" on="0"/>
        <pt x="525" y="356" on="1"/>
        <pt x="525" y="283" on="0"/>
        <pt x="498" y="150" on="0"/>
        <pt x="430" y="49" on="0"/>
        <pt x="314" y="-11" on="0"/>
        <pt x="226" y="-11" on="1"/>
        <pt x="213" y="-11" on="0"/>
        <pt x="169" y="-9" on="0"/>
        <pt x="121" y="-6" on="0"/>
        <pt x="77" y="-3" on="0"/>
        <pt x="65" y="-1" on="1"/>
        <pt x="65" y="322" on="1"/>
        <pt x="-3" y="322" on="1"/>
      </contour>
      <contour>
        <pt x="191" y="401" on="1"/>
        <pt x="299" y="401" on="1"/>
        <pt x="299" y="322" on="1"/>
        <pt x="191" y="322" on="1"/>
        <pt x="191" y="109" on="1"/>
        <pt x="194" y="108" on="0"/>
        <pt x="209" y="107" on="0"/>
        <pt x="226" y="106" on="0"/>
        <pt x="241" y="105" on="0"/>
        <pt x="244" y="105" on="1"/>
        <pt x="289" y="105" on="0"/>
        <pt x="347" y="147" on="0"/>
        <pt x="380" y="217" on="0"/>
        <pt x="393" y="308" on="0"/>
        <pt x="393" y="358" on="1"/>
        <pt x="393" y="404" on="0"/>
        <pt x="382" y="490" on="0"/>
        <pt x="351" y="555" on="0"/>
        <pt x="294" y="594" on="0"/>
        <pt x="249" y="594" on="1"/>
        <pt x="233" y="594" on="0"/>
        <pt x="200" y="593" on="0"/>
        <pt x="191" y="591" on="1"/>
      </contour>
    </TTGlyph>
    <TTGlyph name="Euro" xMin="3" yMin="-13" xMax="465" yMax="714">
      <contour>
        <pt x="465" y="24" on="1"/>
        <pt x="439" y="5" on="0"/>
        <pt x="358" y="-13" on="0"/>
        <pt x="321" y="-13" on="1"/>
        <pt x="266" y="-13" on="0"/>
        <pt x="175" y="29" on="0"/>
        <pt x="109" y="118" on="0"/>
        <pt x="90" y="186" on="1"/>
        <pt x="84" y="209" on="0"/>
        <pt x="80" y="234" on="1"/>
        <pt x="3" y="234" on="1"/>
        <pt x="32" y="325" on="1"/>
        <pt x="72" y="325" on="1"/>
        <pt x="72" y="350" on="1"/>
        <pt x="72" y="367" on="0"/>
        <pt x="72" y="383" on="1"/>
        <pt x="3" y="383" on="1"/>
        <pt x="32" y="474" on="1"/>
        <pt x="82" y="474" on="1"/>
        <pt x="86" y="497" on="0"/>
        <pt x="93" y="518" on="1"/>
        <pt x="114" y="588" on="0"/>
        <pt x="185" y="675" on="0"/>
        <pt x="276" y="714" on="0"/>
        <pt x="326" y="714" on="1"/>
        <pt x="368" y="714" on="0"/>
        <pt x="433" y="700" on="0"/>
        <pt x="456" y="691" on="1"/>
        <pt x="424" y="591" on="1"/>
        <pt x="389" y="607" on="0"/>
        <pt x="329" y="607" on="1"/>
        <pt x="263" y="607" on="0"/>
        <pt x="224" y="546" on="1"/>
        <pt x="206" y="518" on="0"/>
        <pt x="196" y="474" on="1"/>
        <pt x="404" y="474" on="1"/>
        <pt x="381" y="383" on="1"/>
        <pt x="185" y="383" on="1"/>
        <pt x="185" y="367" on="0"/>
        <pt x="185" y="350" on="1"/>
        <pt x="185" y="337" on="0"/>
        <pt x="185" y="325" on="1"/>
        <pt x="364" y="325" on="1"/>
        <pt x="341" y="234" on="1"/>
        <pt x="195" y="234" on="1"/>
        <pt x="204" y="190" on="0"/>
        <pt x="222" y="159" on="1"/>
        <pt x="259" y="94" on="0"/>
        <pt x="338" y="94" on="1"/>
        <pt x="401" y="94" on="0"/>
        <pt x="441" y="120" on="1"/>
      </contour>
    </TTGlyph>
    <TTGlyph name="F" xMin="45" yMin="0" xMax="395" yMax="700">
      <contour>
        <pt x="45" y="700" on="1"/>
        <pt x="395" y="700" on="1"/>
        <pt x="395" y="584" on="1"/>
        <pt x="171" y="584" on="1"/>
        <pt x="171" y="402" on="1"/>
        <pt x="377" y="402" on="1"/>
        <pt x="377" y="286" on="1"/>
        <pt x="171" y="286" on="1"/>
        <pt x="171" y="0" on="1"/>
        <pt x="45" y="0" on="1"/>
      </contour>
    </TTGlyph>
    <TTGlyph name="G" xMin="29" yMin="-14" xMax="473" yMax="714">
      <contour>
        <pt x="257" y="362" on="1"/>
        <pt x="473" y="362" on="1"/>
        <pt x="473" y="52" on="1"/>
        <pt x="436" y="17" on="0"/>
        <pt x="337" y="-14" on="0"/>
        <pt x="288" y="-14" on="1"/>
        <pt x="229" y="-14" on="0"/>
        <pt x="133" y="28" on="0"/>
        <pt x="66" y="117" on="0"/>
        <pt x="29" y="254" on="0"/>
        <pt x="29" y="350" on="1"/>
        <pt x="29" y="450" on="0"/>
        <pt x="73" y="588" on="0"/>
        <pt x="146" y="675" on="0"/>
        <pt x="243" y="714" on="0"/>
        <pt x="297" y="714" on="1"/>
        <pt x="345" y="714" on="0"/>
        <pt x="424" y="697" on="0"/>
        <pt x="450" y="686" on="1"/>
        <pt x="424" y="577" on="1"/>
        <pt x="404" y="586" on="0"/>
        <pt x="351" y="598" on="0"/>
        <pt x="313" y="598" on="1"/>
        <pt x="278" y="598" on="0"/>
        <pt x="221" y="570" on="0"/>
        <pt x="182" y="510" on="0"/>
        <pt x="161" y="415" on="0"/>
        <pt x="161" y="349" on="1"/>
        <pt x="161" y="222" on="0"/>
        <pt x="238" y="102" on="0"/>
        <pt x="301" y="102" on="1"/>
        <pt x="321" y="102" on="0"/>
        <pt x="358" y="114" on="0"/>
        <pt x="372" y="127" on="1"/>
        <pt x="372" y="270" on="1"/>
        <pt x="257" y="286" on="1"/>
      </contour>
    </TTGlyph>
    <TTGlyph name="Gbreve" xMin="29" yMin="-14" xMax="473" yMax="875">
      <component glyphName="G" x="0" y="0" flags="0x204"/>
      <component glyphName="uniF406" x="55" y="0" flags="0x4"/>
    </TTGlyph>
    <TTGlyph name="Gcircumflex" xMin="29" yMin="-14" xMax="473" yMax="870">
      <component glyphName="G" x="0" y="0" flags="0x204"/>
      <component glyphName="uniF408" x="55" y="0" flags="0x4"/>
    </TTGlyph>
    <TTGlyph name="Gcommaaccent" xMin="29" yMin="-273" xMax="473" yMax="714">
      <component glyphName="G" x="0" y="0" flags="0x204"/>
      <component glyphName="uniF6C3" x="176" y="0" flags="0x4"/>
    </TTGlyph>
    <TTGlyph name="H" xMin="45" yMin="0" xMax="488" yMax="700">
      <contour>
        <pt x="362" y="296" on="1"/>
        <pt x="171" y="296" on="1"/>
        <pt x="171" y="0" on="1"/>
        <pt x="45" y="0" on="1"/>
        <pt x="45" y="700" on="1"/>
        <pt x="171" y="700" on="1"/>
        <pt x="171" y="412" on="1"/>
        <pt x="362" y="412" on="1"/>
        <pt x="362" y="700" on="1"/>
        <pt x="488" y="700" on="1"/>
        <pt x="488" y="0" on="1"/>
        <pt x="362" y="0" on="1"/>
      </contour>
    </TTGlyph>
    <TTGlyph name="Hbar" xMin="2" yMin="0" xMax="565" yMax="700">
      <contour>
        <pt x="2" y="596" on="1"/>
        <pt x="63" y="596" on="1"/>
        <pt x="63" y="700" on="1"/>
        <pt x="189" y="700" on="1"/>
        <pt x="189" y="596" on="1"/>
        <pt x="380" y="596" on="1"/>
        <pt x="380" y="700" on="1"/>
        <pt x="506" y="700" on="1"/>
        <pt x="506" y="596" on="1"/>
        <pt x="565" y="596" on="1"/>
        <pt x="565" y="518" on="1"/>
        <pt x="506" y="518" on="1"/>
        <pt x="506" y="0" on="1"/>
        <pt x="380" y="0" on="1"/>
        <pt x="380" y="296" on="1"/>
        <pt x="189" y="296" on="1"/>
        <pt x="189" y="0" on="1"/>
        <pt x="63" y="0" on="1"/>
        <pt x="63" y="518" on="1"/>
        <pt x="2" y="518" on="1"/>
      </contour>
      <contour>
        <pt x="380" y="412" on="1"/>
        <pt x="380" y="518" on="1"/>
        <pt x="189" y="518" on="1"/>
        <pt x="189" y="412" on="1"/>
      </contour>
    </TTGlyph>
    <TTGlyph name="Hcircumflex" xMin="45" yMin="0" xMax="488" yMax="870">
      <component glyphName="H" x="0" y="0" flags="0x204"/>
      <component glyphName="uniF408" x="63" y="0" flags="0x4"/>
    </TTGlyph>
    <TTGlyph name="I" xMin="56" yMin="0" xMax="182" yMax="700">
      <contour>
        <pt x="56" y="700" on="1"/>
        <pt x="182" y="700" on="1"/>
        <pt x="182" y="0" on="1"/>
        <pt x="56" y="0" on="1"/>
      </contour>
    </TTGlyph>
    <TTGlyph name="Iacute" xMin="37" yMin="0" xMax="262" yMax="870">
      <component glyphName="I" x="0" y="0" flags="0x204"/>
      <component glyphName="uniF6C9" x="-23" y="0" flags="0x4"/>
    </TTGlyph>
    <TTGlyph name="Icircumflex" xMin="-30" yMin="0" xMax="270" yMax="870">
      <component glyphName="I" x="0" y="0" flags="0x204"/>
      <component glyphName="uniF408" x="-90" y="0" flags="0x4"/>
    </TTGlyph>
    <TTGlyph name="Idieresis" xMin="-38" yMin="0" xMax="279" yMax="856">
      <component glyphName="I" x="0" y="0" flags="0x204"/>
      <component glyphName="uniF6CB" x="-98" y="0" flags="0x4"/>
    </TTGlyph>
    <TTGlyph name="Idotaccent" xMin="42" yMin="0" xMax="198" yMax="860">
      <component glyphName="I" x="0" y="0" flags="0x204"/>
      <component glyphName="uniF40B" x="-18" y="0" flags="0x4"/>
    </TTGlyph>
    <TTGlyph name="Igrave" xMin="-21" yMin="0" xMax="203" yMax="870">
      <component glyphName="I" x="0" y="0" flags="0x204"/>
      <component glyphName="uniF6CE" x="-81" y="0" flags="0x4"/>
    </TTGlyph>
    <TTGlyph name="Imacron" xMin="-22" yMin="0" xMax="267" yMax="856">
      <component glyphName="I" x="0" y="0" flags="0x204"/>
      <component glyphName="uniF6D0" x="-82" y="0" flags="0x4"/>
    </TTGlyph>
    <TTGlyph name="Iogonek" xMin="16" yMin="-202" xMax="217" yMax="700">
      <contour>
        <pt x="56" y="700" on="1"/>
        <pt x="182" y="700" on="1"/>
        <pt x="182" y="0" on="1"/>
        <pt x="170" y="0" on="1"/>
        <pt x="153" y="-12" on="0"/>
        <pt x="132" y="-47" on="0"/>
        <pt x="132" y="-73" on="1"/>
        <pt x="132" y="-99" on="0"/>
        <pt x="167" y="-124" on="0"/>
        <pt x="199" y="-108" on="1"/>
        <pt x="217" y="-167" on="1"/>
        <pt x="205" y="-178" on="0"/>
        <pt x="149" y="-202" on="0"/>
        <pt x="117" y="-202" on="1"/>
        <pt x="68" y="-202" on="0"/>
        <pt x="16" y="-152" on="0"/>
        <pt x="16" y="-111" on="1"/>
        <pt x="16" y="-73" on="0"/>
        <pt x="55" y="-17" on="0"/>
        <pt x="89" y="0" on="1"/>
        <pt x="56" y="0" on="1"/>
      </contour>
    </TTGlyph>
    <TTGlyph name="J" xMin="-17" yMin="-12" xMax="239" yMax="700">
      <contour>
        <pt x="113" y="700" on="1"/>
        <pt x="239" y="700" on="1"/>
        <pt x="239" y="191" on="1"/>
        <pt x="239" y="145" on="0"/>
        <pt x="224" y="70" on="0"/>
        <pt x="190" y="17" on="0"/>
        <pt x="134" y="-12" on="0"/>
        <pt x="92" y="-12" on="1"/>
        <pt x="63" y="-12" on="0"/>
        <pt x="6" y="0" on="0"/>
        <pt x="-17" y="11" on="1"/>
        <pt x="12" y="117" on="1"/>
        <pt x="33" y="104" on="0"/>
        <pt x="61" y="104" on="1"/>
        <pt x="96" y="104" on="0"/>
        <pt x="113" y="163" on="0"/>
        <pt x="113" y="218" on="1"/>
      </contour>
    </TTGlyph>
    <TTGlyph name="Jcircumflex" xMin="-17" yMin="-12" xMax="322" yMax="870">
      <component glyphName="J" x="0" y="0" flags="0x204"/>
      <component glyphName="uniF408" x="-38" y="0" flags="0x4"/>
    </TTGlyph>
    <TTGlyph name="K" xMin="45" yMin="0" xMax="511" yMax="700">
      <contour>
        <pt x="198" y="300" on="1"/>
        <pt x="171" y="300" on="1"/>
        <pt x="171" y="0" on="1"/>
        <pt x="45" y="0" on="1"/>
        <pt x="45" y="700" on="1"/>
        <pt x="171" y="700" on="1"/>
        <pt x="171" y="389" on="1"/>
        <pt x="196" y="401" on="1"/>
        <pt x="343" y="700" on="1"/>
        <pt x="485" y="700" on="1"/>
        <pt x="325" y="405" on="1"/>
        <pt x="278" y="368" on="1"/>
        <pt x="326" y="330" on="1"/>
        <pt x="511" y="0" on="1"/>
        <pt x="357" y="0" on="1"/>
      </contour>
    </TTGlyph>
    <TTGlyph name="Kcommaaccent" xMin="45" yMin="-273" xMax="511" yMax="700">
      <component glyphName="K" x="0" y="0" flags="0x204"/>
      <component glyphName="uniF6C3" x="125" y="0" flags="0x4"/>
    </TTGlyph>
    <TTGlyph name="L" xMin="45" yMin="0" xMax="417" yMax="700">
      <contour>
        <pt x="417" y="0" on="1"/>
        <pt x="45" y="0" on="1"/>
        <pt x="45" y="700" on="1"/>
        <pt x="171" y="700" on="1"/>
        <pt x="171" y="116" on="1"/>
        <pt x="417" y="116" on="1"/>
      </contour>
    </TTGlyph>
    <TTGlyph name="Lacute" xMin="45" yMin="0" xMax="417" yMax="870">
      <component glyphName="L" x="0" y="0" flags="0x204"/>
      <component glyphName="uniF6C9" x="15" y="0" flags="0x4"/>
    </TTGlyph>
    <TTGlyph name="Lcaron" xMin="45" yMin="0" xMax="417" yMax="700">
      <component glyphName="L" x="0" y="0" flags="0x204"/>
      <component glyphName="caron.l" x="97" y="0" flags="0x4"/>
    </TTGlyph>
    <TTGlyph name="Lcommaaccent" xMin="45" yMin="-273" xMax="417" yMax="700">
      <component glyphName="L" x="0" y="0" flags="0x204"/>
      <component glyphName="uniF6C3" x="89" y="0" flags="0x4"/>
    </TTGlyph>
    <TTGlyph name="Lslash" xMin="3" yMin="0" xMax="427" yMax="700">
      <contour>
        <pt x="3" y="320" on="1"/>
        <pt x="55" y="360" on="1"/>
        <pt x="55" y="700" on="1"/>
        <pt x="181" y="700" on="1"/>
        <pt x="181" y="457" on="1"/>
        <pt x="265" y="522" on="1"/>
        <pt x="265" y="396" on="1"/>
        <pt x="181" y="332" on="1"/>
        <pt x="181" y="116" on="1"/>
        <pt x="427" y="116" on="1"/>
        <pt x="427" y="0" on="1"/>
        <pt x="55" y="0" on="1"/>
        <pt x="55" y="236" on="1"/>
        <pt x="3" y="197" on="1"/>
      </contour>
    </TTGlyph>
    <TTGlyph name="M" xMin="45" yMin="0" xMax="619" yMax="700">
      <contour>
        <pt x="493" y="361" on="1"/>
        <pt x="507" y="495" on="1"/>
        <pt x="502" y="495" on="1"/>
        <pt x="465" y="375" on="1"/>
        <pt x="351" y="129" on="1"/>
        <pt x="309" y="129" on="1"/>
        <pt x="188" y="376" on="1"/>
        <pt x="151" y="497" on="1"/>
        <pt x="145" y="497" on="1"/>
        <pt x="164" y="362" on="1"/>
        <pt x="164" y="0" on="1"/>
        <pt x="45" y="0" on="1"/>
        <pt x="45" y="700" on="1"/>
        <pt x="166" y="700" on="1"/>
        <pt x="312" y="397" on="1"/>
        <pt x="336" y="310" on="1"/>
        <pt x="340" y="310" on="1"/>
        <pt x="363" y="399" on="1"/>
        <pt x="500" y="700" on="1"/>
        <pt x="619" y="700" on="1"/>
        <pt x="619" y="0" on="1"/>
        <pt x="493" y="0" on="1"/>
      </contour>
    </TTGlyph>
    <TTGlyph name="N" xMin="45" yMin="-5" xMax="495" yMax="705">
      <contour>
        <pt x="199" y="344" on="1"/>
        <pt x="153" y="467" on="1"/>
        <pt x="148" y="467" on="1"/>
        <pt x="164" y="346" on="1"/>
        <pt x="164" y="0" on="1"/>
        <pt x="45" y="0" on="1"/>
        <pt x="45" y="705" on="1"/>
        <pt x="142" y="705" on="1"/>
        <pt x="343" y="353" on="1"/>
        <pt x="386" y="232" on="1"/>
        <pt x="392" y="232" on="1"/>
        <pt x="376" y="351" on="1"/>
        <pt x="376" y="700" on="1"/>
        <pt x="495" y="700" on="1"/>
        <pt x="495" y="-5" on="1"/>
        <pt x="398" y="-5" on="1"/>
      </contour>
    </TTGlyph>
    <TTGlyph name="Nacute" xMin="45" yMin="-5" xMax="495" yMax="870">
      <component glyphName="N" x="0" y="0" flags="0x204"/>
      <component glyphName="uniF6C9" x="161" y="0" flags="0x4"/>
    </TTGlyph>
    <TTGlyph name="Ncaron" xMin="45" yMin="-5" xMax="495" yMax="870">
      <component glyphName="N" x="0" y="0" flags="0x204"/>
      <component glyphName="uniF6CA" x="65" y="0" flags="0x4"/>
    </TTGlyph>
    <TTGlyph name="Ncommaaccent" xMin="45" yMin="-273" xMax="495" yMax="705">
      <component glyphName="N" x="0" y="0" flags="0x204"/>
      <component glyphName="uniF6C3" x="153" y="0" flags="0x4"/>
    </TTGlyph>
    <TTGlyph name="Ntilde" xMin="45" yMin="-5" xMax="495" yMax="860">
      <component glyphName="N" x="0" y="0" flags="0x204"/>
      <component glyphName="uniF40D" x="44" y="0" flags="0x4"/>
    </TTGlyph>
    <TTGlyph name="O" xMin="29" yMin="-14" xMax="524" yMax="714">
      <contour>
        <pt x="29" y="350" on="1"/>
        <pt x="29" y="528" on="0"/>
        <pt x="151" y="714" on="0"/>
        <pt x="276" y="714" on="1"/>
        <pt x="341" y="714" on="0"/>
        <pt x="435" y="663" on="0"/>
        <pt x="495" y="568" on="0"/>
        <pt x="524" y="433" on="0"/>
        <pt x="524" y="350" on="1"/>
        <pt x="524" y="172" on="0"/>
        <pt x="399" y="-14" on="0"/>
        <pt x="276" y="-14" on="1"/>
        <pt x="210" y="-14" on="0"/>
        <pt x="117" y="37" on="0"/>
        <pt x="57" y="132" on="0"/>
        <pt x="29" y="267" on="0"/>
      </contour>
      <contour>
        <pt x="161" y="350" on="1"/>
        <pt x="161" y="297" on="0"/>
        <pt x="173" y="206" on="0"/>
        <pt x="201" y="140" on="0"/>
        <pt x="244" y="102" on="0"/>
        <pt x="276" y="102" on="1"/>
        <pt x="334" y="102" on="0"/>
        <pt x="392" y="220" on="0"/>
        <pt x="392" y="350" on="1"/>
        <pt x="392" y="401" on="0"/>
        <pt x="380" y="492" on="0"/>
        <pt x="353" y="559" on="0"/>
        <pt x="309" y="598" on="0"/>
        <pt x="276" y="598" on="1"/>
        <pt x="161" y="598" on="0"/>
      </contour>
    </TTGlyph>
    <TTGlyph name="OE" xMin="29" yMin="-14" xMax="721" yMax="714">
      <contour>
        <pt x="368" y="573" on="1"/>
        <pt x="352" y="584" on="0"/>
        <pt x="306" y="598" on="0"/>
        <pt x="277" y="598" on="1"/>
        <pt x="220" y="598" on="0"/>
        <pt x="161" y="477" on="0"/>
        <pt x="161" y="350" on="1"/>
        <pt x="161" y="297" on="0"/>
        <pt x="174" y="206" on="0"/>
        <pt x="203" y="140" on="0"/>
        <pt x="249" y="102" on="0"/>
        <pt x="283" y="102" on="1"/>
        <pt x="306" y="102" on="0"/>
        <pt x="346" y="110" on="0"/>
        <pt x="368" y="121" on="1"/>
      </contour>
      <contour>
        <pt x="368" y="0" on="1"/>
        <pt x="352" y="-6" on="0"/>
        <pt x="297" y="-14" on="0"/>
        <pt x="272" y="-14" on="1"/>
        <pt x="208" y="-14" on="0"/>
        <pt x="116" y="38" on="0"/>
        <pt x="57" y="133" on="0"/>
        <pt x="29" y="267" on="0"/>
        <pt x="29" y="350" on="1"/>
        <pt x="29" y="527" on="0"/>
        <pt x="151" y="714" on="0"/>
        <pt x="272" y="714" on="1"/>
        <pt x="302" y="714" on="0"/>
        <pt x="351" y="705" on="0"/>
        <pt x="368" y="700" on="1"/>
        <pt x="717" y="700" on="1"/>
        <pt x="717" y="584" on="1"/>
        <pt x="494" y="584" on="1"/>
        <pt x="494" y="412" on="1"/>
        <pt x="696" y="412" on="1"/>
        <pt x="696" y="296" on="1"/>
        <pt x="494" y="296" on="1"/>
        <pt x="494" y="116" on="1"/>
        <pt x="721" y="116" on="1"/>
        <pt x="721" y="0" on="1"/>
      </contour>
    </TTGlyph>
    <TTGlyph name="Oacute" xMin="29" yMin="-14" xMax="524" yMax="870">
      <component glyphName="O" x="0" y="0" flags="0x204"/>
      <component glyphName="uniF6C9" x="159" y="0" flags="0x4"/>
    </TTGlyph>
    <TTGlyph name="Ocircumflex" xMin="29" yMin="-14" xMax="524" yMax="870">
      <component glyphName="O" x="0" y="0" flags="0x204"/>
      <component glyphName="uniF408" x="65" y="0" flags="0x4"/>
    </TTGlyph>
    <TTGlyph name="Odieresis" xMin="29" yMin="-14" xMax="524" yMax="856">
      <component glyphName="O" x="0" y="0" flags="0x204"/>
      <component glyphName="uniF6CB" x="58" y="0" flags="0x4"/>
    </TTGlyph>
    <TTGlyph name="Ograve" xMin="29" yMin="-14" xMax="524" yMax="870">
      <component glyphName="O" x="0" y="0" flags="0x204"/>
      <component glyphName="uniF6CE" x="60" y="0" flags="0x4"/>
    </TTGlyph>
    <TTGlyph name="Ohungarumlaut" xMin="29" yMin="-14" xMax="524" yMax="850">
      <component glyphName="O" x="0" y="0" flags="0x204"/>
      <component glyphName="uniF6CF" x="89" y="0" flags="0x4"/>
    </TTGlyph>
    <TTGlyph name="Omacron" xMin="29" yMin="-14" xMax="524" yMax="856">
      <component glyphName="O" x="0" y="0" flags="0x204"/>
      <component glyphName="uniF6D0" x="74" y="0" flags="0x4"/>
    </TTGlyph>
    <TTGlyph name="Oslash" xMin="29" yMin="-14" xMax="524" yMax="715">
      <contour>
        <pt x="88" y="83" on="1"/>
        <pt x="57" y="131" on="0"/>
        <pt x="29" y="265" on="0"/>
        <pt x="29" y="350" on="1"/>
        <pt x="29" y="528" on="0"/>
        <pt x="151" y="714" on="0"/>
        <pt x="276" y="714" on="1"/>
        <pt x="348" y="714" on="0"/>
        <pt x="401" y="681" on="1"/>
        <pt x="419" y="715" on="1"/>
        <pt x="498" y="674" on="1"/>
        <pt x="466" y="613" on="1"/>
        <pt x="496" y="565" on="0"/>
        <pt x="524" y="433" on="0"/>
        <pt x="524" y="350" on="1"/>
        <pt x="524" y="172" on="0"/>
        <pt x="399" y="-14" on="0"/>
        <pt x="276" y="-14" on="1"/>
        <pt x="240" y="-14" on="0"/>
        <pt x="180" y="2" on="0"/>
        <pt x="155" y="16" on="1"/>
        <pt x="139" y="-14" on="1"/>
        <pt x="60" y="29" on="1"/>
      </contour>
      <contour>
        <pt x="342" y="567" on="1"/>
        <pt x="316" y="598" on="0"/>
        <pt x="276" y="598" on="1"/>
        <pt x="161" y="598" on="0"/>
        <pt x="161" y="350" on="1"/>
        <pt x="161" y="319" on="0"/>
        <pt x="165" y="263" on="0"/>
        <pt x="169" y="237" on="1"/>
      </contour>
      <contour>
        <pt x="213" y="129" on="1"/>
        <pt x="238" y="102" on="0"/>
        <pt x="276" y="102" on="1"/>
        <pt x="334" y="102" on="0"/>
        <pt x="392" y="220" on="0"/>
        <pt x="392" y="350" on="1"/>
        <pt x="392" y="379" on="0"/>
        <pt x="388" y="432" on="0"/>
        <pt x="384" y="457" on="1"/>
      </contour>
    </TTGlyph>
    <TTGlyph name="Otilde" xMin="29" yMin="-14" xMax="524" yMax="860">
      <component glyphName="O" x="0" y="0" flags="0x204"/>
      <component glyphName="uniF40D" x="50" y="0" flags="0x4"/>
    </TTGlyph>
    <TTGlyph name="P" xMin="45" yMin="0" xMax="459" yMax="710">
      <contour>
        <pt x="45" y="693" on="1"/>
        <pt x="81" y="701" on="0"/>
        <pt x="167" y="710" on="0"/>
        <pt x="210" y="710" on="1"/>
        <pt x="256" y="710" on="0"/>
        <pt x="345" y="693" on="0"/>
        <pt x="415" y="643" on="0"/>
        <pt x="459" y="552" on="0"/>
        <pt x="459" y="479" on="1"/>
        <pt x="459" y="413" on="0"/>
        <pt x="422" y="321" on="0"/>
        <pt x="360" y="263" on="0"/>
        <pt x="279" y="237" on="0"/>
        <pt x="236" y="237" on="1"/>
        <pt x="232" y="237" on="0"/>
        <pt x="214" y="237" on="0"/>
        <pt x="194" y="238" on="0"/>
        <pt x="175" y="240" on="0"/>
        <pt x="171" y="241" on="1"/>
        <pt x="171" y="0" on="1"/>
        <pt x="45" y="0" on="1"/>
      </contour>
      <contour>
        <pt x="171" y="354" on="1"/>
        <pt x="177" y="352" on="0"/>
        <pt x="210" y="349" on="0"/>
        <pt x="216" y="349" on="1"/>
        <pt x="238" y="349" on="0"/>
        <pt x="278" y="361" on="0"/>
        <pt x="309" y="390" on="0"/>
        <pt x="327" y="441" on="0"/>
        <pt x="327" y="480" on="1"/>
        <pt x="327" y="513" on="0"/>
        <pt x="310" y="559" on="0"/>
        <pt x="281" y="586" on="0"/>
        <pt x="243" y="598" on="0"/>
        <pt x="222" y="598" on="1"/>
        <pt x="191" y="598" on="0"/>
        <pt x="171" y="593" on="1"/>
      </contour>
    </TTGlyph>
    <TTGlyph name="Q" xMin="29" yMin="-209" xMax="579" yMax="714">
      <contour>
        <pt x="579" y="-196" on="1"/>
        <pt x="559" y="-203" on="0"/>
        <pt x="518" y="-209" on="0"/>
        <pt x="498" y="-209" on="1"/>
        <pt x="456" y="-209" on="0"/>
        <pt x="377" y="-189" on="0"/>
        <pt x="303" y="-164" on="0"/>
        <pt x="234" y="-144" on="0"/>
        <pt x="203" y="-144" on="1"/>
        <pt x="193" y="-144" on="0"/>
        <pt x="174" y="-146" on="0"/>
        <pt x="165" y="-149" on="1"/>
        <pt x="165" y="-37" on="1"/>
        <pt x="189" y="-31" on="0"/>
        <pt x="213" y="-31" on="1"/>
        <pt x="247" y="-31" on="0"/>
        <pt x="316" y="-51" on="0"/>
        <pt x="387" y="-74" on="0"/>
        <pt x="462" y="-94" on="0"/>
        <pt x="503" y="-94" on="1"/>
        <pt x="521" y="-94" on="0"/>
        <pt x="559" y="-89" on="0"/>
        <pt x="579" y="-83" on="1"/>
      </contour>
      <contour>
        <pt x="29" y="350" on="1"/>
        <pt x="29" y="528" on="0"/>
        <pt x="151" y="714" on="0"/>
        <pt x="276" y="714" on="1"/>
        <pt x="341" y="714" on="0"/>
        <pt x="435" y="663" on="0"/>
        <pt x="495" y="568" on="0"/>
        <pt x="524" y="433" on="0"/>
        <pt x="524" y="350" on="1"/>
        <pt x="524" y="172" on="0"/>
        <pt x="399" y="-14" on="0"/>
        <pt x="276" y="-14" on="1"/>
        <pt x="210" y="-14" on="0"/>
        <pt x="117" y="37" on="0"/>
        <pt x="57" y="132" on="0"/>
        <pt x="29" y="267" on="0"/>
      </contour>
      <contour>
        <pt x="161" y="350" on="1"/>
        <pt x="161" y="297" on="0"/>
        <pt x="173" y="206" on="0"/>
        <pt x="201" y="140" on="0"/>
        <pt x="244" y="102" on="0"/>
        <pt x="276" y="102" on="1"/>
        <pt x="334" y="102" on="0"/>
        <pt x="392" y="220" on="0"/>
        <pt x="392" y="350" on="1"/>
        <pt x="392" y="401" on="0"/>
        <pt x="380" y="492" on="0"/>
        <pt x="353" y="559" on="0"/>
        <pt x="309" y="598" on="0"/>
        <pt x="276" y="598" on="1"/>
        <pt x="161" y="598" on="0"/>
      </contour>
    </TTGlyph>
    <TTGlyph name="R" xMin="45" yMin="0" xMax="492" yMax="710">
      <contour>
        <pt x="45" y="693" on="1"/>
        <pt x="86" y="702" on="0"/>
        <pt x="180" y="710" on="0"/>
        <pt x="214" y="710" on="1"/>
        <pt x="257" y="710" on="0"/>
        <pt x="339" y="693" on="0"/>
        <pt x="402" y="648" on="0"/>
        <pt x="441" y="571" on="0"/>
        <pt x="441" y="512" on="1"/>
        <pt x="441" y="427" on="0"/>
        <pt x="378" y="320" on="0"/>
        <pt x="323" y="300" on="1"/>
        <pt x="363" y="268" on="1"/>
        <pt x="492" y="0" on="1"/>
        <pt x="347" y="0" on="1"/>
        <pt x="225" y="276" on="1"/>
        <pt x="171" y="289" on="1"/>
        <pt x="171" y="0" on="1"/>
        <pt x="45" y="0" on="1"/>
      </contour>
      <contour>
        <pt x="171" y="375" on="1"/>
        <pt x="214" y="375" on="1"/>
        <pt x="261" y="375" on="0"/>
        <pt x="309" y="432" on="0"/>
        <pt x="309" y="492" on="1"/>
        <pt x="309" y="537" on="0"/>
        <pt x="269" y="594" on="0"/>
        <pt x="226" y="594" on="1"/>
        <pt x="210" y="594" on="0"/>
        <pt x="180" y="592" on="0"/>
        <pt x="171" y="589" on="1"/>
      </contour>
    </TTGlyph>
    <TTGlyph name="Racute" xMin="45" yMin="0" xMax="492" yMax="870">
      <component glyphName="R" x="0" y="0" flags="0x204"/>
      <component glyphName="uniF6C9" x="95" y="0" flags="0x4"/>
    </TTGlyph>
    <TTGlyph name="Rcaron" xMin="46" yMin="0" xMax="493" yMax="870">
      <component glyphName="R" x="1" y="0" flags="0x204"/>
      <component glyphName="uniF6CA" x="7" y="0" flags="0x4"/>
    </TTGlyph>
    <TTGlyph name="Rcommaaccent" xMin="45" yMin="-273" xMax="492" yMax="710">
      <component glyphName="R" x="0" y="0" flags="0x204"/>
      <component glyphName="uniF6C3" x="131" y="0" flags="0x4"/>
    </TTGlyph>
    <TTGlyph name="S" xMin="19" yMin="-14" xMax="416" yMax="714">
      <contour>
        <pt x="290" y="180" on="1"/>
        <pt x="290" y="212" on="0"/>
        <pt x="252" y="257" on="0"/>
        <pt x="195" y="297" on="0"/>
        <pt x="128" y="339" on="0"/>
        <pt x="71" y="395" on="0"/>
        <pt x="33" y="471" on="0"/>
        <pt x="33" y="526" on="1"/>
        <pt x="33" y="577" on="0"/>
        <pt x="64" y="648" on="0"/>
        <pt x="118" y="693" on="0"/>
        <pt x="192" y="714" on="0"/>
        <pt x="234" y="714" on="1"/>
        <pt x="285" y="714" on="0"/>
        <pt x="373" y="694" on="0"/>
        <pt x="402" y="677" on="1"/>
        <pt x="363" y="566" on="1"/>
        <pt x="346" y="578" on="0"/>
        <pt x="279" y="598" on="0"/>
        <pt x="240" y="598" on="1"/>
        <pt x="201" y="598" on="0"/>
        <pt x="159" y="566" on="0"/>
        <pt x="159" y="535" on="1"/>
        <pt x="159" y="507" on="0"/>
        <pt x="197" y="464" on="0"/>
        <pt x="254" y="424" on="0"/>
        <pt x="321" y="381" on="0"/>
        <pt x="378" y="324" on="0"/>
        <pt x="416" y="247" on="0"/>
        <pt x="416" y="194" on="1"/>
        <pt x="416" y="141" on="0"/>
        <pt x="385" y="63" on="0"/>
        <pt x="328" y="12" on="0"/>
        <pt x="248" y="-14" on="0"/>
        <pt x="199" y="-14" on="1"/>
        <pt x="137" y="-14" on="0"/>
        <pt x="44" y="10" on="0"/>
        <pt x="19" y="25" on="1"/>
        <pt x="60" y="138" on="1"/>
        <pt x="80" y="126" on="0"/>
        <pt x="150" y="102" on="0"/>
        <pt x="190" y="102" on="1"/>
        <pt x="290" y="102" on="0"/>
      </contour>
    </TTGlyph>
    <TTGlyph name="Sacute" xMin="19" yMin="-14" xMax="416" yMax="870">
      <component glyphName="S" x="0" y="0" flags="0x204"/>
      <component glyphName="uniF6C9" x="106" y="0" flags="0x4"/>
    </TTGlyph>
    <TTGlyph name="Scaron" xMin="19" yMin="-14" xMax="416" yMax="870">
      <component glyphName="S" x="0" y="0" flags="0x204"/>
      <component glyphName="uniF6CA" x="24" y="0" flags="0x4"/>
    </TTGlyph>
    <TTGlyph name="Scedilla" xMin="19" yMin="-210" xMax="416" yMax="714">
      <contour>
        <pt x="290" y="180" on="1"/>
        <pt x="290" y="212" on="0"/>
        <pt x="252" y="257" on="0"/>
        <pt x="195" y="297" on="0"/>
        <pt x="128" y="339" on="0"/>
        <pt x="71" y="395" on="0"/>
        <pt x="33" y="471" on="0"/>
        <pt x="33" y="526" on="1"/>
        <pt x="33" y="577" on="0"/>
        <pt x="64" y="648" on="0"/>
        <pt x="118" y="693" on="0"/>
        <pt x="192" y="714" on="0"/>
        <pt x="234" y="714" on="1"/>
        <pt x="285" y="714" on="0"/>
        <pt x="373" y="694" on="0"/>
        <pt x="402" y="677" on="1"/>
        <pt x="363" y="566" on="1"/>
        <pt x="346" y="578" on="0"/>
        <pt x="279" y="598" on="0"/>
        <pt x="240" y="598" on="1"/>
        <pt x="201" y="598" on="0"/>
        <pt x="159" y="566" on="0"/>
        <pt x="159" y="535" on="1"/>
        <pt x="159" y="507" on="0"/>
        <pt x="197" y="464" on="0"/>
        <pt x="254" y="424" on="0"/>
        <pt x="321" y="381" on="0"/>
        <pt x="378" y="324" on="0"/>
        <pt x="416" y="247" on="0"/>
        <pt x="416" y="194" on="1"/>
        <pt x="416" y="102" on="0"/>
        <pt x="326" y="1" on="0"/>
        <pt x="249" y="-10" on="1"/>
        <pt x="234" y="-43" on="1"/>
        <pt x="268" y="-47" on="0"/>
        <pt x="308" y="-82" on="0"/>
        <pt x="308" y="-118" on="1"/>
        <pt x="308" y="-141" on="0"/>
        <pt x="287" y="-175" on="0"/>
        <pt x="251" y="-198" on="0"/>
        <pt x="203" y="-210" on="0"/>
        <pt x="177" y="-210" on="1"/>
        <pt x="150" y="-210" on="0"/>
        <pt x="123" y="-204" on="1"/>
        <pt x="130" y="-156" on="1"/>
        <pt x="172" y="-160" on="0"/>
        <pt x="199" y="-141" on="0"/>
        <pt x="199" y="-127" on="1"/>
        <pt x="199" y="-99" on="0"/>
        <pt x="129" y="-95" on="1"/>
        <pt x="171" y="-13" on="1"/>
        <pt x="119" y="-11" on="0"/>
        <pt x="41" y="11" on="0"/>
        <pt x="19" y="25" on="1"/>
        <pt x="60" y="139" on="1"/>
        <pt x="80" y="127" on="0"/>
        <pt x="150" y="103" on="0"/>
        <pt x="190" y="103" on="1"/>
        <pt x="290" y="103" on="0"/>
      </contour>
    </TTGlyph>
    <TTGlyph name="Scircumflex" xMin="19" yMin="-14" xMax="416" yMax="870">
      <component glyphName="S" x="0" y="0" flags="0x204"/>
      <component glyphName="uniF408" x="24" y="0" flags="0x4"/>
    </TTGlyph>
    <TTGlyph name="Scommaaccent" xMin="19" yMin="-273" xMax="416" yMax="714">
      <component glyphName="S" x="0" y="0" flags="0x204"/>
      <component glyphName="uniF6C3" x="88" y="0" flags="0x4"/>
    </TTGlyph>
    <TTGlyph name="T" xMin="8" yMin="0" xMax="466" yMax="700">
      <contour>
        <pt x="466" y="584" on="1"/>
        <pt x="300" y="584" on="1"/>
        <pt x="300" y="0" on="1"/>
        <pt x="174" y="0" on="1"/>
        <pt x="174" y="584" on="1"/>
        <pt x="8" y="584" on="1"/>
        <pt x="8" y="700" on="1"/>
        <pt x="466" y="700" on="1"/>
      </contour>
    </TTGlyph>
    <TTGlyph name="Tcaron" xMin="8" yMin="0" xMax="466" yMax="870">
      <component glyphName="T" x="0" y="0" flags="0x204"/>
      <component glyphName="uniF6CA" x="26" y="0" flags="0x4"/>
    </TTGlyph>
    <TTGlyph name="Tcedilla" xMin="8" yMin="-210" xMax="466" yMax="700">
      <contour>
        <pt x="274" y="0" on="1"/>
        <pt x="254" y="-43" on="1"/>
        <pt x="288" y="-47" on="0"/>
        <pt x="328" y="-82" on="0"/>
        <pt x="328" y="-118" on="1"/>
        <pt x="328" y="-141" on="0"/>
        <pt x="307" y="-175" on="0"/>
        <pt x="271" y="-198" on="0"/>
        <pt x="223" y="-210" on="0"/>
        <pt x="197" y="-210" on="1"/>
        <pt x="170" y="-210" on="0"/>
        <pt x="143" y="-204" on="1"/>
        <pt x="150" y="-156" on="1"/>
        <pt x="192" y="-160" on="0"/>
        <pt x="219" y="-141" on="0"/>
        <pt x="219" y="-127" on="1"/>
        <pt x="219" y="-99" on="0"/>
        <pt x="149" y="-95" on="1"/>
        <pt x="198" y="0" on="1"/>
        <pt x="174" y="0" on="1"/>
        <pt x="174" y="584" on="1"/>
        <pt x="8" y="584" on="1"/>
        <pt x="8" y="700" on="1"/>
        <pt x="466" y="700" on="1"/>
        <pt x="466" y="584" on="1"/>
        <pt x="300" y="584" on="1"/>
        <pt x="300" y="0" on="1"/>
      </contour>
    </TTGlyph>
    <TTGlyph name="Tcommaaccent" xMin="8" yMin="-273" xMax="466" yMax="700">
      <component glyphName="T" x="0" y="0" flags="0x4"/>
      <component glyphName="uniF6C3" x="108" y="0" flags="0x4"/>
    </TTGlyph>
    <TTGlyph name="Thorn" xMin="45" yMin="0" xMax="459" yMax="700">
      <contour>
        <pt x="45" y="700" on="1"/>
        <pt x="171" y="700" on="1"/>
        <pt x="171" y="627" on="1"/>
        <pt x="190" y="628" on="0"/>
        <pt x="210" y="628" on="1"/>
        <pt x="256" y="628" on="0"/>
        <pt x="345" y="611" on="0"/>
        <pt x="415" y="561" on="0"/>
        <pt x="459" y="470" on="0"/>
        <pt x="459" y="397" on="1"/>
        <pt x="459" y="332" on="0"/>
        <pt x="422" y="240" on="0"/>
        <pt x="360" y="182" on="0"/>
        <pt x="279" y="155" on="0"/>
        <pt x="236" y="155" on="1"/>
        <pt x="223" y="155" on="1"/>
        <pt x="214" y="155" on="0"/>
        <pt x="194" y="156" on="0"/>
        <pt x="175" y="158" on="0"/>
        <pt x="171" y="159" on="1"/>
        <pt x="171" y="0" on="1"/>
        <pt x="45" y="0" on="1"/>
      </contour>
      <contour>
        <pt x="222" y="516" on="1"/>
        <pt x="191" y="516" on="0"/>
        <pt x="171" y="511" on="1"/>
        <pt x="171" y="273" on="1"/>
        <pt x="177" y="271" on="0"/>
        <pt x="210" y="268" on="0"/>
        <pt x="216" y="268" on="1"/>
        <pt x="238" y="268" on="0"/>
        <pt x="278" y="279" on="0"/>
        <pt x="308" y="309" on="0"/>
        <pt x="326" y="359" on="0"/>
        <pt x="326" y="398" on="1"/>
        <pt x="326" y="432" on="0"/>
        <pt x="309" y="477" on="0"/>
        <pt x="281" y="504" on="0"/>
        <pt x="243" y="516" on="0"/>
      </contour>
    </TTGlyph>
    <TTGlyph name="U" xMin="42" yMin="-12" xMax="473" yMax="700">
      <contour>
        <pt x="354" y="700" on="1"/>
        <pt x="473" y="700" on="1"/>
        <pt x="473" y="246" on="1"/>
        <pt x="473" y="110" on="0"/>
        <pt x="362" y="-12" on="0"/>
        <pt x="264" y="-12" on="1"/>
        <pt x="149" y="-12" on="0"/>
        <pt x="42" y="107" on="0"/>
        <pt x="42" y="229" on="1"/>
        <pt x="42" y="700" on="1"/>
        <pt x="168" y="700" on="1"/>
        <pt x="168" y="251" on="1"/>
        <pt x="168" y="169" on="0"/>
        <pt x="212" y="104" on="0"/>
        <pt x="263" y="104" on="1"/>
        <pt x="312" y="104" on="0"/>
        <pt x="354" y="173" on="0"/>
        <pt x="354" y="251" on="1"/>
      </contour>
    </TTGlyph>
    <TTGlyph name="Uacute" xMin="42" yMin="-12" xMax="473" yMax="870">
      <component glyphName="U" x="0" y="0" flags="0x204"/>
      <component glyphName="uniF6C9" x="154" y="0" flags="0x4"/>
    </TTGlyph>
    <TTGlyph name="Ubreve" xMin="42" yMin="-12" xMax="473" yMax="875">
      <component glyphName="U" x="0" y="0" flags="0x204"/>
      <component glyphName="uniF406" x="36" y="0" flags="0x4"/>
    </TTGlyph>
    <TTGlyph name="Ucircumflex" xMin="42" yMin="-12" xMax="473" yMax="870">
      <component glyphName="U" x="0" y="0" flags="0x204"/>
      <component glyphName="uniF408" x="51" y="0" flags="0x4"/>
    </TTGlyph>
    <TTGlyph name="Udieresis" xMin="42" yMin="-12" xMax="473" yMax="856">
      <component glyphName="U" x="0" y="0" flags="0x204"/>
      <component glyphName="uniF6CB" x="41" y="0" flags="0x4"/>
    </TTGlyph>
    <TTGlyph name="Ugrave" xMin="42" yMin="-12" xMax="473" yMax="870">
      <component glyphName="U" x="0" y="0" flags="0x204"/>
      <component glyphName="uniF6CE" x="42" y="0" flags="0x4"/>
    </TTGlyph>
    <TTGlyph name="Uhungarumlaut" xMin="42" yMin="-12" xMax="474" yMax="850">
      <component glyphName="U" x="0" y="0" flags="0x204"/>
      <component glyphName="uniF6CF" x="69" y="0" flags="0x4"/>
    </TTGlyph>
    <TTGlyph name="Umacron" xMin="42" yMin="-12" xMax="473" yMax="856">
      <component glyphName="U" x="0" y="0" flags="0x204"/>
      <component glyphName="uniF6D0" x="55" y="0" flags="0x4"/>
    </TTGlyph>
    <TTGlyph name="Uogonek" xMin="42" yMin="-202" xMax="473" yMax="700">
      <contour>
        <pt x="354" y="700" on="1"/>
        <pt x="473" y="700" on="1"/>
        <pt x="473" y="246" on="1"/>
        <pt x="473" y="110" on="0"/>
        <pt x="417" y="49" on="1"/>
        <pt x="394" y="23" on="0"/>
        <pt x="362" y="8" on="1"/>
        <pt x="320" y="-24" on="0"/>
        <pt x="320" y="-69" on="1"/>
        <pt x="320" y="-81" on="0"/>
        <pt x="330" y="-103" on="0"/>
        <pt x="347" y="-115" on="0"/>
        <pt x="372" y="-116" on="0"/>
        <pt x="388" y="-108" on="1"/>
        <pt x="406" y="-167" on="1"/>
        <pt x="393" y="-178" on="0"/>
        <pt x="337" y="-202" on="0"/>
        <pt x="305" y="-202" on="1"/>
        <pt x="255" y="-202" on="0"/>
        <pt x="204" y="-147" on="0"/>
        <pt x="204" y="-107" on="1"/>
        <pt x="204" y="-66" on="0"/>
        <pt x="230" y="-33" on="1"/>
        <pt x="240" y="-22" on="0"/>
        <pt x="251" y="-12" on="1"/>
        <pt x="146" y="-9" on="0"/>
        <pt x="95" y="47" on="1"/>
        <pt x="42" y="107" on="0"/>
        <pt x="42" y="229" on="1"/>
        <pt x="42" y="700" on="1"/>
        <pt x="168" y="700" on="1"/>
        <pt x="168" y="251" on="1"/>
        <pt x="168" y="169" on="0"/>
        <pt x="212" y="104" on="0"/>
        <pt x="263" y="104" on="1"/>
        <pt x="312" y="104" on="0"/>
        <pt x="354" y="173" on="0"/>
        <pt x="354" y="251" on="1"/>
      </contour>
    </TTGlyph>
    <TTGlyph name="Uring" xMin="42" yMin="-12" xMax="473" yMax="862">
      <component glyphName="U" x="0" y="0" flags="0x204"/>
      <component glyphName="uniF40C" x="91" y="0" flags="0x4"/>
    </TTGlyph>
    <TTGlyph name="V" xMin="-10" yMin="-5" xMax="512" yMax="700">
      <contour>
        <pt x="243" y="289" on="1"/>
        <pt x="257" y="169" on="1"/>
        <pt x="261" y="169" on="1"/>
        <pt x="277" y="290" on="1"/>
        <pt x="379" y="700" on="1"/>
        <pt x="512" y="700" on="1"/>
        <pt x="300" y="-5" on="1"/>
        <pt x="204" y="-5" on="1"/>
        <pt x="-10" y="700" on="1"/>
        <pt x="139" y="700" on="1"/>
      </contour>
    </TTGlyph>
    <TTGlyph name="W" xMin="-2" yMin="-5" xMax="719" yMax="700">
      <contour>
        <pt x="205" y="315" on="1"/>
        <pt x="215" y="189" on="1"/>
        <pt x="219" y="189" on="1"/>
        <pt x="230" y="317" on="1"/>
        <pt x="324" y="700" on="1"/>
        <pt x="412" y="700" on="1"/>
        <pt x="503" y="315" on="1"/>
        <pt x="514" y="189" on="1"/>
        <pt x="518" y="189" on="1"/>
        <pt x="529" y="317" on="1"/>
        <pt x="591" y="700" on="1"/>
        <pt x="719" y="700" on="1"/>
        <pt x="562" y="-5" on="1"/>
        <pt x="473" y="-5" on="1"/>
        <pt x="375" y="381" on="1"/>
        <pt x="362" y="490" on="1"/>
        <pt x="357" y="490" on="1"/>
        <pt x="345" y="380" on="1"/>
        <pt x="247" y="-5" on="1"/>
        <pt x="154" y="-5" on="1"/>
        <pt x="-2" y="700" on="1"/>
        <pt x="137" y="700" on="1"/>
      </contour>
    </TTGlyph>
    <TTGlyph name="X" xMin="6" yMin="0" xMax="521" yMax="700">
      <contour>
        <pt x="177" y="356" on="1"/>
        <pt x="22" y="700" on="1"/>
        <pt x="174" y="700" on="1"/>
        <pt x="255" y="500" on="1"/>
        <pt x="274" y="424" on="1"/>
        <pt x="292" y="500" on="1"/>
        <pt x="377" y="700" on="1"/>
        <pt x="513" y="700" on="1"/>
        <pt x="353" y="363" on="1"/>
        <pt x="521" y="0" on="1"/>
        <pt x="374" y="0" on="1"/>
        <pt x="280" y="215" on="1"/>
        <pt x="259" y="293" on="1"/>
        <pt x="239" y="215" on="1"/>
        <pt x="145" y="0" on="1"/>
        <pt x="6" y="0" on="1"/>
      </contour>
    </TTGlyph>
    <TTGlyph name="Y" xMin="-4" yMin="0" xMax="499" yMax="700">
      <contour>
        <pt x="184" y="260" on="1"/>
        <pt x="-4" y="700" on="1"/>
        <pt x="146" y="700" on="1"/>
        <pt x="243" y="435" on="1"/>
        <pt x="253" y="359" on="1"/>
        <pt x="258" y="359" on="1"/>
        <pt x="269" y="437" on="1"/>
        <pt x="364" y="700" on="1"/>
        <pt x="499" y="700" on="1"/>
        <pt x="310" y="261" on="1"/>
        <pt x="310" y="0" on="1"/>
        <pt x="184" y="0" on="1"/>
      </contour>
    </TTGlyph>
    <TTGlyph name="Yacute" xMin="-4" yMin="0" xMax="499" yMax="870">
      <component glyphName="Y" x="0" y="0" flags="0x204"/>
      <component glyphName="uniF6C9" x="123" y="0" flags="0x4"/>
    </TTGlyph>
    <TTGlyph name="Ydieresis" xMin="-4" yMin="0" xMax="499" yMax="856">
      <component glyphName="Y" x="0" y="0" flags="0x204"/>
      <component glyphName="uniF6CB" x="33" y="0" flags="0x4"/>
    </TTGlyph>
    <TTGlyph name="Z" xMin="21" yMin="0" xMax="424" yMax="700">
      <contour>
        <pt x="21" y="116" on="1"/>
        <pt x="255" y="543" on="1"/>
        <pt x="297" y="584" on="1"/>
        <pt x="21" y="584" on="1"/>
        <pt x="21" y="700" on="1"/>
        <pt x="424" y="700" on="1"/>
        <pt x="424" y="584" on="1"/>
        <pt x="189" y="154" on="1"/>
        <pt x="148" y="116" on="1"/>
        <pt x="424" y="116" on="1"/>
        <pt x="424" y="0" on="1"/>
        <pt x="21" y="0" on="1"/>
      </contour>
    </TTGlyph>
    <TTGlyph name="Zacute" xMin="21" yMin="0" xMax="424" yMax="870">
      <component glyphName="Z" x="0" y="0" flags="0x204"/>
      <component glyphName="uniF6C9" x="100" y="0" flags="0x4"/>
    </TTGlyph>
    <TTGlyph name="Zcaron" xMin="21" yMin="0" xMax="424" yMax="870">
      <component glyphName="Z" x="0" y="0" flags="0x204"/>
      <component glyphName="uniF6CA" x="10" y="0" flags="0x4"/>
    </TTGlyph>
    <TTGlyph name="Zdotaccent" xMin="21" yMin="0" xMax="424" yMax="860">
      <component glyphName="Z" x="0" y="0" flags="0x204"/>
      <component glyphName="uniF40B" x="88" y="0" flags="0x4"/>
    </TTGlyph>
    <TTGlyph name="a" xMin="17" yMin="-7" xMax="382" yMax="510">
      <contour>
        <pt x="44" y="470" on="1"/>
        <pt x="74" y="488" on="0"/>
        <pt x="164" y="510" on="0"/>
        <pt x="221" y="510" on="1"/>
        <pt x="306" y="510" on="0"/>
        <pt x="373" y="422" on="0"/>
        <pt x="373" y="341" on="1"/>
        <pt x="373" y="294" on="0"/>
        <pt x="368" y="203" on="0"/>
        <pt x="366" y="116" on="0"/>
        <pt x="371" y="35" on="0"/>
        <pt x="382" y="-1" on="1"/>
        <pt x="285" y="-1" on="1"/>
        <pt x="266" y="60" on="1"/>
        <pt x="262" y="60" on="1"/>
        <pt x="246" y="31" on="0"/>
        <pt x="188" y="-7" on="0"/>
        <pt x="144" y="-7" on="1"/>
        <pt x="85" y="-7" on="0"/>
        <pt x="17" y="72" on="0"/>
        <pt x="17" y="138" on="1"/>
        <pt x="17" y="228" on="0"/>
        <pt x="145" y="304" on="0"/>
        <pt x="254" y="298" on="1"/>
        <pt x="259" y="356" on="0"/>
        <pt x="234" y="408" on="0"/>
        <pt x="193" y="408" on="1"/>
        <pt x="163" y="408" on="0"/>
        <pt x="99" y="394" on="0"/>
        <pt x="74" y="381" on="1"/>
      </contour>
      <contour>
        <pt x="187" y="95" on="1"/>
        <pt x="214" y="95" on="0"/>
        <pt x="248" y="122" on="0"/>
        <pt x="256" y="138" on="1"/>
        <pt x="256" y="221" on="1"/>
        <pt x="233" y="224" on="0"/>
        <pt x="191" y="220" on="0"/>
        <pt x="159" y="206" on="0"/>
        <pt x="140" y="179" on="0"/>
        <pt x="140" y="158" on="1"/>
        <pt x="140" y="127" on="0"/>
        <pt x="165" y="95" on="0"/>
      </contour>
    </TTGlyph>
    <TTGlyph name="aacute" xMin="17" yMin="-7" xMax="382" yMax="720">
      <component glyphName="a" x="0" y="0" flags="0x204"/>
      <component glyphName="acute" x="94" y="0" flags="0x4"/>
    </TTGlyph>
    <TTGlyph name="abreve" xMin="17" yMin="-7" xMax="382" yMax="719">
      <component glyphName="a" x="0" y="0" flags="0x204"/>
      <component glyphName="breve" x="2" y="0" flags="0x4"/>
    </TTGlyph>
    <TTGlyph name="acircumflex" xMin="17" yMin="-7" xMax="382" yMax="732">
      <component glyphName="a" x="0" y="0" flags="0x204"/>
      <component glyphName="circumflex" x="13" y="0" flags="0x4"/>
    </TTGlyph>
    <TTGlyph name="acute" xMin="60" yMin="566" xMax="221" yMax="720">
      <contour>
        <pt x="102" y="720" on="1"/>
        <pt x="221" y="720" on="1"/>
        <pt x="221" y="690" on="1"/>
        <pt x="127" y="566" on="1"/>
        <pt x="60" y="566" on="1"/>
      </contour>
    </TTGlyph>
    <TTGlyph name="acutecomb" xMin="-346" yMin="566" xMax="-185" yMax="720">
      <component glyphName="acute" x="-406" y="0" flags="0x4"/>
    </TTGlyph>
    <TTGlyph name="adieresis" xMin="17" yMin="-7" xMax="382" yMax="719">
      <component glyphName="a" x="0" y="0" flags="0x204"/>
      <component glyphName="dieresis" x="-4" y="0" flags="0x4"/>
    </TTGlyph>
    <TTGlyph name="ae" xMin="17" yMin="-13" xMax="621" yMax="514">
      <component glyphName="uni04D5" x="0" y="0" flags="0x204"/>
    </TTGlyph>
    <TTGlyph name="afii10017" xMin="-3" yMin="0" xMax="503" yMax="705">
      <component glyphName="A" x="0" y="0" flags="0x204"/>
    </TTGlyph>
    <TTGlyph name="afii10018" xMin="45" yMin="-10" xMax="455" yMax="700">
      <contour>
        <pt x="45" y="700" on="1"/>
        <pt x="412" y="700" on="1"/>
        <pt x="412" y="584" on="1"/>
        <pt x="171" y="584" on="1"/>
        <pt x="171" y="432" on="1"/>
        <pt x="186" y="435" on="0"/>
        <pt x="228" y="441" on="0"/>
        <pt x="248" y="441" on="1"/>
        <pt x="296" y="441" on="0"/>
        <pt x="372" y="418" on="0"/>
        <pt x="426" y="367" on="0"/>
        <pt x="455" y="285" on="0"/>
        <pt x="455" y="226" on="1"/>
        <pt x="455" y="108" on="0"/>
        <pt x="337" y="-10" on="0"/>
        <pt x="221" y="-10" on="1"/>
        <pt x="207" y="-10" on="0"/>
        <pt x="163" y="-8" on="0"/>
        <pt x="113" y="-5" on="0"/>
        <pt x="64" y="1" on="0"/>
        <pt x="45" y="6" on="1"/>
      </contour>
      <contour>
        <pt x="230" y="102" on="1"/>
        <pt x="272" y="102" on="0"/>
        <pt x="323" y="154" on="0"/>
        <pt x="323" y="216" on="1"/>
        <pt x="323" y="253" on="0"/>
        <pt x="307" y="297" on="0"/>
        <pt x="280" y="321" on="0"/>
        <pt x="243" y="329" on="0"/>
        <pt x="221" y="329" on="1"/>
        <pt x="210" y="329" on="0"/>
        <pt x="177" y="324" on="0"/>
        <pt x="171" y="322" on="1"/>
        <pt x="171" y="107" on="1"/>
        <pt x="180" y="105" on="0"/>
        <pt x="214" y="102" on="0"/>
      </contour>
    </TTGlyph>
    <TTGlyph name="afii10019" xMin="45" yMin="-10" xMax="462" yMax="710">
      <component glyphName="B" x="0" y="0" flags="0x204"/>
    </TTGlyph>
    <TTGlyph name="afii10020" xMin="45" yMin="0" xMax="388" yMax="700">
      <contour>
        <pt x="388" y="584" on="1"/>
        <pt x="171" y="584" on="1"/>
        <pt x="171" y="0" on="1"/>
        <pt x="45" y="0" on="1"/>
        <pt x="45" y="700" on="1"/>
        <pt x="388" y="700" on="1"/>
      </contour>
    </TTGlyph>
    <TTGlyph name="afii10021" xMin="0" yMin="-125" xMax="562" yMax="700">
      <contour>
        <pt x="562" y="-125" on="1"/>
        <pt x="473" y="-125" on="1"/>
        <pt x="461" y="0" on="1"/>
        <pt x="101" y="0" on="1"/>
        <pt x="89" y="-125" on="1"/>
        <pt x="0" y="-125" on="1"/>
        <pt x="0" y="116" on="1"/>
        <pt x="61" y="116" on="1"/>
        <pt x="67" y="127" on="0"/>
        <pt x="92" y="205" on="0"/>
        <pt x="118" y="347" on="0"/>
        <pt x="135" y="557" on="0"/>
        <pt x="134" y="700" on="1"/>
        <pt x="490" y="700" on="1"/>
        <pt x="490" y="116" on="1"/>
        <pt x="562" y="116" on="1"/>
      </contour>
      <contour>
        <pt x="364" y="116" on="1"/>
        <pt x="364" y="584" on="1"/>
        <pt x="253" y="584" on="1"/>
        <pt x="248" y="407" on="0"/>
        <pt x="211" y="167" on="0"/>
        <pt x="192" y="116" on="1"/>
      </contour>
    </TTGlyph>
    <TTGlyph name="afii10022" xMin="45" yMin="0" xMax="399" yMax="700">
      <component glyphName="E" x="0" y="0" flags="0x204"/>
    </TTGlyph>
    <TTGlyph name="afii10023" xMin="45" yMin="0" xMax="399" yMax="856">
      <component glyphName="E" x="0" y="0" flags="0x204"/>
      <component glyphName="uniF6CB" x="0" y="0" flags="0x4"/>
    </TTGlyph>
    <TTGlyph name="afii10024" xMin="-5" yMin="0" xMax="706" yMax="700">
      <contour>
        <pt x="287" y="700" on="1"/>
        <pt x="406" y="700" on="1"/>
        <pt x="406" y="387" on="1"/>
        <pt x="435" y="401" on="1"/>
        <pt x="540" y="700" on="1"/>
        <pt x="681" y="700" on="1"/>
        <pt x="556" y="392" on="1"/>
        <pt x="516" y="359" on="1"/>
        <pt x="565" y="318" on="1"/>
        <pt x="706" y="0" on="1"/>
        <pt x="554" y="0" on="1"/>
        <pt x="437" y="305" on="1"/>
        <pt x="406" y="305" on="1"/>
        <pt x="406" y="0" on="1"/>
        <pt x="287" y="0" on="1"/>
        <pt x="287" y="317" on="1"/>
        <pt x="259" y="303" on="1"/>
        <pt x="141" y="0" on="1"/>
        <pt x="-5" y="0" on="1"/>
        <pt x="135" y="308" on="1"/>
        <pt x="181" y="346" on="1"/>
        <pt x="136" y="382" on="1"/>
        <pt x="6" y="700" on="1"/>
        <pt x="152" y="700" on="1"/>
        <pt x="256" y="399" on="1"/>
        <pt x="287" y="399" on="1"/>
      </contour>
    </TTGlyph>
    <TTGlyph name="afii10025" xMin="12" yMin="-14" xMax="409" yMax="712">
      <contour>
        <pt x="98" y="313" on="1"/>
        <pt x="98" y="415" on="1"/>
        <pt x="122" y="415" on="1"/>
        <pt x="137" y="415" on="0"/>
        <pt x="181" y="417" on="0"/>
        <pt x="194" y="422" on="1"/>
        <pt x="221" y="430" on="0"/>
        <pt x="259" y="474" on="0"/>
        <pt x="259" y="509" on="1"/>
        <pt x="259" y="558" on="0"/>
        <pt x="212" y="596" on="0"/>
        <pt x="170" y="596" on="1"/>
        <pt x="136" y="596" on="0"/>
        <pt x="77" y="575" on="0"/>
        <pt x="60" y="564" on="1"/>
        <pt x="28" y="673" on="1"/>
        <pt x="38" y="679" on="0"/>
        <pt x="74" y="693" on="0"/>
        <pt x="119" y="705" on="0"/>
        <pt x="170" y="712" on="0"/>
        <pt x="196" y="712" on="1"/>
        <pt x="234" y="712" on="0"/>
        <pt x="305" y="697" on="0"/>
        <pt x="359" y="658" on="0"/>
        <pt x="391" y="590" on="0"/>
        <pt x="391" y="537" on="1"/>
        <pt x="391" y="486" on="0"/>
        <pt x="348" y="398" on="0"/>
        <pt x="300" y="377" on="1"/>
        <pt x="300" y="371" on="1"/>
        <pt x="352" y="357" on="0"/>
        <pt x="409" y="273" on="0"/>
        <pt x="409" y="201" on="1"/>
        <pt x="409" y="144" on="0"/>
        <pt x="372" y="62" on="0"/>
        <pt x="309" y="10" on="0"/>
        <pt x="227" y="-14" on="0"/>
        <pt x="183" y="-14" on="1"/>
        <pt x="129" y="-14" on="0"/>
        <pt x="39" y="5" on="0"/>
        <pt x="12" y="21" on="1"/>
        <pt x="45" y="133" on="1"/>
        <pt x="64" y="122" on="0"/>
        <pt x="131" y="102" on="0"/>
        <pt x="176" y="102" on="1"/>
        <pt x="217" y="102" on="0"/>
        <pt x="277" y="155" on="0"/>
        <pt x="277" y="212" on="1"/>
        <pt x="277" y="261" on="0"/>
        <pt x="222" y="310" on="0"/>
        <pt x="153" y="312" on="1"/>
        <pt x="142" y="312" on="0"/>
        <pt x="134" y="313" on="0"/>
        <pt x="121" y="313" on="1"/>
      </contour>
    </TTGlyph>
    <TTGlyph name="afii10026" xMin="45" yMin="0" xMax="502" yMax="700">
      <contour>
        <pt x="376" y="373" on="1"/>
        <pt x="386" y="472" on="1"/>
        <pt x="381" y="472" on="1"/>
        <pt x="343" y="366" on="1"/>
        <pt x="144" y="0" on="1"/>
        <pt x="45" y="0" on="1"/>
        <pt x="45" y="700" on="1"/>
        <pt x="171" y="700" on="1"/>
        <pt x="171" y="334" on="1"/>
        <pt x="160" y="232" on="1"/>
        <pt x="165" y="232" on="1"/>
        <pt x="205" y="341" on="1"/>
        <pt x="404" y="700" on="1"/>
        <pt x="502" y="700" on="1"/>
        <pt x="502" y="0" on="1"/>
        <pt x="376" y="0" on="1"/>
      </contour>
    </TTGlyph>
    <TTGlyph name="afii10027" xMin="45" yMin="0" xMax="502" yMax="874">
      <component glyphName="afii10026" x="0" y="0" flags="0x204"/>
      <component glyphName="uniF6D1" x="58" y="0" flags="0x4"/>
    </TTGlyph>
    <TTGlyph name="afii10028" xMin="45" yMin="0" xMax="511" yMax="700">
      <component glyphName="K" x="0" y="0" flags="0x204"/>
    </TTGlyph>
    <TTGlyph name="afii10029" xMin="-12" yMin="-7" xMax="471" yMax="700">
      <contour>
        <pt x="345" y="584" on="1"/>
        <pt x="239" y="584" on="1"/>
        <pt x="232" y="394" on="0"/>
        <pt x="208" y="139" on="0"/>
        <pt x="174" y="72" on="1"/>
        <pt x="162" y="48" on="0"/>
        <pt x="131" y="17" on="0"/>
        <pt x="100" y="0" on="0"/>
        <pt x="68" y="-7" on="0"/>
        <pt x="55" y="-7" on="1"/>
        <pt x="34" y="-7" on="0"/>
        <pt x="2" y="0" on="0"/>
        <pt x="-12" y="7" on="1"/>
        <pt x="2" y="121" on="1"/>
        <pt x="20" y="114" on="0"/>
        <pt x="56" y="127" on="0"/>
        <pt x="68" y="153" on="1"/>
        <pt x="80" y="175" on="0"/>
        <pt x="98" y="260" on="0"/>
        <pt x="111" y="394" on="0"/>
        <pt x="118" y="578" on="0"/>
        <pt x="120" y="700" on="1"/>
        <pt x="471" y="700" on="1"/>
        <pt x="471" y="0" on="1"/>
        <pt x="345" y="0" on="1"/>
      </contour>
    </TTGlyph>
    <TTGlyph name="afii10030" xMin="45" yMin="0" xMax="619" yMax="700">
      <component glyphName="M" x="0" y="0" flags="0x204"/>
    </TTGlyph>
    <TTGlyph name="afii10031" xMin="45" yMin="0" xMax="488" yMax="700">
      <component glyphName="H" x="0" y="0" flags="0x204"/>
    </TTGlyph>
    <TTGlyph name="afii10032" xMin="29" yMin="-14" xMax="524" yMax="714">
      <component glyphName="O" x="0" y="0" flags="0x204"/>
    </TTGlyph>
    <TTGlyph name="afii10033" xMin="45" yMin="0" xMax="479" yMax="700">
      <contour>
        <pt x="353" y="584" on="1"/>
        <pt x="171" y="584" on="1"/>
        <pt x="171" y="0" on="1"/>
        <pt x="45" y="0" on="1"/>
        <pt x="45" y="700" on="1"/>
        <pt x="479" y="700" on="1"/>
        <pt x="479" y="0" on="1"/>
        <pt x="353" y="0" on="1"/>
      </contour>
    </TTGlyph>
    <TTGlyph name="afii10034" xMin="45" yMin="0" xMax="459" yMax="710">
      <component glyphName="P" x="0" y="0" flags="0x204"/>
    </TTGlyph>
    <TTGlyph name="afii10035" xMin="29" yMin="-14" xMax="442" yMax="714">
      <component glyphName="C" x="0" y="0" flags="0x204"/>
    </TTGlyph>
    <TTGlyph name="afii10036" xMin="8" yMin="0" xMax="466" yMax="700">
      <component glyphName="T" x="0" y="0" flags="0x204"/>
    </TTGlyph>
    <TTGlyph name="afii10037" xMin="-10" yMin="-7" xMax="488" yMax="700">
      <contour>
        <pt x="246" y="395" on="1"/>
        <pt x="261" y="302" on="1"/>
        <pt x="266" y="302" on="1"/>
        <pt x="279" y="398" on="1"/>
        <pt x="358" y="700" on="1"/>
        <pt x="488" y="700" on="1"/>
        <pt x="332" y="216" on="1"/>
        <pt x="314" y="159" on="0"/>
        <pt x="282" y="76" on="0"/>
        <pt x="244" y="20" on="0"/>
        <pt x="197" y="-7" on="0"/>
        <pt x="163" y="-7" on="1"/>
        <pt x="136" y="-7" on="0"/>
        <pt x="97" y="3" on="0"/>
        <pt x="76" y="17" on="1"/>
        <pt x="107" y="123" on="1"/>
        <pt x="121" y="115" on="0"/>
        <pt x="143" y="110" on="0"/>
        <pt x="155" y="109" on="1"/>
        <pt x="192" y="109" on="0"/>
        <pt x="206" y="185" on="1"/>
        <pt x="-10" y="700" on="1"/>
        <pt x="139" y="700" on="1"/>
      </contour>
    </TTGlyph>
    <TTGlyph name="afii10038" xMin="19" yMin="-20" xMax="651" yMax="720">
      <contour>
        <pt x="272" y="76" on="1"/>
        <pt x="256" y="73" on="0"/>
        <pt x="223" y="71" on="0"/>
        <pt x="203" y="71" on="1"/>
        <pt x="163" y="71" on="0"/>
        <pt x="96" y="103" on="0"/>
        <pt x="47" y="171" on="0"/>
        <pt x="19" y="276" on="0"/>
        <pt x="19" y="350" on="1"/>
        <pt x="19" y="490" on="0"/>
        <pt x="127" y="640" on="0"/>
        <pt x="219" y="640" on="1"/>
        <pt x="229" y="640" on="0"/>
        <pt x="262" y="638" on="0"/>
        <pt x="272" y="635" on="1"/>
        <pt x="272" y="720" on="1"/>
        <pt x="398" y="720" on="1"/>
        <pt x="398" y="632" on="1"/>
        <pt x="413" y="637" on="0"/>
        <pt x="455" y="640" on="0"/>
        <pt x="468" y="640" on="1"/>
        <pt x="508" y="640" on="0"/>
        <pt x="575" y="606" on="0"/>
        <pt x="624" y="537" on="0"/>
        <pt x="651" y="431" on="0"/>
        <pt x="651" y="360" on="1"/>
        <pt x="651" y="287" on="0"/>
        <pt x="620" y="179" on="0"/>
        <pt x="568" y="107" on="0"/>
        <pt x="496" y="71" on="0"/>
        <pt x="456" y="71" on="1"/>
        <pt x="441" y="71" on="0"/>
        <pt x="410" y="74" on="0"/>
        <pt x="398" y="78" on="1"/>
        <pt x="398" y="-20" on="1"/>
        <pt x="272" y="-20" on="1"/>
      </contour>
      <contour>
        <pt x="436" y="531" on="1"/>
        <pt x="428" y="531" on="0"/>
        <pt x="400" y="529" on="0"/>
        <pt x="392" y="526" on="1"/>
        <pt x="392" y="182" on="1"/>
        <pt x="398" y="180" on="0"/>
        <pt x="418" y="180" on="0"/>
        <pt x="428" y="180" on="1"/>
        <pt x="471" y="180" on="0"/>
        <pt x="525" y="265" on="0"/>
        <pt x="525" y="359" on="1"/>
        <pt x="525" y="440" on="0"/>
        <pt x="480" y="531" on="0"/>
      </contour>
      <contour>
        <pt x="237" y="180" on="1"/>
        <pt x="244" y="180" on="0"/>
        <pt x="269" y="181" on="0"/>
        <pt x="278" y="184" on="1"/>
        <pt x="278" y="529" on="1"/>
        <pt x="270" y="530" on="0"/>
        <pt x="250" y="531" on="0"/>
        <pt x="241" y="531" on="1"/>
        <pt x="198" y="531" on="0"/>
        <pt x="145" y="446" on="0"/>
        <pt x="145" y="351" on="1"/>
        <pt x="145" y="268" on="0"/>
        <pt x="193" y="180" on="0"/>
      </contour>
    </TTGlyph>
    <TTGlyph name="afii10039" xMin="6" yMin="0" xMax="521" yMax="700">
      <component glyphName="X" x="0" y="0" flags="0x204"/>
    </TTGlyph>
    <TTGlyph name="afii10040" xMin="45" yMin="-125" xMax="550" yMax="700">
      <contour>
        <pt x="550" y="-125" on="1"/>
        <pt x="461" y="-125" on="1"/>
        <pt x="448" y="0" on="1"/>
        <pt x="45" y="0" on="1"/>
        <pt x="45" y="700" on="1"/>
        <pt x="171" y="700" on="1"/>
        <pt x="171" y="116" on="1"/>
        <pt x="351" y="116" on="1"/>
        <pt x="351" y="700" on="1"/>
        <pt x="477" y="700" on="1"/>
        <pt x="477" y="116" on="1"/>
        <pt x="550" y="116" on="1"/>
      </contour>
    </TTGlyph>
    <TTGlyph name="afii10041" xMin="34" yMin="0" xMax="458" yMax="700">
      <contour>
        <pt x="160" y="700" on="1"/>
        <pt x="160" y="470" on="1"/>
        <pt x="160" y="408" on="0"/>
        <pt x="196" y="355" on="0"/>
        <pt x="237" y="355" on="1"/>
        <pt x="266" y="355" on="0"/>
        <pt x="317" y="373" on="0"/>
        <pt x="332" y="390" on="1"/>
        <pt x="332" y="700" on="1"/>
        <pt x="458" y="700" on="1"/>
        <pt x="458" y="0" on="1"/>
        <pt x="332" y="0" on="1"/>
        <pt x="332" y="282" on="1"/>
        <pt x="312" y="268" on="0"/>
        <pt x="241" y="243" on="0"/>
        <pt x="193" y="243" on="1"/>
        <pt x="160" y="243" on="0"/>
        <pt x="102" y="262" on="0"/>
        <pt x="59" y="305" on="0"/>
        <pt x="34" y="376" on="0"/>
        <pt x="34" y="429" on="1"/>
        <pt x="34" y="700" on="1"/>
      </contour>
    </TTGlyph>
    <TTGlyph name="afii10042" xMin="45" yMin="0" xMax="661" yMax="700">
      <contour>
        <pt x="45" y="0" on="1"/>
        <pt x="45" y="700" on="1"/>
        <pt x="171" y="700" on="1"/>
        <pt x="171" y="116" on="1"/>
        <pt x="290" y="116" on="1"/>
        <pt x="290" y="700" on="1"/>
        <pt x="416" y="700" on="1"/>
        <pt x="416" y="116" on="1"/>
        <pt x="535" y="116" on="1"/>
        <pt x="535" y="700" on="1"/>
        <pt x="661" y="700" on="1"/>
        <pt x="661" y="0" on="1"/>
      </contour>
    </TTGlyph>
    <TTGlyph name="afii10043" xMin="45" yMin="-125" xMax="739" yMax="700">
      <contour>
        <pt x="45" y="0" on="1"/>
        <pt x="45" y="700" on="1"/>
        <pt x="171" y="700" on="1"/>
        <pt x="171" y="116" on="1"/>
        <pt x="291" y="116" on="1"/>
        <pt x="291" y="700" on="1"/>
        <pt x="417" y="700" on="1"/>
        <pt x="417" y="116" on="1"/>
        <pt x="537" y="116" on="1"/>
        <pt x="537" y="700" on="1"/>
        <pt x="663" y="700" on="1"/>
        <pt x="663" y="116" on="1"/>
        <pt x="739" y="116" on="1"/>
        <pt x="739" y="-125" on="1"/>
        <pt x="650" y="-125" on="1"/>
        <pt x="637" y="0" on="1"/>
      </contour>
    </TTGlyph>
    <TTGlyph name="afii10044" xMin="-4" yMin="-10" xMax="539" yMax="700">
      <contour>
        <pt x="127" y="584" on="1"/>
        <pt x="-4" y="584" on="1"/>
        <pt x="-4" y="700" on="1"/>
        <pt x="253" y="700" on="1"/>
        <pt x="253" y="448" on="1"/>
        <pt x="264" y="451" on="0"/>
        <pt x="313" y="457" on="0"/>
        <pt x="333" y="457" on="1"/>
        <pt x="375" y="457" on="0"/>
        <pt x="449" y="437" on="0"/>
        <pt x="506" y="387" on="0"/>
        <pt x="539" y="300" on="0"/>
        <pt x="539" y="233" on="1"/>
        <pt x="539" y="112" on="0"/>
        <pt x="422" y="-10" on="0"/>
        <pt x="298" y="-10" on="1"/>
        <pt x="286" y="-10" on="0"/>
        <pt x="245" y="-9" on="0"/>
        <pt x="197" y="-6" on="0"/>
        <pt x="148" y="1" on="0"/>
        <pt x="127" y="6" on="1"/>
      </contour>
      <contour>
        <pt x="253" y="112" on="1"/>
        <pt x="261" y="109" on="0"/>
        <pt x="290" y="106" on="0"/>
        <pt x="304" y="106" on="1"/>
        <pt x="350" y="106" on="0"/>
        <pt x="407" y="159" on="0"/>
        <pt x="407" y="227" on="1"/>
        <pt x="407" y="262" on="0"/>
        <pt x="391" y="307" on="0"/>
        <pt x="363" y="332" on="0"/>
        <pt x="326" y="341" on="0"/>
        <pt x="305" y="341" on="1"/>
        <pt x="294" y="341" on="0"/>
        <pt x="259" y="335" on="0"/>
        <pt x="253" y="332" on="1"/>
      </contour>
    </TTGlyph>
    <TTGlyph name="afii10045" xMin="45" yMin="-10" xMax="623" yMax="700">
      <contour>
        <pt x="497" y="700" on="1"/>
        <pt x="623" y="700" on="1"/>
        <pt x="623" y="0" on="1"/>
        <pt x="497" y="0" on="1"/>
      </contour>
      <contour>
        <pt x="45" y="700" on="1"/>
        <pt x="171" y="700" on="1"/>
        <pt x="171" y="449" on="1"/>
        <pt x="180" y="451" on="0"/>
        <pt x="222" y="457" on="0"/>
        <pt x="242" y="457" on="1"/>
        <pt x="284" y="457" on="0"/>
        <pt x="357" y="438" on="0"/>
        <pt x="411" y="388" on="0"/>
        <pt x="443" y="301" on="0"/>
        <pt x="443" y="234" on="1"/>
        <pt x="443" y="111" on="0"/>
        <pt x="331" y="-10" on="0"/>
        <pt x="207" y="-10" on="1"/>
        <pt x="195" y="-10" on="0"/>
        <pt x="157" y="-9" on="0"/>
        <pt x="112" y="-6" on="0"/>
        <pt x="65" y="1" on="0"/>
        <pt x="45" y="6" on="1"/>
      </contour>
      <contour>
        <pt x="171" y="112" on="1"/>
        <pt x="179" y="109" on="0"/>
        <pt x="203" y="106" on="0"/>
        <pt x="216" y="106" on="1"/>
        <pt x="261" y="106" on="0"/>
        <pt x="311" y="161" on="0"/>
        <pt x="311" y="228" on="1"/>
        <pt x="311" y="262" on="0"/>
        <pt x="297" y="306" on="0"/>
        <pt x="273" y="332" on="0"/>
        <pt x="238" y="341" on="0"/>
        <pt x="217" y="341" on="1"/>
        <pt x="207" y="341" on="0"/>
        <pt x="177" y="335" on="0"/>
        <pt x="171" y="332" on="1"/>
      </contour>
    </TTGlyph>
    <TTGlyph name="afii10046" xMin="45" yMin="-10" xMax="457" yMax="700">
      <contour>
        <pt x="45" y="700" on="1"/>
        <pt x="171" y="700" on="1"/>
        <pt x="171" y="448" on="1"/>
        <pt x="177" y="449" on="0"/>
        <pt x="196" y="453" on="0"/>
        <pt x="218" y="455" on="0"/>
        <pt x="242" y="457" on="0"/>
        <pt x="251" y="457" on="1"/>
        <pt x="293" y="457" on="0"/>
        <pt x="368" y="437" on="0"/>
        <pt x="424" y="387" on="0"/>
        <pt x="457" y="300" on="0"/>
        <pt x="457" y="233" on="1"/>
        <pt x="457" y="113" on="0"/>
        <pt x="341" y="-10" on="0"/>
        <pt x="216" y="-10" on="1"/>
        <pt x="205" y="-10" on="0"/>
        <pt x="164" y="-9" on="0"/>
        <pt x="116" y="-6" on="0"/>
        <pt x="66" y="1" on="0"/>
        <pt x="45" y="6" on="1"/>
      </contour>
      <contour>
        <pt x="171" y="112" on="1"/>
        <pt x="180" y="109" on="0"/>
        <pt x="209" y="106" on="0"/>
        <pt x="223" y="106" on="1"/>
        <pt x="270" y="106" on="0"/>
        <pt x="325" y="160" on="0"/>
        <pt x="325" y="227" on="1"/>
        <pt x="325" y="262" on="0"/>
        <pt x="309" y="307" on="0"/>
        <pt x="282" y="332" on="0"/>
        <pt x="245" y="341" on="0"/>
        <pt x="223" y="341" on="1"/>
        <pt x="212" y="341" on="0"/>
        <pt x="177" y="335" on="0"/>
        <pt x="171" y="332" on="1"/>
      </contour>
    </TTGlyph>
    <TTGlyph name="afii10047" xMin="14" yMin="-14" xMax="448" yMax="714">
      <contour>
        <pt x="105" y="407" on="1"/>
        <pt x="316" y="407" on="1"/>
        <pt x="314" y="449" on="0"/>
        <pt x="297" y="519" on="0"/>
        <pt x="262" y="570" on="0"/>
        <pt x="211" y="598" on="0"/>
        <pt x="175" y="598" on="1"/>
        <pt x="132" y="598" on="0"/>
        <pt x="67" y="577" on="0"/>
        <pt x="44" y="563" on="1"/>
        <pt x="15" y="672" on="1"/>
        <pt x="47" y="691" on="0"/>
        <pt x="139" y="714" on="0"/>
        <pt x="182" y="714" on="1"/>
        <pt x="242" y="714" on="0"/>
        <pt x="341" y="675" on="0"/>
        <pt x="410" y="589" on="0"/>
        <pt x="448" y="450" on="0"/>
        <pt x="448" y="351" on="1"/>
        <pt x="448" y="245" on="0"/>
        <pt x="404" y="104" on="0"/>
        <pt x="327" y="20" on="0"/>
        <pt x="226" y="-14" on="0"/>
        <pt x="169" y="-14" on="1"/>
        <pt x="120" y="-14" on="0"/>
        <pt x="37" y="6" on="0"/>
        <pt x="14" y="18" on="1"/>
        <pt x="47" y="130" on="1"/>
        <pt x="67" y="120" on="0"/>
        <pt x="133" y="102" on="0"/>
        <pt x="174" y="102" on="1"/>
        <pt x="240" y="102" on="0"/>
        <pt x="312" y="199" on="0"/>
        <pt x="317" y="303" on="1"/>
        <pt x="105" y="303" on="1"/>
      </contour>
    </TTGlyph>
    <TTGlyph name="afii10048" xMin="45" yMin="-14" xMax="714" yMax="714">
      <contour>
        <pt x="171" y="412" on="1"/>
        <pt x="242" y="412" on="1"/>
        <pt x="250" y="555" on="0"/>
        <pt x="363" y="714" on="0"/>
        <pt x="476" y="714" on="1"/>
        <pt x="541" y="714" on="0"/>
        <pt x="632" y="662" on="0"/>
        <pt x="689" y="566" on="0"/>
        <pt x="714" y="432" on="0"/>
        <pt x="714" y="350" on="1"/>
        <pt x="714" y="175" on="0"/>
        <pt x="598" y="-14" on="0"/>
        <pt x="475" y="-14" on="1"/>
        <pt x="418" y="-14" on="0"/>
        <pt x="334" y="29" on="0"/>
        <pt x="277" y="110" on="0"/>
        <pt x="246" y="225" on="0"/>
        <pt x="242" y="296" on="1"/>
        <pt x="171" y="296" on="1"/>
        <pt x="171" y="0" on="1"/>
        <pt x="45" y="0" on="1"/>
        <pt x="45" y="700" on="1"/>
        <pt x="171" y="700" on="1"/>
      </contour>
      <contour>
        <pt x="368" y="350" on="1"/>
        <pt x="368" y="296" on="0"/>
        <pt x="378" y="205" on="0"/>
        <pt x="403" y="139" on="0"/>
        <pt x="444" y="102" on="0"/>
        <pt x="475" y="102" on="1"/>
        <pt x="533" y="102" on="0"/>
        <pt x="582" y="219" on="0"/>
        <pt x="582" y="350" on="1"/>
        <pt x="582" y="402" on="0"/>
        <pt x="573" y="493" on="0"/>
        <pt x="549" y="560" on="0"/>
        <pt x="508" y="598" on="0"/>
        <pt x="475" y="598" on="1"/>
        <pt x="418" y="598" on="0"/>
        <pt x="368" y="477" on="0"/>
      </contour>
    </TTGlyph>
    <TTGlyph name="afii10049" xMin="5" yMin="0" xMax="441" yMax="710">
      <contour>
        <pt x="441" y="0" on="1"/>
        <pt x="315" y="0" on="1"/>
        <pt x="315" y="279" on="1"/>
        <pt x="261" y="260" on="1"/>
        <pt x="150" y="0" on="1"/>
        <pt x="5" y="0" on="1"/>
        <pt x="119" y="238" on="1"/>
        <pt x="169" y="278" on="1"/>
        <pt x="116" y="293" on="0"/>
        <pt x="46" y="394" on="0"/>
        <pt x="46" y="485" on="1"/>
        <pt x="46" y="549" on="0"/>
        <pt x="82" y="635" on="0"/>
        <pt x="148" y="687" on="0"/>
        <pt x="240" y="710" on="0"/>
        <pt x="295" y="710" on="1"/>
        <pt x="308" y="710" on="0"/>
        <pt x="347" y="708" on="0"/>
        <pt x="387" y="704" on="0"/>
        <pt x="426" y="697" on="0"/>
        <pt x="441" y="693" on="1"/>
      </contour>
      <contour>
        <pt x="315" y="589" on="1"/>
        <pt x="306" y="592" on="0"/>
        <pt x="288" y="594" on="0"/>
        <pt x="275" y="594" on="1"/>
        <pt x="255" y="594" on="0"/>
        <pt x="219" y="583" on="0"/>
        <pt x="193" y="556" on="0"/>
        <pt x="178" y="512" on="0"/>
        <pt x="178" y="479" on="1"/>
        <pt x="178" y="416" on="0"/>
        <pt x="233" y="361" on="0"/>
        <pt x="277" y="361" on="1"/>
        <pt x="315" y="361" on="1"/>
      </contour>
    </TTGlyph>
    <TTGlyph name="afii10050" xMin="45" yMin="0" xMax="388" yMax="852">
      <contour>
        <pt x="388" y="584" on="1"/>
        <pt x="171" y="584" on="1"/>
        <pt x="171" y="0" on="1"/>
        <pt x="45" y="0" on="1"/>
        <pt x="45" y="700" on="1"/>
        <pt x="290" y="700" on="1"/>
        <pt x="307" y="852" on="1"/>
        <pt x="388" y="852" on="1"/>
      </contour>
    </TTGlyph>
    <TTGlyph name="afii10051" xMin="8" yMin="-7" xMax="585" yMax="700">
      <contour>
        <pt x="299" y="0" on="1"/>
        <pt x="173" y="0" on="1"/>
        <pt x="173" y="584" on="1"/>
        <pt x="8" y="584" on="1"/>
        <pt x="8" y="700" on="1"/>
        <pt x="464" y="700" on="1"/>
        <pt x="464" y="584" on="1"/>
        <pt x="299" y="584" on="1"/>
        <pt x="299" y="434" on="1"/>
        <pt x="313" y="441" on="0"/>
        <pt x="371" y="457" on="0"/>
        <pt x="414" y="457" on="1"/>
        <pt x="446" y="457" on="0"/>
        <pt x="508" y="437" on="0"/>
        <pt x="556" y="387" on="0"/>
        <pt x="585" y="299" on="0"/>
        <pt x="585" y="232" on="1"/>
        <pt x="585" y="174" on="0"/>
        <pt x="564" y="85" on="0"/>
        <pt x="518" y="24" on="0"/>
        <pt x="443" y="-7" on="0"/>
        <pt x="388" y="-7" on="1"/>
        <pt x="347" y="-7" on="0"/>
        <pt x="336" y="-3" on="1"/>
        <pt x="336" y="107" on="1"/>
        <pt x="343" y="106" on="0"/>
        <pt x="366" y="105" on="0"/>
        <pt x="378" y="105" on="1"/>
        <pt x="416" y="105" on="0"/>
        <pt x="453" y="162" on="0"/>
        <pt x="453" y="225" on="1"/>
        <pt x="453" y="261" on="0"/>
        <pt x="440" y="306" on="0"/>
        <pt x="418" y="331" on="0"/>
        <pt x="385" y="341" on="0"/>
        <pt x="366" y="341" on="1"/>
        <pt x="347" y="341" on="0"/>
        <pt x="309" y="327" on="0"/>
        <pt x="299" y="321" on="1"/>
      </contour>
    </TTGlyph>
    <TTGlyph name="afii10052" xMin="45" yMin="0" xMax="388" yMax="870">
      <component glyphName="afii10020" x="0" y="0" flags="0x204"/>
      <component glyphName="uniF6C9" x="95" y="0" flags="0x4"/>
    </TTGlyph>
    <TTGlyph name="afii10053" xMin="29" yMin="-14" xMax="446" yMax="714">
      <contour>
        <pt x="446" y="28" on="1"/>
        <pt x="433" y="17" on="0"/>
        <pt x="396" y="1" on="0"/>
        <pt x="353" y="-9" on="0"/>
        <pt x="307" y="-14" on="0"/>
        <pt x="286" y="-14" on="1"/>
        <pt x="232" y="-14" on="0"/>
        <pt x="139" y="23" on="0"/>
        <pt x="69" y="109" on="0"/>
        <pt x="29" y="249" on="0"/>
        <pt x="29" y="351" on="1"/>
        <pt x="29" y="457" on="0"/>
        <pt x="74" y="597" on="0"/>
        <pt x="147" y="680" on="0"/>
        <pt x="241" y="714" on="0"/>
        <pt x="289" y="714" on="1"/>
        <pt x="338" y="714" on="0"/>
        <pt x="415" y="698" on="0"/>
        <pt x="438" y="688" on="1"/>
        <pt x="413" y="577" on="1"/>
        <pt x="394" y="587" on="0"/>
        <pt x="339" y="598" on="0"/>
        <pt x="304" y="598" on="1"/>
        <pt x="244" y="598" on="0"/>
        <pt x="171" y="508" on="0"/>
        <pt x="162" y="412" on="1"/>
        <pt x="385" y="412" on="1"/>
        <pt x="385" y="308" on="1"/>
        <pt x="161" y="308" on="1"/>
        <pt x="164" y="262" on="0"/>
        <pt x="186" y="186" on="0"/>
        <pt x="223" y="132" on="0"/>
        <pt x="277" y="102" on="0"/>
        <pt x="313" y="102" on="1"/>
        <pt x="348" y="102" on="0"/>
        <pt x="401" y="121" on="0"/>
        <pt x="421" y="134" on="1"/>
      </contour>
    </TTGlyph>
    <TTGlyph name="afii10054" xMin="19" yMin="-14" xMax="416" yMax="714">
      <component glyphName="S" x="0" y="0" flags="0x204"/>
    </TTGlyph>
    <TTGlyph name="afii10055" xMin="56" yMin="0" xMax="182" yMax="700">
      <component glyphName="I" x="0" y="0" flags="0x204"/>
    </TTGlyph>
    <TTGlyph name="afii10055.alt" xMin="42" yMin="0" xMax="198" yMax="860">
      <component glyphName="I" x="0" y="0" flags="0x204"/>
      <component glyphName="uniF40B" x="-18" y="0" flags="0x4"/>
    </TTGlyph>
    <TTGlyph name="afii10056" xMin="8" yMin="0" xMax="237" yMax="856">
      <contour>
        <pt x="8" y="792" on="1"/>
        <pt x="8" y="856" on="0"/>
        <pt x="61" y="856" on="1"/>
        <pt x="114" y="856" on="0"/>
        <pt x="114" y="792" on="1"/>
        <pt x="114" y="730" on="0"/>
        <pt x="61" y="730" on="1"/>
        <pt x="8" y="730" on="0"/>
      </contour>
      <contour>
        <pt x="132" y="792" on="1"/>
        <pt x="132" y="856" on="0"/>
        <pt x="184" y="856" on="1"/>
        <pt x="237" y="856" on="0"/>
        <pt x="237" y="792" on="1"/>
        <pt x="237" y="730" on="0"/>
        <pt x="184" y="730" on="1"/>
        <pt x="132" y="730" on="0"/>
      </contour>
      <contour>
        <pt x="59" y="700" on="1"/>
        <pt x="185" y="700" on="1"/>
        <pt x="185" y="0" on="1"/>
        <pt x="59" y="0" on="1"/>
      </contour>
    </TTGlyph>
    <TTGlyph name="afii10057" xMin="-17" yMin="-12" xMax="239" yMax="700">
      <component glyphName="J" x="0" y="0" flags="0x204"/>
    </TTGlyph>
    <TTGlyph name="afii10058" xMin="-12" yMin="-10" xMax="757" yMax="700">
      <contour>
        <pt x="345" y="584" on="1"/>
        <pt x="239" y="584" on="1"/>
        <pt x="232" y="394" on="0"/>
        <pt x="208" y="139" on="0"/>
        <pt x="174" y="72" on="1"/>
        <pt x="162" y="48" on="0"/>
        <pt x="131" y="17" on="0"/>
        <pt x="100" y="0" on="0"/>
        <pt x="68" y="-7" on="0"/>
        <pt x="55" y="-7" on="1"/>
        <pt x="34" y="-7" on="0"/>
        <pt x="2" y="0" on="0"/>
        <pt x="-12" y="7" on="1"/>
        <pt x="2" y="121" on="1"/>
        <pt x="20" y="114" on="0"/>
        <pt x="56" y="127" on="0"/>
        <pt x="68" y="153" on="1"/>
        <pt x="80" y="175" on="0"/>
        <pt x="98" y="260" on="0"/>
        <pt x="111" y="394" on="0"/>
        <pt x="118" y="578" on="0"/>
        <pt x="120" y="700" on="1"/>
        <pt x="471" y="700" on="1"/>
        <pt x="471" y="448" on="1"/>
        <pt x="477" y="449" on="0"/>
        <pt x="496" y="453" on="0"/>
        <pt x="518" y="455" on="0"/>
        <pt x="542" y="457" on="0"/>
        <pt x="551" y="457" on="1"/>
        <pt x="593" y="457" on="0"/>
        <pt x="668" y="437" on="0"/>
        <pt x="724" y="387" on="0"/>
        <pt x="757" y="300" on="0"/>
        <pt x="757" y="233" on="1"/>
        <pt x="757" y="113" on="0"/>
        <pt x="641" y="-10" on="0"/>
        <pt x="516" y="-10" on="1"/>
        <pt x="505" y="-10" on="0"/>
        <pt x="464" y="-9" on="0"/>
        <pt x="416" y="-6" on="0"/>
        <pt x="366" y="1" on="0"/>
        <pt x="345" y="6" on="1"/>
      </contour>
      <contour>
        <pt x="471" y="112" on="1"/>
        <pt x="480" y="109" on="0"/>
        <pt x="509" y="106" on="0"/>
        <pt x="523" y="106" on="1"/>
        <pt x="570" y="106" on="0"/>
        <pt x="625" y="160" on="0"/>
        <pt x="625" y="227" on="1"/>
        <pt x="625" y="262" on="0"/>
        <pt x="609" y="307" on="0"/>
        <pt x="582" y="332" on="0"/>
        <pt x="545" y="341" on="0"/>
        <pt x="523" y="341" on="1"/>
        <pt x="512" y="341" on="0"/>
        <pt x="477" y="335" on="0"/>
        <pt x="471" y="332" on="1"/>
      </contour>
    </TTGlyph>
    <TTGlyph name="afii10059" xMin="45" yMin="-10" xMax="774" yMax="700">
      <contour>
        <pt x="171" y="700" on="1"/>
        <pt x="171" y="424" on="1"/>
        <pt x="362" y="424" on="1"/>
        <pt x="362" y="700" on="1"/>
        <pt x="488" y="700" on="1"/>
        <pt x="488" y="431" on="1"/>
        <pt x="492" y="432" on="0"/>
        <pt x="510" y="435" on="0"/>
        <pt x="533" y="437" on="0"/>
        <pt x="557" y="439" on="0"/>
        <pt x="566" y="439" on="1"/>
        <pt x="608" y="439" on="0"/>
        <pt x="683" y="422" on="0"/>
        <pt x="740" y="375" on="0"/>
        <pt x="774" y="291" on="0"/>
        <pt x="774" y="225" on="1"/>
        <pt x="774" y="104" on="0"/>
        <pt x="655" y="-10" on="0"/>
        <pt x="533" y="-10" on="1"/>
        <pt x="522" y="-10" on="0"/>
        <pt x="481" y="-9" on="0"/>
        <pt x="432" y="-6" on="0"/>
        <pt x="382" y="-1" on="0"/>
        <pt x="362" y="3" on="1"/>
        <pt x="362" y="308" on="1"/>
        <pt x="171" y="308" on="1"/>
        <pt x="171" y="0" on="1"/>
        <pt x="45" y="0" on="1"/>
        <pt x="45" y="700" on="1"/>
      </contour>
      <contour>
        <pt x="488" y="111" on="1"/>
        <pt x="496" y="109" on="0"/>
        <pt x="526" y="106" on="0"/>
        <pt x="540" y="106" on="1"/>
        <pt x="589" y="106" on="0"/>
        <pt x="642" y="157" on="0"/>
        <pt x="642" y="219" on="1"/>
        <pt x="642" y="251" on="0"/>
        <pt x="628" y="291" on="0"/>
        <pt x="601" y="314" on="0"/>
        <pt x="564" y="323" on="0"/>
        <pt x="541" y="323" on="1"/>
        <pt x="529" y="323" on="0"/>
        <pt x="493" y="317" on="0"/>
        <pt x="488" y="315" on="1"/>
      </contour>
    </TTGlyph>
    <TTGlyph name="afii10060" xMin="8" yMin="0" xMax="598" yMax="700">
      <contour>
        <pt x="299" y="0" on="1"/>
        <pt x="173" y="0" on="1"/>
        <pt x="173" y="584" on="1"/>
        <pt x="8" y="584" on="1"/>
        <pt x="8" y="700" on="1"/>
        <pt x="464" y="700" on="1"/>
        <pt x="464" y="584" on="1"/>
        <pt x="299" y="584" on="1"/>
        <pt x="299" y="402" on="1"/>
        <pt x="320" y="416" on="0"/>
        <pt x="392" y="442" on="0"/>
        <pt x="442" y="442" on="1"/>
        <pt x="478" y="442" on="0"/>
        <pt x="535" y="421" on="0"/>
        <pt x="576" y="374" on="0"/>
        <pt x="598" y="301" on="0"/>
        <pt x="598" y="249" on="1"/>
        <pt x="598" y="0" on="1"/>
        <pt x="472" y="0" on="1"/>
        <pt x="472" y="211" on="1"/>
        <pt x="472" y="273" on="0"/>
        <pt x="436" y="329" on="0"/>
        <pt x="394" y="329" on="1"/>
        <pt x="365" y="329" on="0"/>
        <pt x="314" y="311" on="0"/>
        <pt x="299" y="296" on="1"/>
      </contour>
    </TTGlyph>
    <TTGlyph name="afii10061" xMin="45" yMin="0" xMax="511" yMax="870">
      <component glyphName="K" x="0" y="0" flags="0x204"/>
      <component glyphName="uniF6C9" x="121" y="0" flags="0x4"/>
    </TTGlyph>
    <TTGlyph name="afii10062" xMin="-10" yMin="-7" xMax="488" yMax="874">
      <component glyphName="afii10037" x="0" y="0" flags="0x204"/>
      <component glyphName="uniF6D1" x="26" y="0" flags="0x4"/>
    </TTGlyph>
    <TTGlyph name="afii10065" xMin="17" yMin="-7" xMax="382" yMax="510">
      <component glyphName="a" x="0" y="0" flags="0x204"/>
    </TTGlyph>
    <TTGlyph name="afii10066" xMin="25" yMin="-14" xMax="420" yMax="727">
      <contour>
        <pt x="123" y="410" on="1"/>
        <pt x="146" y="453" on="0"/>
        <pt x="211" y="491" on="0"/>
        <pt x="256" y="491" on="1"/>
        <pt x="330" y="491" on="0"/>
        <pt x="420" y="382" on="0"/>
        <pt x="420" y="261" on="1"/>
        <pt x="420" y="121" on="0"/>
        <pt x="319" y="-14" on="0"/>
        <pt x="225" y="-14" on="1"/>
        <pt x="177" y="-14" on="0"/>
        <pt x="102" y="22" on="0"/>
        <pt x="51" y="98" on="0"/>
        <pt x="25" y="219" on="0"/>
        <pt x="25" y="303" on="1"/>
        <pt x="25" y="389" on="0"/>
        <pt x="42" y="511" on="0"/>
        <pt x="73" y="595" on="0"/>
        <pt x="116" y="645" on="0"/>
        <pt x="168" y="674" on="0"/>
        <pt x="228" y="686" on="0"/>
        <pt x="261" y="690" on="1"/>
        <pt x="304" y="695" on="0"/>
        <pt x="370" y="710" on="0"/>
        <pt x="385" y="727" on="1"/>
        <pt x="387" y="615" on="1"/>
        <pt x="371" y="598" on="0"/>
        <pt x="308" y="583" on="0"/>
        <pt x="257" y="579" on="1"/>
        <pt x="226" y="576" on="0"/>
        <pt x="179" y="559" on="0"/>
        <pt x="146" y="522" on="0"/>
        <pt x="125" y="459" on="0"/>
        <pt x="120" y="410" on="1"/>
      </contour>
      <contour>
        <pt x="148" y="244" on="1"/>
        <pt x="148" y="172" on="0"/>
        <pt x="184" y="92" on="0"/>
        <pt x="222" y="92" on="1"/>
        <pt x="262" y="92" on="0"/>
        <pt x="297" y="164" on="0"/>
        <pt x="297" y="244" on="1"/>
        <pt x="297" y="313" on="0"/>
        <pt x="265" y="385" on="0"/>
        <pt x="227" y="385" on="1"/>
        <pt x="186" y="385" on="0"/>
        <pt x="148" y="313" on="0"/>
      </contour>
    </TTGlyph>
    <TTGlyph name="afii10067" xMin="43" yMin="-7" xMax="393" yMax="507">
      <contour>
        <pt x="43" y="499" on="1"/>
        <pt x="71" y="502" on="0"/>
        <pt x="158" y="507" on="0"/>
        <pt x="205" y="507" on="1"/>
        <pt x="299" y="507" on="0"/>
        <pt x="377" y="445" on="0"/>
        <pt x="377" y="382" on="1"/>
        <pt x="377" y="346" on="0"/>
        <pt x="343" y="281" on="0"/>
        <pt x="308" y="266" on="1"/>
        <pt x="308" y="262" on="1"/>
        <pt x="393" y="239" on="0"/>
        <pt x="393" y="142" on="1"/>
        <pt x="393" y="67" on="0"/>
        <pt x="297" y="-7" on="0"/>
        <pt x="189" y="-7" on="1"/>
        <pt x="154" y="-7" on="0"/>
        <pt x="71" y="-3" on="0"/>
        <pt x="43" y="1" on="1"/>
      </contour>
      <contour>
        <pt x="159" y="96" on="1"/>
        <pt x="169" y="94" on="0"/>
        <pt x="187" y="93" on="0"/>
        <pt x="200" y="93" on="1"/>
        <pt x="239" y="93" on="0"/>
        <pt x="274" y="124" on="0"/>
        <pt x="274" y="157" on="1"/>
        <pt x="274" y="184" on="0"/>
        <pt x="244" y="217" on="0"/>
        <pt x="208" y="217" on="1"/>
        <pt x="159" y="217" on="1"/>
      </contour>
      <contour>
        <pt x="208" y="296" on="1"/>
        <pt x="232" y="296" on="0"/>
        <pt x="263" y="326" on="0"/>
        <pt x="263" y="351" on="1"/>
        <pt x="263" y="380" on="0"/>
        <pt x="238" y="407" on="0"/>
        <pt x="204" y="407" on="1"/>
        <pt x="187" y="407" on="0"/>
        <pt x="167" y="406" on="0"/>
        <pt x="159" y="405" on="1"/>
        <pt x="159" y="296" on="1"/>
      </contour>
    </TTGlyph>
    <TTGlyph name="afii10068" xMin="43" yMin="0" xMax="314" yMax="500">
      <contour>
        <pt x="314" y="391" on="1"/>
        <pt x="162" y="391" on="1"/>
        <pt x="162" y="0" on="1"/>
        <pt x="43" y="0" on="1"/>
        <pt x="43" y="500" on="1"/>
        <pt x="314" y="500" on="1"/>
      </contour>
    </TTGlyph>
    <TTGlyph name="afii10069" xMin="-2" yMin="-114" xMax="466" yMax="500">
      <contour>
        <pt x="466" y="-114" on="1"/>
        <pt x="378" y="-114" on="1"/>
        <pt x="365" y="0" on="1"/>
        <pt x="98" y="0" on="1"/>
        <pt x="85" y="-114" on="1"/>
        <pt x="-2" y="-114" on="1"/>
        <pt x="-2" y="109" on="1"/>
        <pt x="46" y="109" on="1"/>
        <pt x="52" y="120" on="0"/>
        <pt x="72" y="175" on="0"/>
        <pt x="91" y="269" on="0"/>
        <pt x="105" y="407" on="0"/>
        <pt x="105" y="500" on="1"/>
        <pt x="406" y="500" on="1"/>
        <pt x="406" y="109" on="1"/>
        <pt x="466" y="109" on="1"/>
      </contour>
      <contour>
        <pt x="287" y="103" on="1"/>
        <pt x="287" y="394" on="1"/>
        <pt x="211" y="394" on="1"/>
        <pt x="209" y="358" on="0"/>
        <pt x="202" y="274" on="0"/>
        <pt x="190" y="195" on="0"/>
        <pt x="175" y="125" on="0"/>
        <pt x="165" y="103" on="1"/>
      </contour>
    </TTGlyph>
    <TTGlyph name="afii10070" xMin="25" yMin="-13" xMax="395" yMax="514">
      <component glyphName="e" x="0" y="0" flags="0x204"/>
    </TTGlyph>
    <TTGlyph name="afii10071" xMin="25" yMin="-13" xMax="395" yMax="700">
      <component glyphName="e" x="0" y="0" flags="0x204"/>
      <component glyphName="dieresis" x="4" y="-19" flags="0x4"/>
    </TTGlyph>
    <TTGlyph name="afii10072" xMin="-4" yMin="0" xMax="586" yMax="500">
      <contour>
        <pt x="201" y="203" on="1"/>
        <pt x="128" y="0" on="1"/>
        <pt x="-4" y="0" on="1"/>
        <pt x="96" y="229" on="1"/>
        <pt x="125" y="259" on="1"/>
        <pt x="83" y="297" on="1"/>
        <pt x="5" y="500" on="1"/>
        <pt x="131" y="500" on="1"/>
        <pt x="198" y="297" on="1"/>
        <pt x="232" y="297" on="1"/>
        <pt x="232" y="500" on="1"/>
        <pt x="345" y="500" on="1"/>
        <pt x="345" y="287" on="1"/>
        <pt x="375" y="301" on="1"/>
        <pt x="442" y="500" on="1"/>
        <pt x="568" y="500" on="1"/>
        <pt x="485" y="297" on="1"/>
        <pt x="452" y="265" on="1"/>
        <pt x="494" y="225" on="1"/>
        <pt x="586" y="0" on="1"/>
        <pt x="451" y="0" on="1"/>
        <pt x="378" y="207" on="1"/>
        <pt x="345" y="207" on="1"/>
        <pt x="345" y="0" on="1"/>
        <pt x="232" y="0" on="1"/>
        <pt x="232" y="217" on="1"/>
      </contour>
    </TTGlyph>
    <TTGlyph name="afii10073" xMin="14" yMin="-10" xMax="329" yMax="508">
      <contour>
        <pt x="85" y="208" on="1"/>
        <pt x="85" y="297" on="1"/>
        <pt x="133" y="297" on="1"/>
        <pt x="160" y="297" on="0"/>
        <pt x="194" y="329" on="0"/>
        <pt x="194" y="352" on="1"/>
        <pt x="194" y="402" on="0"/>
        <pt x="132" y="402" on="1"/>
        <pt x="102" y="402" on="0"/>
        <pt x="56" y="386" on="0"/>
        <pt x="42" y="377" on="1"/>
        <pt x="15" y="472" on="1"/>
        <pt x="41" y="487" on="0"/>
        <pt x="125" y="508" on="0"/>
        <pt x="170" y="508" on="1"/>
        <pt x="313" y="508" on="0"/>
        <pt x="313" y="384" on="1"/>
        <pt x="313" y="347" on="0"/>
        <pt x="281" y="282" on="0"/>
        <pt x="249" y="268" on="1"/>
        <pt x="249" y="264" on="1"/>
        <pt x="291" y="252" on="0"/>
        <pt x="329" y="192" on="0"/>
        <pt x="329" y="141" on="1"/>
        <pt x="329" y="109" on="0"/>
        <pt x="308" y="54" on="0"/>
        <pt x="264" y="14" on="0"/>
        <pt x="197" y="-10" on="0"/>
        <pt x="151" y="-10" on="1"/>
        <pt x="106" y="-10" on="0"/>
        <pt x="37" y="9" on="0"/>
        <pt x="14" y="23" on="1"/>
        <pt x="38" y="120" on="1"/>
        <pt x="57" y="109" on="0"/>
        <pt x="108" y="96" on="0"/>
        <pt x="137" y="96" on="1"/>
        <pt x="210" y="96" on="0"/>
        <pt x="210" y="155" on="1"/>
        <pt x="210" y="180" on="0"/>
        <pt x="173" y="208" on="0"/>
        <pt x="123" y="208" on="1"/>
      </contour>
    </TTGlyph>
    <TTGlyph name="afii10074" xMin="43" yMin="0" xMax="407" yMax="500">
      <contour>
        <pt x="288" y="218" on="1"/>
        <pt x="297" y="299" on="1"/>
        <pt x="294" y="299" on="1"/>
        <pt x="257" y="214" on="1"/>
        <pt x="123" y="0" on="1"/>
        <pt x="43" y="0" on="1"/>
        <pt x="43" y="500" on="1"/>
        <pt x="162" y="500" on="1"/>
        <pt x="162" y="273" on="1"/>
        <pt x="153" y="195" on="1"/>
        <pt x="156" y="195" on="1"/>
        <pt x="192" y="278" on="1"/>
        <pt x="327" y="500" on="1"/>
        <pt x="407" y="500" on="1"/>
        <pt x="407" y="0" on="1"/>
        <pt x="288" y="0" on="1"/>
      </contour>
    </TTGlyph>
    <TTGlyph name="afii10075" xMin="43" yMin="0" xMax="407" yMax="704">
      <component glyphName="afii10074" x="0" y="0" flags="0x204"/>
      <component glyphName="uniF6D4" x="25" y="0" flags="0x4"/>
    </TTGlyph>
    <TTGlyph name="afii10076" xMin="43" yMin="0" xMax="412" yMax="500">
      <contour>
        <pt x="189" y="207" on="1"/>
        <pt x="162" y="207" on="1"/>
        <pt x="162" y="0" on="1"/>
        <pt x="43" y="0" on="1"/>
        <pt x="43" y="500" on="1"/>
        <pt x="162" y="500" on="1"/>
        <pt x="162" y="287" on="1"/>
        <pt x="186" y="301" on="1"/>
        <pt x="270" y="500" on="1"/>
        <pt x="398" y="500" on="1"/>
        <pt x="307" y="308" on="1"/>
        <pt x="263" y="269" on="1"/>
        <pt x="311" y="230" on="1"/>
        <pt x="412" y="0" on="1"/>
        <pt x="278" y="0" on="1"/>
      </contour>
    </TTGlyph>
    <TTGlyph name="afii10077" xMin="-15" yMin="-6" xMax="390" yMax="500">
      <contour>
        <pt x="271" y="391" on="1"/>
        <pt x="199" y="391" on="1"/>
        <pt x="195" y="304" on="0"/>
        <pt x="181" y="158" on="0"/>
        <pt x="151" y="53" on="0"/>
        <pt x="100" y="-6" on="0"/>
        <pt x="59" y="-6" on="1"/>
        <pt x="34" y="-6" on="0"/>
        <pt x="-2" y="1" on="0"/>
        <pt x="-15" y="9" on="1"/>
        <pt x="-1" y="113" on="1"/>
        <pt x="23" y="105" on="0"/>
        <pt x="56" y="123" on="0"/>
        <pt x="78" y="204" on="0"/>
        <pt x="91" y="364" on="0"/>
        <pt x="94" y="500" on="1"/>
        <pt x="390" y="500" on="1"/>
        <pt x="390" y="0" on="1"/>
        <pt x="271" y="0" on="1"/>
      </contour>
    </TTGlyph>
    <TTGlyph name="afii10078" xMin="43" yMin="0" xMax="512" yMax="500">
      <contour>
        <pt x="399" y="230" on="1"/>
        <pt x="406" y="333" on="1"/>
        <pt x="401" y="333" on="1"/>
        <pt x="371" y="240" on="1"/>
        <pt x="298" y="90" on="1"/>
        <pt x="253" y="90" on="1"/>
        <pt x="173" y="240" on="1"/>
        <pt x="142" y="333" on="1"/>
        <pt x="136" y="333" on="1"/>
        <pt x="149" y="230" on="1"/>
        <pt x="149" y="0" on="1"/>
        <pt x="43" y="0" on="1"/>
        <pt x="43" y="500" on="1"/>
        <pt x="168" y="500" on="1"/>
        <pt x="259" y="316" on="1"/>
        <pt x="279" y="249" on="1"/>
        <pt x="283" y="249" on="1"/>
        <pt x="304" y="318" on="1"/>
        <pt x="388" y="500" on="1"/>
        <pt x="512" y="500" on="1"/>
        <pt x="512" y="0" on="1"/>
        <pt x="399" y="0" on="1"/>
      </contour>
    </TTGlyph>
    <TTGlyph name="afii10079" xMin="43" yMin="0" xMax="401" yMax="500">
      <contour>
        <pt x="282" y="199" on="1"/>
        <pt x="162" y="199" on="1"/>
        <pt x="162" y="0" on="1"/>
        <pt x="43" y="0" on="1"/>
        <pt x="43" y="500" on="1"/>
        <pt x="162" y="500" on="1"/>
        <pt x="162" y="308" on="1"/>
        <pt x="282" y="308" on="1"/>
        <pt x="282" y="500" on="1"/>
        <pt x="401" y="500" on="1"/>
        <pt x="401" y="0" on="1"/>
        <pt x="282" y="0" on="1"/>
      </contour>
    </TTGlyph>
    <TTGlyph name="afii10080" xMin="25" yMin="-13" xMax="420" yMax="513">
      <component glyphName="o" x="0" y="0" flags="0x204"/>
    </TTGlyph>
    <TTGlyph name="afii10081" xMin="43" yMin="0" xMax="397" yMax="500">
      <contour>
        <pt x="278" y="391" on="1"/>
        <pt x="162" y="391" on="1"/>
        <pt x="162" y="0" on="1"/>
        <pt x="43" y="0" on="1"/>
        <pt x="43" y="500" on="1"/>
        <pt x="397" y="500" on="1"/>
        <pt x="397" y="0" on="1"/>
        <pt x="278" y="0" on="1"/>
      </contour>
    </TTGlyph>
    <TTGlyph name="afii10082" xMin="43" yMin="-200" xMax="422" yMax="512">
      <component glyphName="p" x="0" y="0" flags="0x204"/>
    </TTGlyph>
    <TTGlyph name="afii10083" xMin="25" yMin="-13" xMax="338" yMax="513">
      <component glyphName="c" x="0" y="0" flags="0x204"/>
    </TTGlyph>
    <TTGlyph name="afii10084" xMin="1" yMin="0" xMax="344" yMax="500">
      <contour>
        <pt x="344" y="391" on="1"/>
        <pt x="234" y="391" on="1"/>
        <pt x="234" y="0" on="1"/>
        <pt x="115" y="0" on="1"/>
        <pt x="115" y="391" on="1"/>
        <pt x="1" y="391" on="1"/>
        <pt x="1" y="500" on="1"/>
        <pt x="344" y="500" on="1"/>
      </contour>
    </TTGlyph>
    <TTGlyph name="afii10085" xMin="-10" yMin="-205" xMax="410" yMax="500">
      <component glyphName="y" x="0" y="0" flags="0x204"/>
    </TTGlyph>
    <TTGlyph name="afii10086" xMin="21" yMin="-200" xMax="564" yMax="700">
      <contour>
        <pt x="233" y="-6" on="1"/>
        <pt x="219" y="-12" on="0"/>
        <pt x="188" y="-14" on="0"/>
        <pt x="176" y="-14" on="1"/>
        <pt x="101" y="-14" on="0"/>
        <pt x="21" y="114" on="0"/>
        <pt x="21" y="250" on="1"/>
        <pt x="21" y="381" on="0"/>
        <pt x="109" y="510" on="0"/>
        <pt x="193" y="510" on="1"/>
        <pt x="204" y="510" on="0"/>
        <pt x="224" y="508" on="0"/>
        <pt x="233" y="506" on="1"/>
        <pt x="233" y="700" on="1"/>
        <pt x="352" y="700" on="1"/>
        <pt x="352" y="505" on="1"/>
        <pt x="367" y="508" on="0"/>
        <pt x="389" y="510" on="0"/>
        <pt x="400" y="510" on="1"/>
        <pt x="441" y="510" on="0"/>
        <pt x="502" y="483" on="0"/>
        <pt x="543" y="423" on="0"/>
        <pt x="564" y="328" on="0"/>
        <pt x="564" y="260" on="1"/>
        <pt x="564" y="129" on="0"/>
        <pt x="478" y="-14" on="0"/>
        <pt x="397" y="-14" on="1"/>
        <pt x="389" y="-14" on="0"/>
        <pt x="360" y="-11" on="0"/>
        <pt x="352" y="-7" on="1"/>
        <pt x="352" y="-200" on="1"/>
        <pt x="233" y="-200" on="1"/>
      </contour>
      <contour>
        <pt x="373" y="410" on="1"/>
        <pt x="365" y="410" on="0"/>
        <pt x="354" y="407" on="0"/>
        <pt x="346" y="405" on="1"/>
        <pt x="346" y="89" on="1"/>
        <pt x="358" y="86" on="0"/>
        <pt x="377" y="86" on="1"/>
        <pt x="394" y="86" on="0"/>
        <pt x="420" y="103" on="0"/>
        <pt x="437" y="144" on="0"/>
        <pt x="445" y="210" on="0"/>
        <pt x="445" y="260" on="1"/>
        <pt x="445" y="302" on="0"/>
        <pt x="437" y="360" on="0"/>
        <pt x="419" y="395" on="0"/>
        <pt x="392" y="410" on="0"/>
      </contour>
      <contour>
        <pt x="208" y="86" on="1"/>
        <pt x="216" y="86" on="0"/>
        <pt x="230" y="89" on="0"/>
        <pt x="238" y="91" on="1"/>
        <pt x="238" y="406" on="1"/>
        <pt x="225" y="410" on="0"/>
        <pt x="210" y="410" on="1"/>
        <pt x="193" y="410" on="0"/>
        <pt x="167" y="395" on="0"/>
        <pt x="149" y="358" on="0"/>
        <pt x="140" y="296" on="0"/>
        <pt x="140" y="250" on="1"/>
        <pt x="140" y="165" on="0"/>
        <pt x="173" y="86" on="0"/>
      </contour>
    </TTGlyph>
    <TTGlyph name="afii10087" xMin="4" yMin="0" xMax="434" yMax="500">
      <component glyphName="x" x="0" y="0" flags="0x204"/>
    </TTGlyph>
    <TTGlyph name="afii10088" xMin="43" yMin="-114" xMax="454" yMax="500">
      <contour>
        <pt x="454" y="-114" on="1"/>
        <pt x="367" y="-114" on="1"/>
        <pt x="354" y="0" on="1"/>
        <pt x="43" y="0" on="1"/>
        <pt x="43" y="500" on="1"/>
        <pt x="162" y="500" on="1"/>
        <pt x="162" y="109" on="1"/>
        <pt x="275" y="109" on="1"/>
        <pt x="275" y="500" on="1"/>
        <pt x="394" y="500" on="1"/>
        <pt x="394" y="109" on="1"/>
        <pt x="454" y="109" on="1"/>
      </contour>
    </TTGlyph>
    <TTGlyph name="afii10089" xMin="24" yMin="0" xMax="376" yMax="500">
      <contour>
        <pt x="143" y="500" on="1"/>
        <pt x="143" y="366" on="1"/>
        <pt x="143" y="313" on="0"/>
        <pt x="162" y="266" on="0"/>
        <pt x="194" y="266" on="1"/>
        <pt x="216" y="266" on="0"/>
        <pt x="247" y="279" on="0"/>
        <pt x="257" y="287" on="1"/>
        <pt x="257" y="500" on="1"/>
        <pt x="376" y="500" on="1"/>
        <pt x="376" y="0" on="1"/>
        <pt x="257" y="0" on="1"/>
        <pt x="257" y="194" on="1"/>
        <pt x="245" y="184" on="0"/>
        <pt x="195" y="160" on="0"/>
        <pt x="153" y="160" on="1"/>
        <pt x="123" y="160" on="0"/>
        <pt x="75" y="175" on="0"/>
        <pt x="42" y="213" on="0"/>
        <pt x="24" y="275" on="0"/>
        <pt x="24" y="322" on="1"/>
        <pt x="24" y="500" on="1"/>
      </contour>
    </TTGlyph>
    <TTGlyph name="afii10090" xMin="43" yMin="0" xMax="584" yMax="500">
      <contour>
        <pt x="43" y="0" on="1"/>
        <pt x="43" y="500" on="1"/>
        <pt x="162" y="500" on="1"/>
        <pt x="162" y="109" on="1"/>
        <pt x="254" y="109" on="1"/>
        <pt x="254" y="500" on="1"/>
        <pt x="373" y="500" on="1"/>
        <pt x="373" y="109" on="1"/>
        <pt x="465" y="109" on="1"/>
        <pt x="465" y="500" on="1"/>
        <pt x="584" y="500" on="1"/>
        <pt x="584" y="0" on="1"/>
      </contour>
    </TTGlyph>
    <TTGlyph name="afii10091" xMin="43" yMin="-114" xMax="643" yMax="500">
      <contour>
        <pt x="643" y="-114" on="1"/>
        <pt x="555" y="-114" on="1"/>
        <pt x="543" y="0" on="1"/>
        <pt x="43" y="0" on="1"/>
        <pt x="43" y="500" on="1"/>
        <pt x="162" y="500" on="1"/>
        <pt x="162" y="109" on="1"/>
        <pt x="254" y="109" on="1"/>
        <pt x="254" y="500" on="1"/>
        <pt x="373" y="500" on="1"/>
        <pt x="373" y="109" on="1"/>
        <pt x="465" y="109" on="1"/>
        <pt x="465" y="500" on="1"/>
        <pt x="584" y="500" on="1"/>
        <pt x="584" y="109" on="1"/>
        <pt x="643" y="109" on="1"/>
      </contour>
    </TTGlyph>
    <TTGlyph name="afii10092" xMin="-5" yMin="-7" xMax="438" yMax="500">
      <contour>
        <pt x="204" y="105" on="1"/>
        <pt x="225" y="99" on="0"/>
        <pt x="247" y="99" on="1"/>
        <pt x="283" y="99" on="0"/>
        <pt x="315" y="131" on="0"/>
        <pt x="315" y="169" on="1"/>
        <pt x="315" y="239" on="0"/>
        <pt x="249" y="239" on="1"/>
        <pt x="225" y="239" on="0"/>
        <pt x="204" y="233" on="1"/>
      </contour>
      <contour>
        <pt x="204" y="322" on="1"/>
        <pt x="224" y="326" on="0"/>
        <pt x="264" y="329" on="0"/>
        <pt x="281" y="329" on="1"/>
        <pt x="323" y="329" on="0"/>
        <pt x="383" y="306" on="0"/>
        <pt x="421" y="265" on="0"/>
        <pt x="438" y="208" on="0"/>
        <pt x="438" y="174" on="1"/>
        <pt x="438" y="129" on="0"/>
        <pt x="417" y="61" on="0"/>
        <pt x="369" y="16" on="0"/>
        <pt x="290" y="-7" on="0"/>
        <pt x="232" y="-7" on="1"/>
        <pt x="185" y="-7" on="0"/>
        <pt x="114" y="-3" on="0"/>
        <pt x="85" y="0" on="1"/>
        <pt x="85" y="391" on="1"/>
        <pt x="-5" y="391" on="1"/>
        <pt x="-5" y="500" on="1"/>
        <pt x="204" y="500" on="1"/>
      </contour>
    </TTGlyph>
    <TTGlyph name="afii10093" xMin="43" yMin="-7" xMax="549" yMax="500">
      <contour>
        <pt x="162" y="105" on="1"/>
        <pt x="183" y="99" on="0"/>
        <pt x="205" y="99" on="1"/>
        <pt x="237" y="99" on="0"/>
        <pt x="264" y="132" on="0"/>
        <pt x="264" y="170" on="1"/>
        <pt x="264" y="205" on="0"/>
        <pt x="238" y="239" on="0"/>
        <pt x="206" y="239" on="1"/>
        <pt x="183" y="239" on="0"/>
        <pt x="162" y="233" on="1"/>
      </contour>
      <contour>
        <pt x="162" y="322" on="1"/>
        <pt x="182" y="326" on="0"/>
        <pt x="224" y="329" on="0"/>
        <pt x="241" y="329" on="1"/>
        <pt x="282" y="329" on="0"/>
        <pt x="338" y="306" on="0"/>
        <pt x="372" y="264" on="0"/>
        <pt x="387" y="207" on="0"/>
        <pt x="387" y="174" on="1"/>
        <pt x="387" y="129" on="0"/>
        <pt x="367" y="61" on="0"/>
        <pt x="321" y="16" on="0"/>
        <pt x="247" y="-7" on="0"/>
        <pt x="192" y="-7" on="1"/>
        <pt x="144" y="-7" on="0"/>
        <pt x="71" y="-3" on="0"/>
        <pt x="43" y="0" on="1"/>
        <pt x="43" y="500" on="1"/>
        <pt x="162" y="500" on="1"/>
      </contour>
      <contour>
        <pt x="430" y="500" on="1"/>
        <pt x="549" y="500" on="1"/>
        <pt x="549" y="0" on="1"/>
        <pt x="430" y="0" on="1"/>
      </contour>
    </TTGlyph>
    <TTGlyph name="afii10094" xMin="43" yMin="-7" xMax="395" yMax="500">
      <contour>
        <pt x="162" y="105" on="1"/>
        <pt x="183" y="99" on="0"/>
        <pt x="206" y="99" on="1"/>
        <pt x="241" y="99" on="0"/>
        <pt x="272" y="131" on="0"/>
        <pt x="272" y="169" on="1"/>
        <pt x="272" y="203" on="0"/>
        <pt x="242" y="239" on="0"/>
        <pt x="208" y="239" on="1"/>
        <pt x="182" y="239" on="0"/>
        <pt x="162" y="232" on="1"/>
      </contour>
      <contour>
        <pt x="162" y="322" on="1"/>
        <pt x="182" y="326" on="0"/>
        <pt x="224" y="329" on="0"/>
        <pt x="241" y="329" on="1"/>
        <pt x="283" y="329" on="0"/>
        <pt x="342" y="306" on="0"/>
        <pt x="379" y="264" on="0"/>
        <pt x="395" y="207" on="0"/>
        <pt x="395" y="174" on="1"/>
        <pt x="395" y="129" on="0"/>
        <pt x="374" y="61" on="0"/>
        <pt x="328" y="16" on="0"/>
        <pt x="252" y="-7" on="0"/>
        <pt x="197" y="-7" on="1"/>
        <pt x="145" y="-7" on="0"/>
        <pt x="71" y="-3" on="0"/>
        <pt x="43" y="0" on="1"/>
        <pt x="43" y="500" on="1"/>
        <pt x="162" y="500" on="1"/>
      </contour>
    </TTGlyph>
    <TTGlyph name="afii10095" xMin="15" yMin="-13" xMax="352" yMax="514">
      <contour>
        <pt x="85" y="298" on="1"/>
        <pt x="229" y="298" on="1"/>
        <pt x="226" y="352" on="0"/>
        <pt x="187" y="408" on="0"/>
        <pt x="143" y="408" on="1"/>
        <pt x="112" y="408" on="0"/>
        <pt x="66" y="395" on="0"/>
        <pt x="49" y="384" on="1"/>
        <pt x="17" y="474" on="1"/>
        <pt x="71" y="514" on="0"/>
        <pt x="166" y="514" on="1"/>
        <pt x="258" y="514" on="0"/>
        <pt x="352" y="384" on="0"/>
        <pt x="352" y="250" on="1"/>
        <pt x="352" y="116" on="0"/>
        <pt x="249" y="-13" on="0"/>
        <pt x="155" y="-13" on="1"/>
        <pt x="118" y="-13" on="0"/>
        <pt x="39" y="2" on="0"/>
        <pt x="15" y="16" on="1"/>
        <pt x="43" y="115" on="1"/>
        <pt x="84" y="93" on="0"/>
        <pt x="137" y="93" on="1"/>
        <pt x="186" y="93" on="0"/>
        <pt x="227" y="148" on="0"/>
        <pt x="229" y="208" on="1"/>
        <pt x="85" y="208" on="1"/>
      </contour>
    </TTGlyph>
    <TTGlyph name="afii10096" xMin="43" yMin="-12" xMax="586" yMax="512">
      <contour>
        <pt x="400" y="-12" on="1"/>
        <pt x="307" y="-12" on="0"/>
        <pt x="226" y="100" on="0"/>
        <pt x="219" y="204" on="1"/>
        <pt x="162" y="204" on="1"/>
        <pt x="162" y="0" on="1"/>
        <pt x="43" y="0" on="1"/>
        <pt x="43" y="500" on="1"/>
        <pt x="162" y="500" on="1"/>
        <pt x="162" y="310" on="1"/>
        <pt x="220" y="310" on="1"/>
        <pt x="229" y="410" on="0"/>
        <pt x="314" y="512" on="0"/>
        <pt x="402" y="512" on="1"/>
        <pt x="498" y="512" on="0"/>
        <pt x="586" y="375" on="0"/>
        <pt x="586" y="250" on="1"/>
        <pt x="586" y="-12" on="0"/>
      </contour>
      <contour>
        <pt x="332" y="250" on="1"/>
        <pt x="332" y="173" on="0"/>
        <pt x="362" y="94" on="0"/>
        <pt x="400" y="94" on="1"/>
        <pt x="416" y="94" on="0"/>
        <pt x="440" y="108" on="0"/>
        <pt x="456" y="144" on="0"/>
        <pt x="463" y="204" on="0"/>
        <pt x="463" y="250" on="1"/>
        <pt x="463" y="332" on="0"/>
        <pt x="435" y="406" on="0"/>
        <pt x="398" y="406" on="1"/>
        <pt x="364" y="406" on="0"/>
        <pt x="332" y="337" on="0"/>
      </contour>
    </TTGlyph>
    <TTGlyph name="afii10097" xMin="7" yMin="0" xMax="381" yMax="514">
      <contour>
        <pt x="262" y="189" on="1"/>
        <pt x="217" y="177" on="1"/>
        <pt x="146" y="0" on="1"/>
        <pt x="7" y="0" on="1"/>
        <pt x="83" y="161" on="1"/>
        <pt x="122" y="193" on="1"/>
        <pt x="82" y="203" on="0"/>
        <pt x="32" y="279" on="0"/>
        <pt x="32" y="337" on="1"/>
        <pt x="32" y="428" on="0"/>
        <pt x="132" y="514" on="0"/>
        <pt x="241" y="513" on="1"/>
        <pt x="283" y="513" on="0"/>
        <pt x="356" y="505" on="0"/>
        <pt x="381" y="499" on="1"/>
        <pt x="381" y="0" on="1"/>
        <pt x="262" y="0" on="1"/>
      </contour>
      <contour>
        <pt x="262" y="256" on="1"/>
        <pt x="262" y="400" on="1"/>
        <pt x="247" y="407" on="0"/>
        <pt x="225" y="407" on="1"/>
        <pt x="155" y="407" on="0"/>
        <pt x="155" y="330" on="1"/>
        <pt x="155" y="256" on="0"/>
        <pt x="234" y="254" on="1"/>
      </contour>
    </TTGlyph>
    <TTGlyph name="afii10098" xMin="43" yMin="0" xMax="314" yMax="652">
      <contour>
        <pt x="314" y="391" on="1"/>
        <pt x="162" y="391" on="1"/>
        <pt x="162" y="0" on="1"/>
        <pt x="43" y="0" on="1"/>
        <pt x="43" y="500" on="1"/>
        <pt x="216" y="500" on="1"/>
        <pt x="233" y="652" on="1"/>
        <pt x="314" y="652" on="1"/>
      </contour>
    </TTGlyph>
    <TTGlyph name="afii10099" xMin="-8" yMin="-206" xMax="418" yMax="700">
      <contour>
        <pt x="51" y="700" on="1"/>
        <pt x="170" y="700" on="1"/>
        <pt x="170" y="600" on="1"/>
        <pt x="303" y="600" on="1"/>
        <pt x="303" y="521" on="1"/>
        <pt x="170" y="521" on="1"/>
        <pt x="170" y="397" on="1"/>
        <pt x="174" y="397" on="1"/>
        <pt x="192" y="426" on="0"/>
        <pt x="250" y="460" on="0"/>
        <pt x="295" y="460" on="1"/>
        <pt x="325" y="460" on="0"/>
        <pt x="371" y="442" on="0"/>
        <pt x="402" y="401" on="0"/>
        <pt x="418" y="333" on="0"/>
        <pt x="418" y="283" on="1"/>
        <pt x="418" y="-31" on="1"/>
        <pt x="418" y="-115" on="0"/>
        <pt x="356" y="-206" on="0"/>
        <pt x="287" y="-206" on="1"/>
        <pt x="274" y="-206" on="0"/>
        <pt x="245" y="-203" on="0"/>
        <pt x="229" y="-199" on="1"/>
        <pt x="229" y="-97" on="1"/>
        <pt x="272" y="-101" on="0"/>
        <pt x="299" y="-48" on="0"/>
        <pt x="299" y="3" on="1"/>
        <pt x="299" y="253" on="1"/>
        <pt x="299" y="308" on="0"/>
        <pt x="274" y="351" on="0"/>
        <pt x="242" y="351" on="1"/>
        <pt x="218" y="351" on="0"/>
        <pt x="178" y="320" on="0"/>
        <pt x="170" y="295" on="1"/>
        <pt x="170" y="0" on="1"/>
        <pt x="51" y="0" on="1"/>
        <pt x="51" y="521" on="1"/>
        <pt x="-8" y="521" on="1"/>
        <pt x="-8" y="600" on="1"/>
        <pt x="51" y="600" on="1"/>
      </contour>
    </TTGlyph>
    <TTGlyph name="afii10100" xMin="43" yMin="0" xMax="314" yMax="720">
      <component glyphName="afii10068" x="0" y="0" flags="0x204"/>
      <component glyphName="acute" x="70" y="0" flags="0x4"/>
    </TTGlyph>
    <TTGlyph name="afii10101" xMin="27" yMin="-12" xMax="356" yMax="512">
      <contour>
        <pt x="356" y="25" on="1"/>
        <pt x="333" y="7" on="0"/>
        <pt x="257" y="-12" on="0"/>
        <pt x="221" y="-12" on="1"/>
        <pt x="171" y="-12" on="0"/>
        <pt x="98" y="25" on="0"/>
        <pt x="50" y="94" on="0"/>
        <pt x="27" y="191" on="0"/>
        <pt x="27" y="250" on="1"/>
        <pt x="27" y="377" on="0"/>
        <pt x="134" y="512" on="0"/>
        <pt x="226" y="512" on="1"/>
        <pt x="271" y="512" on="0"/>
        <pt x="330" y="498" on="0"/>
        <pt x="352" y="486" on="1"/>
        <pt x="323" y="385" on="1"/>
        <pt x="304" y="395" on="0"/>
        <pt x="266" y="403" on="0"/>
        <pt x="244" y="403" on="1"/>
        <pt x="209" y="403" on="0"/>
        <pt x="159" y="352" on="0"/>
        <pt x="151" y="296" on="1"/>
        <pt x="302" y="296" on="1"/>
        <pt x="302" y="210" on="1"/>
        <pt x="150" y="210" on="1"/>
        <pt x="156" y="159" on="0"/>
        <pt x="205" y="97" on="0"/>
        <pt x="250" y="97" on="1"/>
        <pt x="275" y="97" on="0"/>
        <pt x="315" y="109" on="0"/>
        <pt x="331" y="119" on="1"/>
      </contour>
    </TTGlyph>
    <TTGlyph name="afii10102" xMin="19" yMin="-13" xMax="330" yMax="513">
      <component glyphName="s" x="0" y="0" flags="0x204"/>
    </TTGlyph>
    <TTGlyph name="afii10103" xMin="38" yMin="0" xMax="188" yMax="710">
      <component glyphName="dotlessi" x="0" y="0" flags="0x204"/>
      <component glyphName="dotaccent" x="-22" y="0" flags="0x4"/>
    </TTGlyph>
    <TTGlyph name="afii10103.alt" xMin="53" yMin="0" xMax="172" yMax="500">
      <component glyphName="dotlessi" x="0" y="0" flags="0x204"/>
    </TTGlyph>
    <TTGlyph name="afii10104" xMin="16" yMin="0" xMax="259" yMax="709">
      <contour>
        <pt x="16" y="641" on="1"/>
        <pt x="16" y="673" on="0"/>
        <pt x="43" y="709" on="0"/>
        <pt x="72" y="709" on="1"/>
        <pt x="101" y="709" on="0"/>
        <pt x="127" y="673" on="0"/>
        <pt x="127" y="641" on="1"/>
        <pt x="127" y="612" on="0"/>
        <pt x="101" y="575" on="0"/>
        <pt x="72" y="575" on="1"/>
        <pt x="43" y="575" on="0"/>
        <pt x="16" y="612" on="0"/>
      </contour>
      <contour>
        <pt x="147" y="641" on="1"/>
        <pt x="147" y="673" on="0"/>
        <pt x="173" y="709" on="0"/>
        <pt x="202" y="709" on="1"/>
        <pt x="232" y="709" on="0"/>
        <pt x="259" y="673" on="0"/>
        <pt x="259" y="641" on="1"/>
        <pt x="259" y="612" on="0"/>
        <pt x="232" y="575" on="0"/>
        <pt x="202" y="575" on="1"/>
        <pt x="173" y="575" on="0"/>
        <pt x="147" y="612" on="0"/>
      </contour>
      <contour>
        <pt x="75" y="500" on="1"/>
        <pt x="194" y="500" on="1"/>
        <pt x="194" y="0" on="1"/>
        <pt x="75" y="0" on="1"/>
      </contour>
    </TTGlyph>
    <TTGlyph name="afii10105" xMin="-16" yMin="-208" xMax="188" yMax="710">
      <component glyphName="uni0237" x="0" y="0" flags="0x204"/>
      <component glyphName="dotaccent" x="-22" y="0" flags="0x4"/>
    </TTGlyph>
    <TTGlyph name="afii10106" xMin="-15" yMin="-7" xMax="623" yMax="500">
      <contour>
        <pt x="390" y="500" on="1"/>
        <pt x="390" y="322" on="1"/>
        <pt x="410" y="326" on="0"/>
        <pt x="452" y="329" on="0"/>
        <pt x="469" y="329" on="1"/>
        <pt x="511" y="329" on="0"/>
        <pt x="570" y="306" on="0"/>
        <pt x="607" y="264" on="0"/>
        <pt x="623" y="207" on="0"/>
        <pt x="623" y="174" on="1"/>
        <pt x="623" y="129" on="0"/>
        <pt x="602" y="61" on="0"/>
        <pt x="556" y="16" on="0"/>
        <pt x="480" y="-7" on="0"/>
        <pt x="425" y="-7" on="1"/>
        <pt x="373" y="-7" on="0"/>
        <pt x="299" y="-3" on="0"/>
        <pt x="271" y="0" on="1"/>
        <pt x="271" y="391" on="1"/>
        <pt x="200" y="391" on="1"/>
        <pt x="196" y="304" on="0"/>
        <pt x="182" y="158" on="0"/>
        <pt x="151" y="53" on="0"/>
        <pt x="100" y="-6" on="0"/>
        <pt x="59" y="-6" on="1"/>
        <pt x="34" y="-6" on="0"/>
        <pt x="-2" y="1" on="0"/>
        <pt x="-15" y="9" on="1"/>
        <pt x="-1" y="113" on="1"/>
        <pt x="23" y="105" on="0"/>
        <pt x="56" y="123" on="0"/>
        <pt x="78" y="204" on="0"/>
        <pt x="91" y="364" on="0"/>
        <pt x="94" y="500" on="1"/>
      </contour>
      <contour>
        <pt x="390" y="105" on="1"/>
        <pt x="411" y="99" on="0"/>
        <pt x="434" y="99" on="1"/>
        <pt x="469" y="99" on="0"/>
        <pt x="500" y="131" on="0"/>
        <pt x="500" y="169" on="1"/>
        <pt x="500" y="203" on="0"/>
        <pt x="470" y="239" on="0"/>
        <pt x="436" y="239" on="1"/>
        <pt x="410" y="239" on="0"/>
        <pt x="390" y="232" on="1"/>
      </contour>
    </TTGlyph>
    <TTGlyph name="afii10107" xMin="43" yMin="-7" xMax="635" yMax="500">
      <contour>
        <pt x="401" y="105" on="1"/>
        <pt x="422" y="99" on="0"/>
        <pt x="445" y="99" on="1"/>
        <pt x="480" y="99" on="0"/>
        <pt x="512" y="132" on="0"/>
        <pt x="512" y="170" on="1"/>
        <pt x="512" y="205" on="0"/>
        <pt x="481" y="235" on="0"/>
        <pt x="447" y="235" on="1"/>
        <pt x="422" y="235" on="0"/>
        <pt x="401" y="229" on="1"/>
      </contour>
      <contour>
        <pt x="401" y="320" on="1"/>
        <pt x="421" y="323" on="0"/>
        <pt x="463" y="326" on="0"/>
        <pt x="480" y="326" on="1"/>
        <pt x="522" y="326" on="0"/>
        <pt x="581" y="303" on="0"/>
        <pt x="618" y="263" on="0"/>
        <pt x="635" y="207" on="0"/>
        <pt x="635" y="174" on="1"/>
        <pt x="635" y="129" on="0"/>
        <pt x="614" y="61" on="0"/>
        <pt x="567" y="16" on="0"/>
        <pt x="491" y="-7" on="0"/>
        <pt x="436" y="-7" on="1"/>
        <pt x="384" y="-7" on="0"/>
        <pt x="310" y="-3" on="0"/>
        <pt x="282" y="0" on="1"/>
        <pt x="282" y="203" on="1"/>
        <pt x="162" y="203" on="1"/>
        <pt x="162" y="0" on="1"/>
        <pt x="43" y="0" on="1"/>
        <pt x="43" y="500" on="1"/>
        <pt x="162" y="500" on="1"/>
        <pt x="162" y="312" on="1"/>
        <pt x="282" y="312" on="1"/>
        <pt x="282" y="500" on="1"/>
        <pt x="401" y="500" on="1"/>
      </contour>
    </TTGlyph>
    <TTGlyph name="afii10108" xMin="-8" yMin="0" xMax="418" yMax="700">
      <contour>
        <pt x="-8" y="600" on="1"/>
        <pt x="51" y="600" on="1"/>
        <pt x="51" y="700" on="1"/>
        <pt x="170" y="700" on="1"/>
        <pt x="170" y="600" on="1"/>
        <pt x="303" y="600" on="1"/>
        <pt x="303" y="521" on="1"/>
        <pt x="170" y="521" on="1"/>
        <pt x="170" y="399" on="1"/>
        <pt x="174" y="399" on="1"/>
        <pt x="192" y="426" on="0"/>
        <pt x="250" y="460" on="0"/>
        <pt x="295" y="460" on="1"/>
        <pt x="325" y="460" on="0"/>
        <pt x="371" y="442" on="0"/>
        <pt x="402" y="400" on="0"/>
        <pt x="418" y="332" on="0"/>
        <pt x="418" y="282" on="1"/>
        <pt x="418" y="0" on="1"/>
        <pt x="299" y="0" on="1"/>
        <pt x="299" y="255" on="1"/>
        <pt x="299" y="306" on="0"/>
        <pt x="274" y="351" on="0"/>
        <pt x="242" y="351" on="1"/>
        <pt x="218" y="351" on="0"/>
        <pt x="178" y="319" on="0"/>
        <pt x="170" y="293" on="1"/>
        <pt x="170" y="0" on="1"/>
        <pt x="51" y="0" on="1"/>
        <pt x="51" y="521" on="1"/>
        <pt x="-8" y="521" on="1"/>
      </contour>
    </TTGlyph>
    <TTGlyph name="afii10109" xMin="43" yMin="0" xMax="412" yMax="720">
      <component glyphName="afii10076" x="0" y="0" flags="0x204"/>
      <component glyphName="acute" x="99" y="0" flags="0x4"/>
    </TTGlyph>
    <TTGlyph name="afii10110" xMin="-10" yMin="-205" xMax="410" yMax="704">
      <component glyphName="y" x="0" y="0" flags="0x204"/>
      <component glyphName="uniF6D4" x="2" y="0" flags="0x4"/>
    </TTGlyph>
    <TTGlyph name="afii10145" xMin="45" yMin="-175" xMax="479" yMax="700">
      <contour>
        <pt x="45" y="0" on="1"/>
        <pt x="45" y="700" on="1"/>
        <pt x="171" y="700" on="1"/>
        <pt x="171" y="116" on="1"/>
        <pt x="353" y="116" on="1"/>
        <pt x="353" y="700" on="1"/>
        <pt x="479" y="700" on="1"/>
        <pt x="479" y="0" on="1"/>
        <pt x="316" y="0" on="1"/>
        <pt x="304" y="-175" on="1"/>
        <pt x="222" y="-175" on="1"/>
        <pt x="206" y="0" on="1"/>
      </contour>
    </TTGlyph>
    <TTGlyph name="afii10146" xMin="0" yMin="-10" xMax="527" yMax="725">
      <contour>
        <pt x="0" y="645" on="1"/>
        <pt x="115" y="645" on="1"/>
        <pt x="115" y="725" on="1"/>
        <pt x="241" y="725" on="1"/>
        <pt x="241" y="645" on="1"/>
        <pt x="404" y="645" on="1"/>
        <pt x="404" y="536" on="1"/>
        <pt x="241" y="536" on="1"/>
        <pt x="241" y="441" on="1"/>
        <pt x="245" y="442" on="0"/>
        <pt x="264" y="445" on="0"/>
        <pt x="286" y="447" on="0"/>
        <pt x="309" y="449" on="0"/>
        <pt x="319" y="449" on="1"/>
        <pt x="361" y="449" on="0"/>
        <pt x="437" y="430" on="0"/>
        <pt x="494" y="382" on="0"/>
        <pt x="527" y="298" on="0"/>
        <pt x="527" y="232" on="1"/>
        <pt x="527" y="112" on="0"/>
        <pt x="411" y="-10" on="0"/>
        <pt x="286" y="-10" on="1"/>
        <pt x="275" y="-10" on="0"/>
        <pt x="234" y="-9" on="0"/>
        <pt x="186" y="-6" on="0"/>
        <pt x="136" y="1" on="0"/>
        <pt x="115" y="6" on="1"/>
        <pt x="115" y="536" on="1"/>
        <pt x="0" y="536" on="1"/>
      </contour>
      <contour>
        <pt x="241" y="112" on="1"/>
        <pt x="250" y="109" on="0"/>
        <pt x="279" y="106" on="0"/>
        <pt x="293" y="106" on="1"/>
        <pt x="339" y="106" on="0"/>
        <pt x="395" y="160" on="0"/>
        <pt x="395" y="227" on="1"/>
        <pt x="395" y="262" on="0"/>
        <pt x="379" y="306" on="0"/>
        <pt x="352" y="331" on="0"/>
        <pt x="315" y="340" on="0"/>
        <pt x="294" y="340" on="1"/>
        <pt x="283" y="340" on="0"/>
        <pt x="248" y="335" on="0"/>
        <pt x="241" y="332" on="1"/>
      </contour>
    </TTGlyph>
    <TTGlyph name="afii10147" xMin="29" yMin="-14" xMax="523" yMax="714">
      <contour>
        <pt x="29" y="350" on="1"/>
        <pt x="29" y="528" on="0"/>
        <pt x="151" y="714" on="0"/>
        <pt x="276" y="714" on="1"/>
        <pt x="341" y="714" on="0"/>
        <pt x="435" y="663" on="0"/>
        <pt x="495" y="568" on="0"/>
        <pt x="523" y="433" on="0"/>
        <pt x="523" y="350" on="1"/>
        <pt x="523" y="172" on="0"/>
        <pt x="399" y="-14" on="0"/>
        <pt x="276" y="-14" on="1"/>
        <pt x="210" y="-14" on="0"/>
        <pt x="117" y="37" on="0"/>
        <pt x="57" y="132" on="0"/>
        <pt x="29" y="267" on="0"/>
      </contour>
      <contour>
        <pt x="276" y="102" on="1"/>
        <pt x="328" y="102" on="0"/>
        <pt x="387" y="196" on="0"/>
        <pt x="392" y="299" on="1"/>
        <pt x="161" y="299" on="1"/>
        <pt x="164" y="255" on="0"/>
        <pt x="179" y="183" on="0"/>
        <pt x="207" y="131" on="0"/>
        <pt x="248" y="102" on="0"/>
      </contour>
      <contour>
        <pt x="391" y="405" on="1"/>
        <pt x="388" y="447" on="0"/>
        <pt x="373" y="517" on="0"/>
        <pt x="345" y="569" on="0"/>
        <pt x="304" y="598" on="0"/>
        <pt x="276" y="598" on="1"/>
        <pt x="173" y="598" on="0"/>
        <pt x="161" y="405" on="1"/>
      </contour>
    </TTGlyph>
    <TTGlyph name="afii10148" xMin="-12" yMin="-5" xMax="570" yMax="709">
      <contour>
        <pt x="297" y="-5" on="1"/>
        <pt x="201" y="-5" on="1"/>
        <pt x="-12" y="700" on="1"/>
        <pt x="136" y="700" on="1"/>
        <pt x="240" y="289" on="1"/>
        <pt x="254" y="169" on="1"/>
        <pt x="258" y="169" on="1"/>
        <pt x="271" y="290" on="1"/>
        <pt x="326" y="519" on="1"/>
        <pt x="339" y="574" on="0"/>
        <pt x="367" y="648" on="0"/>
        <pt x="402" y="691" on="0"/>
        <pt x="448" y="709" on="0"/>
        <pt x="478" y="709" on="1"/>
        <pt x="510" y="709" on="0"/>
        <pt x="552" y="697" on="0"/>
        <pt x="570" y="687" on="1"/>
        <pt x="544" y="575" on="1"/>
        <pt x="530" y="583" on="0"/>
        <pt x="509" y="588" on="0"/>
        <pt x="498" y="588" on="1"/>
        <pt x="478" y="588" on="0"/>
        <pt x="454" y="546" on="0"/>
        <pt x="444" y="508" on="1"/>
      </contour>
    </TTGlyph>
    <TTGlyph name="afii10193" xMin="43" yMin="-175" xMax="396" yMax="500">
      <contour>
        <pt x="43" y="0" on="1"/>
        <pt x="43" y="500" on="1"/>
        <pt x="162" y="500" on="1"/>
        <pt x="162" y="109" on="1"/>
        <pt x="277" y="109" on="1"/>
        <pt x="277" y="500" on="1"/>
        <pt x="396" y="500" on="1"/>
        <pt x="396" y="0" on="1"/>
        <pt x="274" y="0" on="1"/>
        <pt x="262" y="-175" on="1"/>
        <pt x="180" y="-175" on="1"/>
        <pt x="164" y="0" on="1"/>
      </contour>
    </TTGlyph>
    <TTGlyph name="afii10194" xMin="-5" yMin="-7" xMax="438" yMax="700">
      <contour>
        <pt x="-5" y="500" on="1"/>
        <pt x="85" y="500" on="1"/>
        <pt x="85" y="700" on="1"/>
        <pt x="204" y="700" on="1"/>
        <pt x="204" y="500" on="1"/>
        <pt x="336" y="500" on="1"/>
        <pt x="336" y="409" on="1"/>
        <pt x="204" y="409" on="1"/>
        <pt x="204" y="322" on="1"/>
        <pt x="224" y="326" on="0"/>
        <pt x="266" y="329" on="0"/>
        <pt x="283" y="329" on="1"/>
        <pt x="325" y="329" on="0"/>
        <pt x="384" y="306" on="0"/>
        <pt x="421" y="264" on="0"/>
        <pt x="438" y="207" on="0"/>
        <pt x="438" y="174" on="1"/>
        <pt x="438" y="129" on="0"/>
        <pt x="417" y="61" on="0"/>
        <pt x="369" y="16" on="0"/>
        <pt x="290" y="-7" on="0"/>
        <pt x="233" y="-7" on="1"/>
        <pt x="185" y="-7" on="0"/>
        <pt x="114" y="-3" on="0"/>
        <pt x="85" y="0" on="1"/>
        <pt x="85" y="409" on="1"/>
        <pt x="-5" y="409" on="1"/>
      </contour>
      <contour>
        <pt x="204" y="105" on="1"/>
        <pt x="225" y="99" on="0"/>
        <pt x="247" y="99" on="1"/>
        <pt x="283" y="99" on="0"/>
        <pt x="315" y="135" on="0"/>
        <pt x="315" y="171" on="1"/>
        <pt x="315" y="203" on="0"/>
        <pt x="284" y="238" on="0"/>
        <pt x="250" y="238" on="1"/>
        <pt x="225" y="238" on="0"/>
        <pt x="204" y="232" on="1"/>
      </contour>
    </TTGlyph>
    <TTGlyph name="afii10195" xMin="25" yMin="-14" xMax="420" yMax="514">
      <contour>
        <pt x="25" y="250" on="1"/>
        <pt x="25" y="379" on="0"/>
        <pt x="128" y="514" on="0"/>
        <pt x="222" y="514" on="1"/>
        <pt x="272" y="514" on="0"/>
        <pt x="346" y="477" on="0"/>
        <pt x="396" y="408" on="0"/>
        <pt x="420" y="311" on="0"/>
        <pt x="420" y="250" on="1"/>
        <pt x="420" y="120" on="0"/>
        <pt x="316" y="-14" on="0"/>
        <pt x="222" y="-14" on="1"/>
        <pt x="172" y="-14" on="0"/>
        <pt x="98" y="23" on="0"/>
        <pt x="49" y="92" on="0"/>
        <pt x="25" y="189" on="0"/>
      </contour>
      <contour>
        <pt x="297" y="289" on="1"/>
        <pt x="292" y="355" on="0"/>
        <pt x="254" y="408" on="0"/>
        <pt x="223" y="408" on="1"/>
        <pt x="194" y="408" on="0"/>
        <pt x="152" y="357" on="0"/>
        <pt x="148" y="289" on="1"/>
      </contour>
      <contour>
        <pt x="148" y="208" on="1"/>
        <pt x="151" y="147" on="0"/>
        <pt x="193" y="92" on="0"/>
        <pt x="222" y="92" on="1"/>
        <pt x="251" y="92" on="0"/>
        <pt x="293" y="141" on="0"/>
        <pt x="297" y="208" on="1"/>
      </contour>
    </TTGlyph>
    <TTGlyph name="afii10196" xMin="-9" yMin="-5" xMax="452" yMax="509">
      <contour>
        <pt x="130" y="500" on="1"/>
        <pt x="198" y="245" on="1"/>
        <pt x="211" y="161" on="1"/>
        <pt x="215" y="161" on="1"/>
        <pt x="225" y="246" on="1"/>
        <pt x="243" y="317" on="1"/>
        <pt x="255" y="369" on="0"/>
        <pt x="280" y="442" on="0"/>
        <pt x="311" y="488" on="0"/>
        <pt x="351" y="509" on="0"/>
        <pt x="378" y="509" on="1"/>
        <pt x="399" y="509" on="0"/>
        <pt x="438" y="500" on="0"/>
        <pt x="452" y="492" on="1"/>
        <pt x="435" y="389" on="1"/>
        <pt x="419" y="396" on="0"/>
        <pt x="409" y="396" on="1"/>
        <pt x="395" y="396" on="0"/>
        <pt x="369" y="368" on="0"/>
        <pt x="356" y="329" on="1"/>
        <pt x="246" y="-5" on="1"/>
        <pt x="170" y="-5" on="1"/>
        <pt x="-9" y="500" on="1"/>
      </contour>
    </TTGlyph>
    <TTGlyph name="afii10846" xMin="26" yMin="-13" xMax="395" yMax="513">
      <contour>
        <pt x="39" y="465" on="1"/>
        <pt x="65" y="486" on="0"/>
        <pt x="152" y="513" on="0"/>
        <pt x="201" y="513" on="1"/>
        <pt x="301" y="513" on="0"/>
        <pt x="395" y="374" on="0"/>
        <pt x="395" y="250" on="1"/>
        <pt x="395" y="117" on="0"/>
        <pt x="290" y="-13" on="0"/>
        <pt x="200" y="-13" on="1"/>
        <pt x="167" y="-13" on="0"/>
        <pt x="104" y="8" on="0"/>
        <pt x="55" y="56" on="0"/>
        <pt x="26" y="134" on="0"/>
        <pt x="26" y="192" on="1"/>
        <pt x="26" y="214" on="0"/>
        <pt x="31" y="264" on="0"/>
        <pt x="36" y="292" on="1"/>
        <pt x="276" y="292" on="1"/>
        <pt x="272" y="355" on="0"/>
        <pt x="228" y="411" on="0"/>
        <pt x="176" y="411" on="1"/>
        <pt x="144" y="411" on="0"/>
        <pt x="94" y="389" on="0"/>
        <pt x="80" y="378" on="1"/>
      </contour>
      <contour>
        <pt x="200" y="89" on="1"/>
        <pt x="237" y="89" on="0"/>
        <pt x="277" y="155" on="0"/>
        <pt x="276" y="213" on="1"/>
        <pt x="136" y="213" on="1"/>
        <pt x="132" y="158" on="0"/>
        <pt x="166" y="89" on="0"/>
      </contour>
    </TTGlyph>
    <TTGlyph name="afii57929" xMin="29" yMin="467" xMax="159" yMax="709">
      <component glyphName="quoteright" x="0" y="0" flags="0x204"/>
    </TTGlyph>
    <TTGlyph name="afii61289" xMin="73" yMin="-12" xMax="406" yMax="712">
      <contour>
        <pt x="406" y="30" on="1"/>
        <pt x="384" y="16" on="0"/>
        <pt x="313" y="-12" on="0"/>
        <pt x="278" y="-12" on="1"/>
        <pt x="215" y="-12" on="0"/>
        <pt x="158" y="49" on="0"/>
        <pt x="158" y="114" on="1"/>
        <pt x="158" y="218" on="1"/>
        <pt x="108" y="174" on="1"/>
        <pt x="73" y="218" on="1"/>
        <pt x="158" y="292" on="1"/>
        <pt x="158" y="546" on="1"/>
        <pt x="158" y="590" on="0"/>
        <pt x="178" y="653" on="0"/>
        <pt x="213" y="693" on="0"/>
        <pt x="260" y="712" on="0"/>
        <pt x="287" y="712" on="1"/>
        <pt x="335" y="712" on="0"/>
        <pt x="397" y="653" on="0"/>
        <pt x="397" y="593" on="1"/>
        <pt x="397" y="519" on="0"/>
        <pt x="317" y="353" on="0"/>
        <pt x="226" y="265" on="1"/>
        <pt x="226" y="125" on="1"/>
        <pt x="226" y="81" on="0"/>
        <pt x="260" y="48" on="0"/>
        <pt x="284" y="48" on="1"/>
        <pt x="309" y="48" on="0"/>
        <pt x="369" y="69" on="0"/>
        <pt x="389" y="80" on="1"/>
      </contour>
      <contour>
        <pt x="333" y="588" on="1"/>
        <pt x="333" y="622" on="0"/>
        <pt x="305" y="652" on="0"/>
        <pt x="287" y="652" on="1"/>
        <pt x="275" y="652" on="0"/>
        <pt x="253" y="645" on="0"/>
        <pt x="236" y="624" on="0"/>
        <pt x="226" y="587" on="0"/>
        <pt x="226" y="557" on="1"/>
        <pt x="226" y="345" on="1"/>
        <pt x="282" y="410" on="0"/>
        <pt x="333" y="531" on="0"/>
      </contour>
    </TTGlyph>
    <TTGlyph name="afii61352" xMin="45" yMin="-5" xMax="831" yMax="712">
      <contour>
        <pt x="539" y="323" on="1"/>
        <pt x="810" y="323" on="1"/>
        <pt x="810" y="217" on="1"/>
        <pt x="539" y="217" on="1"/>
      </contour>
      <contour>
        <pt x="198" y="345" on="1"/>
        <pt x="153" y="477" on="1"/>
        <pt x="148" y="477" on="1"/>
        <pt x="164" y="347" on="1"/>
        <pt x="164" y="0" on="1"/>
        <pt x="45" y="0" on="1"/>
        <pt x="45" y="705" on="1"/>
        <pt x="143" y="705" on="1"/>
        <pt x="332" y="347" on="1"/>
        <pt x="374" y="223" on="1"/>
        <pt x="380" y="223" on="1"/>
        <pt x="364" y="345" on="1"/>
        <pt x="364" y="700" on="1"/>
        <pt x="483" y="700" on="1"/>
        <pt x="483" y="-5" on="1"/>
        <pt x="385" y="-5" on="1"/>
      </contour>
      <contour>
        <pt x="530" y="542" on="1"/>
        <pt x="530" y="588" on="0"/>
        <pt x="552" y="652" on="0"/>
        <pt x="592" y="693" on="0"/>
        <pt x="647" y="712" on="0"/>
        <pt x="680" y="712" on="1"/>
        <pt x="713" y="712" on="0"/>
        <pt x="768" y="695" on="0"/>
        <pt x="808" y="655" on="0"/>
        <pt x="831" y="590" on="0"/>
        <pt x="831" y="542" on="1"/>
        <pt x="831" y="494" on="0"/>
        <pt x="808" y="429" on="0"/>
        <pt x="768" y="389" on="0"/>
        <pt x="713" y="372" on="0"/>
        <pt x="680" y="372" on="1"/>
        <pt x="647" y="372" on="0"/>
        <pt x="592" y="389" on="0"/>
        <pt x="552" y="429" on="0"/>
        <pt x="530" y="494" on="0"/>
      </contour>
      <contour>
        <pt x="636" y="542" on="1"/>
        <pt x="635" y="494" on="0"/>
        <pt x="657" y="455" on="0"/>
        <pt x="680" y="455" on="1"/>
        <pt x="692" y="455" on="0"/>
        <pt x="709" y="462" on="0"/>
        <pt x="720" y="482" on="0"/>
        <pt x="725" y="516" on="0"/>
        <pt x="725" y="542" on="1"/>
        <pt x="725" y="593" on="0"/>
        <pt x="703" y="629" on="0"/>
        <pt x="680" y="629" on="1"/>
        <pt x="657" y="629" on="0"/>
        <pt x="635" y="593" on="0"/>
      </contour>
    </TTGlyph>
    <TTGlyph name="agrave" xMin="17" yMin="-7" xMax="382" yMax="720">
      <component glyphName="a" x="0" y="0" flags="0x204"/>
      <component glyphName="grave" x="29" y="0" flags="0x4"/>
    </TTGlyph>
    <TTGlyph name="amacron" xMin="17" yMin="-7" xMax="382" yMax="658">
      <component glyphName="a" x="0" y="0" flags="0x204"/>
      <component glyphName="macron" x="12" y="0" flags="0x4"/>
    </TTGlyph>
    <TTGlyph name="ampersand" xMin="70" yMin="-14" xMax="624" yMax="714">
      <contour>
        <pt x="70" y="194" on="1"/>
        <pt x="70" y="232" on="0"/>
        <pt x="91" y="300" on="0"/>
        <pt x="129" y="360" on="0"/>
        <pt x="180" y="411" on="0"/>
        <pt x="209" y="431" on="1"/>
        <pt x="188" y="464" on="0"/>
        <pt x="161" y="534" on="0"/>
        <pt x="161" y="572" on="1"/>
        <pt x="161" y="597" on="0"/>
        <pt x="177" y="648" on="0"/>
        <pt x="213" y="689" on="0"/>
        <pt x="270" y="714" on="0"/>
        <pt x="311" y="714" on="1"/>
        <pt x="350" y="714" on="0"/>
        <pt x="406" y="693" on="0"/>
        <pt x="441" y="658" on="0"/>
        <pt x="457" y="612" on="0"/>
        <pt x="457" y="587" on="1"/>
        <pt x="457" y="545" on="0"/>
        <pt x="407" y="456" on="0"/>
        <pt x="350" y="414" on="1"/>
        <pt x="375" y="367" on="0"/>
        <pt x="432" y="272" on="0"/>
        <pt x="467" y="228" on="1"/>
        <pt x="486" y="253" on="0"/>
        <pt x="512" y="322" on="0"/>
        <pt x="523" y="359" on="1"/>
        <pt x="612" y="318" on="1"/>
        <pt x="607" y="300" on="0"/>
        <pt x="589" y="254" on="0"/>
        <pt x="567" y="209" on="0"/>
        <pt x="545" y="168" on="0"/>
        <pt x="535" y="154" on="1"/>
        <pt x="560" y="125" on="0"/>
        <pt x="603" y="90" on="0"/>
        <pt x="624" y="77" on="1"/>
        <pt x="563" y="-14" on="1"/>
        <pt x="536" y="-1" on="0"/>
        <pt x="485" y="41" on="0"/>
        <pt x="461" y="69" on="1"/>
        <pt x="431" y="35" on="0"/>
        <pt x="344" y="-14" on="0"/>
        <pt x="279" y="-14" on="1"/>
        <pt x="234" y="-14" on="0"/>
        <pt x="157" y="13" on="0"/>
        <pt x="101" y="66" on="0"/>
        <pt x="70" y="144" on="0"/>
      </contour>
      <contour>
        <pt x="392" y="148" on="1"/>
        <pt x="352" y="201" on="0"/>
        <pt x="287" y="302" on="0"/>
        <pt x="264" y="350" on="1"/>
        <pt x="229" y="315" on="0"/>
        <pt x="189" y="248" on="0"/>
        <pt x="189" y="203" on="1"/>
        <pt x="189" y="152" on="0"/>
        <pt x="246" y="95" on="0"/>
        <pt x="292" y="95" on="1"/>
        <pt x="324" y="95" on="0"/>
        <pt x="378" y="128" on="0"/>
      </contour>
      <contour>
        <pt x="280" y="566" on="1"/>
        <pt x="280" y="522" on="0"/>
        <pt x="309" y="476" on="1"/>
        <pt x="338" y="501" on="0"/>
        <pt x="364" y="546" on="0"/>
        <pt x="364" y="566" on="1"/>
        <pt x="364" y="589" on="0"/>
        <pt x="343" y="618" on="0"/>
        <pt x="321" y="618" on="1"/>
        <pt x="301" y="618" on="0"/>
        <pt x="280" y="589" on="0"/>
      </contour>
    </TTGlyph>
    <TTGlyph name="aogonek" xMin="17" yMin="-201" xMax="402" yMax="510">
      <contour>
        <pt x="44" y="470" on="1"/>
        <pt x="74" y="488" on="0"/>
        <pt x="164" y="510" on="0"/>
        <pt x="221" y="510" on="1"/>
        <pt x="306" y="510" on="0"/>
        <pt x="373" y="422" on="0"/>
        <pt x="373" y="341" on="1"/>
        <pt x="373" y="294" on="0"/>
        <pt x="368" y="203" on="0"/>
        <pt x="366" y="116" on="0"/>
        <pt x="371" y="35" on="0"/>
        <pt x="382" y="-1" on="1"/>
        <pt x="362" y="-1" on="1"/>
        <pt x="317" y="-25" on="0"/>
        <pt x="317" y="-73" on="1"/>
        <pt x="317" y="-98" on="0"/>
        <pt x="352" y="-123" on="0"/>
        <pt x="384" y="-108" on="1"/>
        <pt x="402" y="-166" on="1"/>
        <pt x="396" y="-172" on="0"/>
        <pt x="376" y="-184" on="0"/>
        <pt x="350" y="-194" on="0"/>
        <pt x="319" y="-201" on="0"/>
        <pt x="304" y="-201" on="1"/>
        <pt x="253" y="-201" on="0"/>
        <pt x="201" y="-151" on="0"/>
        <pt x="201" y="-111" on="1"/>
        <pt x="201" y="-71" on="0"/>
        <pt x="247" y="-14" on="0"/>
        <pt x="283" y="3" on="1"/>
        <pt x="266" y="60" on="1"/>
        <pt x="262" y="60" on="1"/>
        <pt x="246" y="31" on="0"/>
        <pt x="188" y="-7" on="0"/>
        <pt x="144" y="-7" on="1"/>
        <pt x="85" y="-7" on="0"/>
        <pt x="17" y="72" on="0"/>
        <pt x="17" y="138" on="1"/>
        <pt x="17" y="228" on="0"/>
        <pt x="145" y="304" on="0"/>
        <pt x="254" y="298" on="1"/>
        <pt x="259" y="356" on="0"/>
        <pt x="234" y="408" on="0"/>
        <pt x="193" y="408" on="1"/>
        <pt x="163" y="408" on="0"/>
        <pt x="99" y="394" on="0"/>
        <pt x="74" y="381" on="1"/>
      </contour>
      <contour>
        <pt x="187" y="95" on="1"/>
        <pt x="214" y="95" on="0"/>
        <pt x="248" y="122" on="0"/>
        <pt x="256" y="138" on="1"/>
        <pt x="256" y="221" on="1"/>
        <pt x="233" y="224" on="0"/>
        <pt x="191" y="220" on="0"/>
        <pt x="159" y="206" on="0"/>
        <pt x="140" y="179" on="0"/>
        <pt x="140" y="158" on="1"/>
        <pt x="140" y="127" on="0"/>
        <pt x="165" y="95" on="0"/>
      </contour>
    </TTGlyph>
    <TTGlyph name="approxequal" xMin="23" yMin="172" xMax="421" yMax="540">
      <component glyphName="asciitilde" x="0" y="95" flags="0x204"/>
      <component glyphName="asciitilde" x="0" y="-98" flags="0x4"/>
    </TTGlyph>
    <TTGlyph name="aring" xMin="17" yMin="-7" xMax="382" yMax="742">
      <component glyphName="a" x="0" y="0" flags="0x204"/>
      <component glyphName="ring" x="54" y="0" flags="0x4"/>
    </TTGlyph>
    <TTGlyph name="asciicircum" xMin="18" yMin="413" xMax="404" yMax="705">
      <contour>
        <pt x="181" y="705" on="1"/>
        <pt x="249" y="705" on="1"/>
        <pt x="404" y="413" on="1"/>
        <pt x="285" y="413" on="1"/>
        <pt x="229" y="535" on="1"/>
        <pt x="212" y="608" on="1"/>
        <pt x="191" y="534" on="1"/>
        <pt x="132" y="413" on="1"/>
        <pt x="18" y="413" on="1"/>
      </contour>
    </TTGlyph>
    <TTGlyph name="asciitilde" xMin="23" yMin="270" xMax="421" yMax="445">
      <contour>
        <pt x="23" y="378" on="1"/>
        <pt x="62" y="416" on="0"/>
        <pt x="126" y="445" on="0"/>
        <pt x="153" y="445" on="1"/>
        <pt x="177" y="445" on="0"/>
        <pt x="219" y="429" on="0"/>
        <pt x="257" y="409" on="0"/>
        <pt x="294" y="393" on="0"/>
        <pt x="314" y="393" on="1"/>
        <pt x="329" y="393" on="0"/>
        <pt x="360" y="406" on="0"/>
        <pt x="377" y="421" on="1"/>
        <pt x="421" y="318" on="1"/>
        <pt x="391" y="291" on="0"/>
        <pt x="341" y="270" on="0"/>
        <pt x="319" y="270" on="1"/>
        <pt x="296" y="270" on="0"/>
        <pt x="255" y="287" on="0"/>
        <pt x="216" y="308" on="0"/>
        <pt x="177" y="326" on="0"/>
        <pt x="156" y="326" on="1"/>
        <pt x="136" y="326" on="0"/>
        <pt x="91" y="305" on="0"/>
        <pt x="64" y="278" on="1"/>
      </contour>
    </TTGlyph>
    <TTGlyph name="asterisk" xMin="29" yMin="442" xMax="294" yMax="724">
      <contour>
        <pt x="123" y="724" on="1"/>
        <pt x="147" y="681" on="1"/>
        <pt x="160" y="625" on="1"/>
        <pt x="171" y="677" on="1"/>
        <pt x="197" y="724" on="1"/>
        <pt x="256" y="690" on="1"/>
        <pt x="229" y="641" on="1"/>
        <pt x="187" y="601" on="1"/>
        <pt x="242" y="616" on="1"/>
        <pt x="294" y="616" on="1"/>
        <pt x="294" y="546" on="1"/>
        <pt x="244" y="546" on="1"/>
        <pt x="192" y="562" on="1"/>
        <pt x="237" y="517" on="1"/>
        <pt x="259" y="477" on="1"/>
        <pt x="199" y="442" on="1"/>
        <pt x="175" y="485" on="1"/>
        <pt x="159" y="546" on="1"/>
        <pt x="149" y="491" on="1"/>
        <pt x="123" y="444" on="1"/>
        <pt x="63" y="479" on="1"/>
        <pt x="90" y="527" on="1"/>
        <pt x="129" y="561" on="1"/>
        <pt x="82" y="546" on="1"/>
        <pt x="29" y="546" on="1"/>
        <pt x="29" y="617" on="1"/>
        <pt x="83" y="617" on="1"/>
        <pt x="133" y="601" on="1"/>
        <pt x="88" y="642" on="1"/>
        <pt x="63" y="689" on="1"/>
      </contour>
    </TTGlyph>
    <TTGlyph name="at" xMin="57" yMin="-169" xMax="824" yMax="681">
      <contour>
        <pt x="558" y="484" on="1"/>
        <pt x="624" y="484" on="1"/>
        <pt x="585" y="211" on="1"/>
        <pt x="573" y="120" on="0"/>
        <pt x="614" y="120" on="1"/>
        <pt x="634" y="120" on="0"/>
        <pt x="673" y="144" on="0"/>
        <pt x="704" y="194" on="0"/>
        <pt x="723" y="272" on="0"/>
        <pt x="723" y="326" on="1"/>
        <pt x="723" y="395" on="0"/>
        <pt x="684" y="494" on="0"/>
        <pt x="614" y="557" on="0"/>
        <pt x="518" y="587" on="0"/>
        <pt x="461" y="587" on="1"/>
        <pt x="397" y="587" on="0"/>
        <pt x="286" y="536" on="0"/>
        <pt x="205" y="444" on="0"/>
        <pt x="158" y="316" on="0"/>
        <pt x="158" y="238" on="1"/>
        <pt x="158" y="85" on="0"/>
        <pt x="310" y="-75" on="0"/>
        <pt x="447" y="-75" on="1"/>
        <pt x="473" y="-75" on="0"/>
        <pt x="536" y="-61" on="0"/>
        <pt x="561" y="-48" on="1"/>
        <pt x="590" y="-135" on="1"/>
        <pt x="558" y="-152" on="0"/>
        <pt x="482" y="-169" on="0"/>
        <pt x="434" y="-169" on="1"/>
        <pt x="355" y="-169" on="0"/>
        <pt x="218" y="-121" on="0"/>
        <pt x="116" y="-22" on="0"/>
        <pt x="57" y="131" on="0"/>
        <pt x="57" y="236" on="1"/>
        <pt x="57" y="341" on="0"/>
        <pt x="124" y="507" on="0"/>
        <pt x="236" y="621" on="0"/>
        <pt x="382" y="681" on="0"/>
        <pt x="462" y="681" on="1"/>
        <pt x="538" y="681" on="0"/>
        <pt x="671" y="636" on="0"/>
        <pt x="768" y="547" on="0"/>
        <pt x="824" y="414" on="0"/>
        <pt x="824" y="326" on="1"/>
        <pt x="824" y="260" on="0"/>
        <pt x="785" y="147" on="0"/>
        <pt x="719" y="66" on="0"/>
        <pt x="630" y="20" on="0"/>
        <pt x="580" y="20" on="1"/>
        <pt x="539" y="20" on="0"/>
        <pt x="482" y="62" on="0"/>
        <pt x="484" y="114" on="1"/>
        <pt x="481" y="114" on="1"/>
        <pt x="458" y="76" on="0"/>
        <pt x="393" y="20" on="0"/>
        <pt x="346" y="20" on="1"/>
        <pt x="303" y="20" on="0"/>
        <pt x="243" y="96" on="0"/>
        <pt x="243" y="164" on="1"/>
        <pt x="243" y="231" on="0"/>
        <pt x="276" y="349" on="0"/>
        <pt x="332" y="438" on="0"/>
        <pt x="406" y="490" on="0"/>
        <pt x="448" y="490" on="1"/>
        <pt x="476" y="490" on="0"/>
        <pt x="516" y="470" on="0"/>
        <pt x="533" y="453" on="1"/>
      </contour>
      <contour>
        <pt x="505" y="369" on="1"/>
        <pt x="487" y="390" on="0"/>
        <pt x="458" y="390" on="1"/>
        <pt x="435" y="390" on="0"/>
        <pt x="397" y="357" on="0"/>
        <pt x="369" y="302" on="0"/>
        <pt x="353" y="231" on="0"/>
        <pt x="353" y="193" on="1"/>
        <pt x="353" y="158" on="0"/>
        <pt x="376" y="120" on="0"/>
        <pt x="400" y="120" on="1"/>
        <pt x="422" y="120" on="0"/>
        <pt x="467" y="169" on="0"/>
        <pt x="482" y="199" on="1"/>
      </contour>
    </TTGlyph>
    <TTGlyph name="atilde" xMin="17" yMin="-7" xMax="382" yMax="720">
      <component glyphName="a" x="0" y="0" flags="0x204"/>
      <component glyphName="tilde" x="0" y="0" flags="0x4"/>
    </TTGlyph>
    <TTGlyph name="b" xMin="43" yMin="-12" xMax="418" yMax="700">
      <contour>
        <pt x="43" y="700" on="1"/>
        <pt x="162" y="700" on="1"/>
        <pt x="162" y="468" on="1"/>
        <pt x="165" y="468" on="1"/>
        <pt x="201" y="512" on="0"/>
        <pt x="268" y="512" on="1"/>
        <pt x="339" y="512" on="0"/>
        <pt x="418" y="394" on="0"/>
        <pt x="418" y="263" on="1"/>
        <pt x="418" y="121" on="0"/>
        <pt x="306" y="-12" on="0"/>
        <pt x="209" y="-12" on="1"/>
        <pt x="156" y="-12" on="0"/>
        <pt x="67" y="8" on="0"/>
        <pt x="43" y="20" on="1"/>
      </contour>
      <contour>
        <pt x="162" y="108" on="1"/>
        <pt x="183" y="97" on="0"/>
        <pt x="217" y="97" on="1"/>
        <pt x="255" y="97" on="0"/>
        <pt x="295" y="170" on="0"/>
        <pt x="295" y="256" on="1"/>
        <pt x="295" y="332" on="0"/>
        <pt x="263" y="403" on="0"/>
        <pt x="229" y="403" on="1"/>
        <pt x="179" y="403" on="0"/>
        <pt x="162" y="351" on="1"/>
      </contour>
    </TTGlyph>
    <TTGlyph name="backslash" xMin="-18" yMin="-140" xMax="373" yMax="711">
      <contour>
        <pt x="373" y="-103" on="1"/>
        <pt x="280" y="-140" on="1"/>
        <pt x="-18" y="676" on="1"/>
        <pt x="76" y="711" on="1"/>
      </contour>
    </TTGlyph>
    <TTGlyph name="bar" xMin="45" yMin="-130" xMax="143" yMax="700">
      <contour>
        <pt x="45" y="700" on="1"/>
        <pt x="143" y="700" on="1"/>
        <pt x="143" y="-130" on="1"/>
        <pt x="45" y="-130" on="1"/>
      </contour>
    </TTGlyph>
    <TTGlyph name="braceleft" xMin="32" yMin="-230" xMax="296" yMax="701">
      <contour>
        <pt x="98" y="98" on="1"/>
        <pt x="98" y="149" on="0"/>
        <pt x="64" y="187" on="0"/>
        <pt x="32" y="187" on="1"/>
        <pt x="32" y="283" on="1"/>
        <pt x="64" y="283" on="0"/>
        <pt x="98" y="324" on="0"/>
        <pt x="98" y="368" on="1"/>
        <pt x="98" y="582" on="1"/>
        <pt x="98" y="635" on="0"/>
        <pt x="139" y="701" on="0"/>
        <pt x="189" y="701" on="1"/>
        <pt x="296" y="701" on="1"/>
        <pt x="296" y="599" on="1"/>
        <pt x="255" y="599" on="1"/>
        <pt x="232" y="599" on="0"/>
        <pt x="212" y="571" on="0"/>
        <pt x="212" y="539" on="1"/>
        <pt x="212" y="336" on="1"/>
        <pt x="212" y="292" on="0"/>
        <pt x="178" y="247" on="0"/>
        <pt x="155" y="242" on="1"/>
        <pt x="155" y="232" on="1"/>
        <pt x="178" y="228" on="0"/>
        <pt x="212" y="176" on="0"/>
        <pt x="212" y="134" on="1"/>
        <pt x="212" y="-68" on="1"/>
        <pt x="212" y="-99" on="0"/>
        <pt x="231" y="-128" on="0"/>
        <pt x="256" y="-128" on="1"/>
        <pt x="296" y="-128" on="1"/>
        <pt x="296" y="-230" on="1"/>
        <pt x="189" y="-230" on="1"/>
        <pt x="98" y="-230" on="0"/>
        <pt x="98" y="-112" on="1"/>
      </contour>
    </TTGlyph>
    <TTGlyph name="braceright" xMin="25" yMin="-230" xMax="289" yMax="701">
      <contour>
        <pt x="223" y="373" on="1"/>
        <pt x="223" y="322" on="0"/>
        <pt x="257" y="284" on="0"/>
        <pt x="289" y="284" on="1"/>
        <pt x="289" y="188" on="1"/>
        <pt x="257" y="188" on="0"/>
        <pt x="223" y="147" on="0"/>
        <pt x="223" y="103" on="1"/>
        <pt x="223" y="-112" on="1"/>
        <pt x="223" y="-166" on="0"/>
        <pt x="180" y="-230" on="0"/>
        <pt x="129" y="-230" on="1"/>
        <pt x="25" y="-230" on="1"/>
        <pt x="25" y="-128" on="1"/>
        <pt x="66" y="-128" on="1"/>
        <pt x="89" y="-128" on="0"/>
        <pt x="109" y="-100" on="0"/>
        <pt x="109" y="-68" on="1"/>
        <pt x="109" y="135" on="1"/>
        <pt x="109" y="179" on="0"/>
        <pt x="143" y="224" on="0"/>
        <pt x="166" y="229" on="1"/>
        <pt x="166" y="239" on="1"/>
        <pt x="143" y="243" on="0"/>
        <pt x="109" y="295" on="0"/>
        <pt x="109" y="337" on="1"/>
        <pt x="109" y="539" on="1"/>
        <pt x="109" y="570" on="0"/>
        <pt x="90" y="599" on="0"/>
        <pt x="65" y="599" on="1"/>
        <pt x="25" y="599" on="1"/>
        <pt x="25" y="701" on="1"/>
        <pt x="132" y="701" on="1"/>
        <pt x="223" y="701" on="0"/>
        <pt x="223" y="584" on="1"/>
      </contour>
    </TTGlyph>
    <TTGlyph name="bracketleft" xMin="45" yMin="-230" xMax="253" yMax="700">
      <contour>
        <pt x="45" y="700" on="1"/>
        <pt x="253" y="700" on="1"/>
        <pt x="253" y="597" on="1"/>
        <pt x="160" y="597" on="1"/>
        <pt x="160" y="-127" on="1"/>
        <pt x="253" y="-127" on="1"/>
        <pt x="253" y="-230" on="1"/>
        <pt x="45" y="-230" on="1"/>
      </contour>
    </TTGlyph>
    <TTGlyph name="bracketright" xMin="23" yMin="-230" xMax="231" yMax="700">
      <contour>
        <pt x="231" y="-230" on="1"/>
        <pt x="23" y="-230" on="1"/>
        <pt x="23" y="-127" on="1"/>
        <pt x="116" y="-127" on="1"/>
        <pt x="116" y="597" on="1"/>
        <pt x="23" y="597" on="1"/>
        <pt x="23" y="700" on="1"/>
        <pt x="231" y="700" on="1"/>
      </contour>
    </TTGlyph>
    <TTGlyph name="breve" xMin="60" yMin="564" xMax="350" yMax="719">
      <contour>
        <pt x="116" y="719" on="1"/>
        <pt x="130" y="689" on="0"/>
        <pt x="180" y="659" on="0"/>
        <pt x="209" y="659" on="1"/>
        <pt x="238" y="659" on="0"/>
        <pt x="284" y="689" on="0"/>
        <pt x="295" y="719" on="1"/>
        <pt x="350" y="693" on="1"/>
        <pt x="348" y="667" on="0"/>
        <pt x="325" y="621" on="0"/>
        <pt x="288" y="585" on="0"/>
        <pt x="238" y="564" on="0"/>
        <pt x="208" y="564" on="1"/>
        <pt x="151" y="564" on="0"/>
        <pt x="71" y="630" on="0"/>
        <pt x="60" y="689" on="1"/>
      </contour>
    </TTGlyph>
    <TTGlyph name="brokenbar" xMin="45" yMin="-130" xMax="143" yMax="700">
      <contour>
        <pt x="45" y="213" on="1"/>
        <pt x="143" y="213" on="1"/>
        <pt x="143" y="-130" on="1"/>
        <pt x="45" y="-130" on="1"/>
      </contour>
      <contour>
        <pt x="143" y="357" on="1"/>
        <pt x="45" y="357" on="1"/>
        <pt x="45" y="700" on="1"/>
        <pt x="143" y="700" on="1"/>
      </contour>
    </TTGlyph>
    <TTGlyph name="bullet" xMin="57" yMin="159" xMax="315" yMax="464">
      <contour>
        <pt x="57" y="311" on="1"/>
        <pt x="57" y="345" on="0"/>
        <pt x="76" y="402" on="0"/>
        <pt x="110" y="442" on="0"/>
        <pt x="157" y="464" on="0"/>
        <pt x="185" y="464" on="1"/>
        <pt x="242" y="464" on="0"/>
        <pt x="315" y="385" on="0"/>
        <pt x="315" y="311" on="1"/>
        <pt x="315" y="238" on="0"/>
        <pt x="242" y="159" on="0"/>
        <pt x="185" y="159" on="1"/>
        <pt x="129" y="159" on="0"/>
        <pt x="57" y="238" on="0"/>
      </contour>
    </TTGlyph>
    <TTGlyph name="c" xMin="25" yMin="-13" xMax="338" yMax="513">
      <contour>
        <pt x="338" y="27" on="1"/>
        <pt x="313" y="7" on="0"/>
        <pt x="243" y="-13" on="0"/>
        <pt x="208" y="-13" on="1"/>
        <pt x="157" y="-13" on="0"/>
        <pt x="88" y="24" on="0"/>
        <pt x="44" y="93" on="0"/>
        <pt x="25" y="190" on="0"/>
        <pt x="25" y="250" on="1"/>
        <pt x="25" y="381" on="0"/>
        <pt x="119" y="513" on="0"/>
        <pt x="210" y="513" on="1"/>
        <pt x="255" y="513" on="0"/>
        <pt x="312" y="497" on="0"/>
        <pt x="334" y="485" on="1"/>
        <pt x="306" y="386" on="1"/>
        <pt x="288" y="395" on="0"/>
        <pt x="255" y="404" on="0"/>
        <pt x="232" y="404" on="1"/>
        <pt x="190" y="404" on="0"/>
        <pt x="148" y="331" on="0"/>
        <pt x="148" y="250" on="1"/>
        <pt x="148" y="182" on="0"/>
        <pt x="191" y="96" on="0"/>
        <pt x="238" y="96" on="1"/>
        <pt x="263" y="96" on="0"/>
        <pt x="298" y="109" on="0"/>
        <pt x="313" y="119" on="1"/>
      </contour>
    </TTGlyph>
    <TTGlyph name="cacute" xMin="25" yMin="-13" xMax="338" yMax="720">
      <component glyphName="c" x="0" y="0" flags="0x204"/>
      <component glyphName="acute" x="102" y="0" flags="0x4"/>
    </TTGlyph>
    <TTGlyph name="caron" xMin="60" yMin="550" xMax="344" yMax="732">
      <contour>
        <pt x="243" y="550" on="1"/>
        <pt x="155" y="550" on="1"/>
        <pt x="60" y="732" on="1"/>
        <pt x="158" y="732" on="1"/>
        <pt x="190" y="666" on="1"/>
        <pt x="203" y="617" on="1"/>
        <pt x="216" y="666" on="1"/>
        <pt x="253" y="732" on="1"/>
        <pt x="344" y="732" on="1"/>
      </contour>
    </TTGlyph>
    <TTGlyph name="caron.l" xMin="167" yMin="498" xMax="300" yMax="700">
      <contour>
        <pt x="300" y="700" on="1"/>
        <pt x="298" y="671" on="0"/>
        <pt x="281" y="608" on="0"/>
        <pt x="257" y="552" on="0"/>
        <pt x="230" y="508" on="0"/>
        <pt x="220" y="498" on="1"/>
        <pt x="167" y="524" on="1"/>
        <pt x="181" y="560" on="0"/>
        <pt x="196" y="654" on="0"/>
        <pt x="196" y="700" on="1"/>
      </contour>
    </TTGlyph>
    <TTGlyph name="ccaron" xMin="25" yMin="-13" xMax="344" yMax="732">
      <component glyphName="c" x="0" y="0" flags="0x204"/>
      <component glyphName="caron" x="0" y="0" flags="0x4"/>
    </TTGlyph>
    <TTGlyph name="ccedilla" xMin="25" yMin="-210" xMax="338" yMax="513">
      <contour>
        <pt x="338" y="27" on="1"/>
        <pt x="320" y="12" on="0"/>
        <pt x="274" y="-5" on="0"/>
        <pt x="248" y="-10" on="1"/>
        <pt x="233" y="-43" on="1"/>
        <pt x="267" y="-47" on="0"/>
        <pt x="307" y="-82" on="0"/>
        <pt x="307" y="-118" on="1"/>
        <pt x="307" y="-141" on="0"/>
        <pt x="286" y="-175" on="0"/>
        <pt x="250" y="-198" on="0"/>
        <pt x="202" y="-210" on="0"/>
        <pt x="176" y="-210" on="1"/>
        <pt x="149" y="-210" on="0"/>
        <pt x="122" y="-204" on="1"/>
        <pt x="129" y="-156" on="1"/>
        <pt x="171" y="-160" on="0"/>
        <pt x="198" y="-141" on="0"/>
        <pt x="198" y="-127" on="1"/>
        <pt x="198" y="-99" on="0"/>
        <pt x="128" y="-95" on="1"/>
        <pt x="171" y="-10" on="1"/>
        <pt x="91" y="3" on="0"/>
        <pt x="25" y="141" on="0"/>
        <pt x="25" y="250" on="1"/>
        <pt x="25" y="381" on="0"/>
        <pt x="119" y="513" on="0"/>
        <pt x="210" y="513" on="1"/>
        <pt x="255" y="513" on="0"/>
        <pt x="312" y="497" on="0"/>
        <pt x="334" y="485" on="1"/>
        <pt x="306" y="386" on="1"/>
        <pt x="288" y="395" on="0"/>
        <pt x="255" y="404" on="0"/>
        <pt x="232" y="404" on="1"/>
        <pt x="190" y="404" on="0"/>
        <pt x="148" y="331" on="0"/>
        <pt x="148" y="250" on="1"/>
        <pt x="148" y="182" on="0"/>
        <pt x="191" y="96" on="0"/>
        <pt x="238" y="96" on="1"/>
        <pt x="263" y="96" on="0"/>
        <pt x="298" y="109" on="0"/>
        <pt x="313" y="119" on="1"/>
      </contour>
    </TTGlyph>
    <TTGlyph name="ccircumflex" xMin="25" yMin="-13" xMax="338" yMax="732">
      <component glyphName="c" x="0" y="0" flags="0x204"/>
      <component glyphName="circumflex" x="-22" y="0" flags="0x4"/>
    </TTGlyph>
    <TTGlyph name="cedilla" xMin="60" yMin="-210" xMax="245" yMax="0">
      <contour>
        <pt x="191" y="0" on="1"/>
        <pt x="171" y="-43" on="1"/>
        <pt x="205" y="-47" on="0"/>
        <pt x="245" y="-82" on="0"/>
        <pt x="245" y="-118" on="1"/>
        <pt x="245" y="-141" on="0"/>
        <pt x="224" y="-175" on="0"/>
        <pt x="188" y="-198" on="0"/>
        <pt x="140" y="-210" on="0"/>
        <pt x="114" y="-210" on="1"/>
        <pt x="87" y="-210" on="0"/>
        <pt x="60" y="-204" on="1"/>
        <pt x="67" y="-156" on="1"/>
        <pt x="109" y="-160" on="0"/>
        <pt x="136" y="-141" on="0"/>
        <pt x="136" y="-127" on="1"/>
        <pt x="136" y="-99" on="0"/>
        <pt x="66" y="-95" on="1"/>
        <pt x="115" y="0" on="1"/>
      </contour>
    </TTGlyph>
    <TTGlyph name="cent" xMin="70" yMin="-100" xMax="414" yMax="600">
      <contour>
        <pt x="414" y="28" on="1"/>
        <pt x="400" y="17" on="0"/>
        <pt x="361" y="0" on="0"/>
        <pt x="339" y="-5" on="1"/>
        <pt x="339" y="-100" on="1"/>
        <pt x="227" y="-100" on="1"/>
        <pt x="227" y="-10" on="1"/>
        <pt x="184" y="-3" on="0"/>
        <pt x="124" y="40" on="0"/>
        <pt x="87" y="108" on="0"/>
        <pt x="70" y="197" on="0"/>
        <pt x="70" y="250" on="1"/>
        <pt x="70" y="360" on="0"/>
        <pt x="151" y="493" on="0"/>
        <pt x="227" y="509" on="1"/>
        <pt x="227" y="600" on="1"/>
        <pt x="339" y="600" on="1"/>
        <pt x="339" y="509" on="1"/>
        <pt x="382" y="502" on="0"/>
        <pt x="409" y="485" on="1"/>
        <pt x="384" y="389" on="1"/>
        <pt x="372" y="394" on="0"/>
        <pt x="343" y="401" on="0"/>
        <pt x="329" y="403" on="1"/>
        <pt x="329" y="96" on="1"/>
        <pt x="349" y="99" on="0"/>
        <pt x="379" y="111" on="0"/>
        <pt x="390" y="118" on="1"/>
      </contour>
      <contour>
        <pt x="252" y="401" on="1"/>
        <pt x="220" y="390" on="0"/>
        <pt x="187" y="317" on="0"/>
        <pt x="187" y="250" on="1"/>
        <pt x="187" y="192" on="0"/>
        <pt x="218" y="114" on="0"/>
        <pt x="252" y="100" on="1"/>
      </contour>
    </TTGlyph>
    <TTGlyph name="circumflex" xMin="60" yMin="550" xMax="337" yMax="732">
      <contour>
        <pt x="161" y="732" on="1"/>
        <pt x="246" y="732" on="1"/>
        <pt x="337" y="550" on="1"/>
        <pt x="244" y="550" on="1"/>
        <pt x="212" y="616" on="1"/>
        <pt x="199" y="665" on="1"/>
        <pt x="186" y="616" on="1"/>
        <pt x="149" y="550" on="1"/>
        <pt x="60" y="550" on="1"/>
      </contour>
    </TTGlyph>
    <TTGlyph name="colon" xMin="77" yMin="-11" xMax="221" yMax="502">
      <component glyphName="period" x="43" y="362" flags="0x4"/>
      <component glyphName="period" x="43" y="0" flags="0x4"/>
    </TTGlyph>
    <TTGlyph name="comma" xMin="28" yMin="-147" xMax="182" yMax="138">
      <contour>
        <pt x="33" y="65" on="1"/>
        <pt x="33" y="99" on="0"/>
        <pt x="73" y="138" on="0"/>
        <pt x="103" y="138" on="1"/>
        <pt x="141" y="138" on="0"/>
        <pt x="182" y="84" on="0"/>
        <pt x="182" y="36" on="1"/>
        <pt x="182" y="-8" on="0"/>
        <pt x="157" y="-72" on="0"/>
        <pt x="121" y="-115" on="0"/>
        <pt x="80" y="-141" on="0"/>
        <pt x="65" y="-147" on="1"/>
        <pt x="28" y="-99" on="1"/>
        <pt x="51" y="-87" on="0"/>
        <pt x="87" y="-34" on="0"/>
        <pt x="89" y="-7" on="1"/>
        <pt x="68" y="-8" on="0"/>
        <pt x="33" y="27" on="0"/>
      </contour>
    </TTGlyph>
    <TTGlyph name="copyright" xMin="51" yMin="-13" xMax="674" yMax="609">
      <contour>
        <pt x="51" y="298" on="1"/>
        <pt x="51" y="370" on="0"/>
        <pt x="99" y="485" on="0"/>
        <pt x="183" y="566" on="0"/>
        <pt x="297" y="609" on="0"/>
        <pt x="363" y="609" on="1"/>
        <pt x="428" y="609" on="0"/>
        <pt x="542" y="566" on="0"/>
        <pt x="626" y="485" on="0"/>
        <pt x="674" y="370" on="0"/>
        <pt x="674" y="298" on="1"/>
        <pt x="674" y="226" on="0"/>
        <pt x="626" y="111" on="0"/>
        <pt x="542" y="30" on="0"/>
        <pt x="428" y="-13" on="0"/>
        <pt x="363" y="-13" on="1"/>
        <pt x="291" y="-13" on="0"/>
        <pt x="175" y="30" on="0"/>
        <pt x="94" y="111" on="0"/>
        <pt x="51" y="226" on="0"/>
      </contour>
      <contour>
        <pt x="137" y="298" on="1"/>
        <pt x="137" y="244" on="0"/>
        <pt x="170" y="159" on="0"/>
        <pt x="230" y="99" on="0"/>
        <pt x="313" y="67" on="0"/>
        <pt x="363" y="67" on="1"/>
        <pt x="412" y="67" on="0"/>
        <pt x="495" y="99" on="0"/>
        <pt x="555" y="159" on="0"/>
        <pt x="588" y="244" on="0"/>
        <pt x="588" y="298" on="1"/>
        <pt x="588" y="352" on="0"/>
        <pt x="555" y="437" on="0"/>
        <pt x="495" y="497" on="0"/>
        <pt x="412" y="529" on="0"/>
        <pt x="363" y="529" on="1"/>
        <pt x="313" y="529" on="0"/>
        <pt x="230" y="497" on="0"/>
        <pt x="170" y="437" on="0"/>
        <pt x="137" y="352" on="0"/>
      </contour>
      <contour>
        <pt x="471" y="161" on="1"/>
        <pt x="452" y="149" on="0"/>
        <pt x="394" y="134" on="0"/>
        <pt x="361" y="134" on="1"/>
        <pt x="292" y="134" on="0"/>
        <pt x="218" y="223" on="0"/>
        <pt x="218" y="298" on="1"/>
        <pt x="218" y="376" on="0"/>
        <pt x="296" y="462" on="0"/>
        <pt x="361" y="462" on="1"/>
        <pt x="393" y="462" on="0"/>
        <pt x="442" y="447" on="0"/>
        <pt x="465" y="434" on="1"/>
        <pt x="437" y="357" on="1"/>
        <pt x="422" y="365" on="0"/>
        <pt x="396" y="370" on="0"/>
        <pt x="385" y="370" on="1"/>
        <pt x="360" y="370" on="0"/>
        <pt x="333" y="336" on="0"/>
        <pt x="333" y="298" on="1"/>
        <pt x="333" y="226" on="0"/>
        <pt x="391" y="226" on="1"/>
        <pt x="420" y="226" on="0"/>
        <pt x="445" y="239" on="1"/>
      </contour>
    </TTGlyph>
    <TTGlyph name="currency" xMin="-13" yMin="108" xMax="491" yMax="607">
      <contour>
        <pt x="56" y="607" on="1"/>
        <pt x="127" y="537" on="1"/>
        <pt x="144" y="504" on="1"/>
        <pt x="162" y="518" on="0"/>
        <pt x="211" y="531" on="0"/>
        <pt x="238" y="531" on="1"/>
        <pt x="264" y="531" on="0"/>
        <pt x="316" y="517" on="0"/>
        <pt x="334" y="505" on="1"/>
        <pt x="351" y="537" on="1"/>
        <pt x="421" y="607" on="1"/>
        <pt x="491" y="534" on="1"/>
        <pt x="422" y="464" on="1"/>
        <pt x="388" y="449" on="1"/>
        <pt x="413" y="412" on="0"/>
        <pt x="413" y="356" on="1"/>
        <pt x="413" y="329" on="0"/>
        <pt x="400" y="282" on="0"/>
        <pt x="388" y="265" on="1"/>
        <pt x="422" y="251" on="1"/>
        <pt x="491" y="180" on="1"/>
        <pt x="421" y="108" on="1"/>
        <pt x="351" y="177" on="1"/>
        <pt x="335" y="210" on="1"/>
        <pt x="318" y="198" on="0"/>
        <pt x="264" y="184" on="0"/>
        <pt x="238" y="184" on="1"/>
        <pt x="211" y="184" on="0"/>
        <pt x="162" y="197" on="0"/>
        <pt x="144" y="210" on="1"/>
        <pt x="127" y="177" on="1"/>
        <pt x="56" y="108" on="1"/>
        <pt x="-13" y="180" on="1"/>
        <pt x="56" y="251" on="1"/>
        <pt x="89" y="267" on="1"/>
        <pt x="78" y="285" on="0"/>
        <pt x="66" y="329" on="0"/>
        <pt x="66" y="356" on="1"/>
        <pt x="66" y="383" on="0"/>
        <pt x="79" y="429" on="0"/>
        <pt x="91" y="449" on="1"/>
        <pt x="56" y="464" on="1"/>
        <pt x="-13" y="534" on="1"/>
      </contour>
      <contour>
        <pt x="165" y="357" on="1"/>
        <pt x="165" y="324" on="0"/>
        <pt x="206" y="280" on="0"/>
        <pt x="239" y="280" on="1"/>
        <pt x="272" y="280" on="0"/>
        <pt x="313" y="324" on="0"/>
        <pt x="313" y="357" on="1"/>
        <pt x="313" y="389" on="0"/>
        <pt x="272" y="435" on="0"/>
        <pt x="239" y="435" on="1"/>
        <pt x="206" y="435" on="0"/>
        <pt x="165" y="389" on="0"/>
      </contour>
    </TTGlyph>
    <TTGlyph name="d" xMin="25" yMin="-13" xMax="411" yMax="700">
      <contour>
        <pt x="402" y="176" on="1"/>
        <pt x="402" y="134" on="0"/>
        <pt x="404" y="50" on="0"/>
        <pt x="411" y="-1" on="1"/>
        <pt x="327" y="-1" on="1"/>
        <pt x="311" y="57" on="1"/>
        <pt x="307" y="57" on="1"/>
        <pt x="273" y="-13" on="0"/>
        <pt x="188" y="-13" on="1"/>
        <pt x="112" y="-13" on="0"/>
        <pt x="25" y="107" on="0"/>
        <pt x="25" y="242" on="1"/>
        <pt x="25" y="374" on="0"/>
        <pt x="119" y="511" on="0"/>
        <pt x="212" y="511" on="1"/>
        <pt x="236" y="511" on="0"/>
        <pt x="268" y="505" on="0"/>
        <pt x="283" y="498" on="1"/>
        <pt x="283" y="700" on="1"/>
        <pt x="402" y="700" on="1"/>
      </contour>
      <contour>
        <pt x="216" y="96" on="1"/>
        <pt x="243" y="96" on="0"/>
        <pt x="275" y="123" on="0"/>
        <pt x="283" y="149" on="1"/>
        <pt x="283" y="385" on="1"/>
        <pt x="273" y="394" on="0"/>
        <pt x="248" y="402" on="0"/>
        <pt x="228" y="402" on="1"/>
        <pt x="188" y="402" on="0"/>
        <pt x="148" y="330" on="0"/>
        <pt x="148" y="238" on="1"/>
        <pt x="148" y="169" on="0"/>
        <pt x="181" y="96" on="0"/>
      </contour>
    </TTGlyph>
    <TTGlyph name="dagger" xMin="33" yMin="-200" xMax="391" yMax="700">
      <contour>
        <pt x="33" y="509" on="1"/>
        <pt x="125" y="509" on="1"/>
        <pt x="169" y="494" on="1"/>
        <pt x="155" y="547" on="1"/>
        <pt x="155" y="700" on="1"/>
        <pt x="269" y="700" on="1"/>
        <pt x="269" y="547" on="1"/>
        <pt x="255" y="494" on="1"/>
        <pt x="299" y="509" on="1"/>
        <pt x="391" y="509" on="1"/>
        <pt x="391" y="405" on="1"/>
        <pt x="298" y="405" on="1"/>
        <pt x="255" y="420" on="1"/>
        <pt x="269" y="371" on="1"/>
        <pt x="269" y="0" on="1"/>
        <pt x="255" y="-200" on="1"/>
        <pt x="169" y="-200" on="1"/>
        <pt x="155" y="1" on="1"/>
        <pt x="155" y="371" on="1"/>
        <pt x="169" y="420" on="1"/>
        <pt x="125" y="405" on="1"/>
        <pt x="33" y="405" on="1"/>
      </contour>
    </TTGlyph>
</ttFont>
